<mxfile host="Electron" agent="Mozilla/5.0 (Windows NT 10.0; Win64; x64) AppleWebKit/537.36 (KHTML, like Gecko) draw.io/27.0.9 Chrome/134.0.6998.205 Electron/35.4.0 Safari/537.36" version="27.0.9">
  <diagram name="PÃ¡gina-1" id="IKVGy_DopQR0RWY-qbrC">
    <mxGraphModel dx="946" dy="1830" grid="1" gridSize="10" guides="1" tooltips="1" connect="1" arrows="1" fold="1" page="1" pageScale="1" pageWidth="827" pageHeight="1169" math="0" shadow="0">
      <root>
        <mxCell id="0" />
        <mxCell id="1" parent="0" />
        <mxCell id="tby80TmxBhAo45sjsNx7-43" value="" style="shape=image;verticalLabelPosition=bottom;labelBackgroundColor=default;verticalAlign=top;aspect=fixed;imageAspect=0;image=data:image/png,iVBORw0KGgoAAAANSUhEUgAAAtYAAADpCAYAAAAAo3CXAAAAAXNSR0IArs4c6QAAAARnQU1BAACxjwv8YQUAAAAJcEhZcwAADsMAAA7DAcdvqGQAAP+lSURBVHhe7J13XFX1/8dfd7BEEHAkkoKK1zQHKLk3GV/LgZViTkw0Gjhy5ChT1PhqPzK1MixXihbfzJxgagIiy4UswQAZsbnci8Jl3XPevz8u83IHKJrV5/l48HjoGZ/P5z0/73Pu55wjICICg8FgMBgMBoPBeCyE6hsYDAaDwWAwGAxGy2GFNYPBYDAYDAaD0QqwwprBYDAYDAaDwWgFWGHNYDAYDAaDwWC0AqywZjAYDAaDwWAwWgFWWDMYDAaDwWAwGK0AK6wZDAaDwWAwGIxWgBXWDAaDwWAwGAxGK8AKa8Zjwz9MQ1yKHLz6DgaDwWAwGIx/Ec0vrJXZuP7rt/hw+hiMGjkSI0dPxaLVa7F2zUp84O6KCaNGYcycb5CorDleEYZPRzyHdrau+DaJU2usFeGz8OPC3rBs74gVgcXqe9XgkfXjQvS2bA/HFYHQd7RmeORd+T/MH2WP9qbGaGc7Eh4H4qCo2cvdPwSPsSMxcqTa39gF+C65pXrgUBx/CjtXL8Eij3fwwfIPsW7HcUTev4PDh6+gUv3wpw2Xhd993TGk+4tw25eEWtMzGAwGg8Fg/BtpfmEttsFLrgsxtWs2IsPDEX5dieHr/4v/7vDFV4d+xPfLX4AsMRMPa29bVmQjOaUID3OTkSptaUHZAngZ/kjIQoksDYn3H0B3TzxkfyQgq0SGtMT7eKD7YI08DPsS24KM8Oqyj+H1yvOozArHgfffwe67qsYehJ3G/66GIzy88V90rhVe6C5Sb047fB4ufvwynN76CeIpn+Cb7/3w1Zdf4OPX2+LcIhe8eywZJernNBsehTdvIPUR5G+EqCsmeC3G2PYEUt/3t6eVdPTEeNbHx2AwGAzGv4/mF9YAAAEMDMQQNNpWifw8Bexe/wwfTTKv32flhgM3b+JaTAh8Rho2OqNVEQ/Ahgu3ER51Gz+/ZwfdpasYAzZcwO3wKNz++T3Y6T5YAxwednaFz3YvzJrhjk2HtmGahRCkLIH8AQegEjduSjFqxU4c/vk0zp0/j/PnjuA9B2N0f3U6hjRbDUok7p4Dt12VWHzsELzGdIVRzR5T+ynY/JMf5lo8gOxRi6qyKOzaeAj3WuMWs8gCFuaNPeIfQWvq6EnwrI+PwWAwGIx/IaJNmzZtUt+oHQ5Zv+3FoQgpeHEvTF01B4NEkfh2XxacRvVHr7726GhuBiMqQfK1YMT8+RAVDx6At+qKjia1xddD3D1/GPt/vITEUivYSzrCGAqkR/2OiLg/kJKagyrLrjDNOo99313EA9vB6NFOCKAEyUH+OOB/ClfiimFm/wKs2/DIuXkR15KLUaGQocyoK2zaiVXdlCQjyP8A/E9dQVyxGexfsIZR7k1cvJaM4goFZGVG6GrTDqqjeUjvnMLhgz8hMDIN5R3s0aODkdoFBAAIYWZlidr6mJdexf7dwTCasxO73hmAdsJSPLAYjfcXTcXgvr3Rq1cv9GwbhW+2xWGY92eYbFvTW2EkfvjKH3fEvTHgedOm/chOYsXs/0PyaG8cWjYYpmq7Bab26GVWBkEPe3QQAoAS0nvXERWTgiJYoLOlcf0VkyITcalV6NC2BHG3siEWpeD7JXPhHW6A3v2soKxuB9tOphAopbh3PQoxKUWARWdYGuu+5lIWp+BGdDwKBALc+99BxHV3x7sTn6+7sFHkxCH6ZjIKBVbobNFUl3xuDC5du417KXngOnRFB4Nc3LwYhjt/pEEq7oLnLQ1UB5ZlIu6+Eh07iFGQEIXYIiNYdzTVfkWoJq9h5w4wEQKAAjlx0biZXAiBVWdYGNWOiIc8NRpRCUUQWhigTEYwrbiFPR4adKRJz3wuYi5dw+17KcjjOqBrBwPk3ryIsDt/IE0qRpfnLWGgY1xK6T1cj4qBSu2WqFd7GTLj7kPZsQPEBQmIii2CkXVHmApV/qN5fAAUOYiLvonkQgGsOlugTkwGg8FgMBhPHK31SbMgDvln9uOXNNVtMzNra5gJAQjbwbZjHLa//hpenbwQe2OrVcdzGQhYNARjtuVigvsQ3P1oJEYvPYcCvg06W8bj8zdew6uT5+GLo59j6mhXLF2/Aiu/iwX4bPyyZARGbsrEqNctEbxuJkaMWoGLJSI8160UPy6egldfnYp1p6XgAfDZv2DJiJHYlDkKr1sGY93MERi14iJKn+uG0h8XY8qrr2LqutOQ8gCgxL2Dbhg8fDki7d2xsHc4PhjUH2/6JehYw1yFgjsnsGnhVvxeaQory9r7yRZwHNYPxnXH8Sg49ysiOryK6UNrj6nElU/dsGjtWiya8Qkua+hEEXoavxUIIXF6CVbqOwEAYrzwn/+gtxgAl4ajC4bhjV13UJQXDh8XCUZtjoCCL0DkgWUYby/BxE3fYvubozBi+EuYt+8+TCzbgucrUSaXo0ShBJd2FAuGvYFdd4qQF+4DF8kobI6oXTWujgJx++bBxWM/YrJTcGa9F/zuNbh1zuciaMtirPQLQez1n7BylARjNlyq0XU9QqtueD7/ByyZthj7E5WAyApdOyVj95yp+DAgBxxfiOjDyzHeXoJJPsexf4kLXps9D6859IerX0rTJT8a5R2ChUek4HODsGXxSviFxOL6TysxSjIGGy5JwaMKsbvd4XUsC8qKRByYMwxvfp+GohxpEx1p1bPQCt2ez8cPS6Zh8f5EKCGCVddOSN49B1M/DEBOtbZxFSDt6AIMe2MX7hTlIdzHBZJRmxGh4FEYfRjLx9tDMskHx/cvgctrszHvNQf0d/VDCsdDrml84JEbtAWLV/ohJPY6flo5CpIxG3BJXfEMBoPBYDCeHNQiKinsQwmJAYLYnl6ZN5F6thGTzeJAqlA/tOw4vdlWQBD1IK8rFUTEUcHxmdRJaEhjd6YTR+V0bpE1iQyH0NZ4JVH5SZrXXkgQmJDt63vo+i1/Wj7djXyuPiDZyQVkIzKgl7YkkFJ5l7aPNCGB4RDalqgkqo6lTYMNCDCkCXuyiSMZnVxgQyKDl2hLgpKUd7fTSBMBGQ7ZRonKaordNJgMADKcsIeyOSIu9zBNby8kQbuZ9FMpqcbRQUiCdpPIL5NTl0qFMoMu715Or0rakhAgCNvRy3tS1I8i4nLp+9csqKfXlQb6UVL60XkkadeOJHOP0H1lozOIiKPML8eTIYzolW8L1Hc2QXn3MxraZjBtjqsmomqKXtePjB020u1qIuIyaOc4QzLpv4x+K5BRwqUguiOtppyvnMnYxoPOVxARKenuZ0OpzeDNpGoimtb1MyaHjbepWr0zIioLW00DeiykU7KaDaVnaZGNAb2wOoIqiaP843No/NpIqiQiIo4ydo4lQwNH2ni7aWvKxK00xLg3rbqmOpoqr9Gq3iY0/L9/kJKISJlKn480JHOnZXQqrZKI5PTznE5kNOpzSm2iNy3yFubS8TnjaW1kTR9cBu0ca0gGjhvpdlk4rernQB9Flqt25fnT1j0JVE2cmo706FmZSFuHGFPvVddq5K6ka6t6k8nw/9IfSi3jKkigz4a2ocGb40il9nXUz9ihRk9KSv18JBmaO9GyU2lUSUTyn+dQJ6NR9HmqkkjD+Lj84zRn/FqqF3MnjTU0IEctdmQwGAwGg9H6PPoda1EvzPjyPH73ewNdNLai/kBbBa6euYQinkfulT1Yv3YjjseWg6rjcf1mw7ujIjhMnQMnx9nY+cuPWDtKhOBfziGXE8DUrC0Eohew8uQNXIv6BSv7aFgkrQjGL+dywQlMYdZWANELK3HyxjVE/bISmg5/+PspXC7mIWzXHlZiAAJzmLcVgB5cRWDwA/XDVYi6YYLXTpyLvoiNI9tByD9A2LnL6keBLzyHk9esMGn68Lo10oAItnN+QLJcjuQjczWs8xaiTRsjCAWE6ooKva+wE0k8cTjUH152WQg+sB0HI2XgK8tRwQMQmsDEUAhzJ2eM7miBvs4uGGClbiwRJJ6HEervBbusYBzYfhCRMh6V5Zr6LkXQ3kNI6z8O4y1qNhl3h5113QIQBJ8MQva9s/D18YGPz3b4l7tgk/d8DDZp0ExzEbVFW1MRzBxc4NLdEIApJL26QlgiR7GmpyU1yWscipNB2bh31hc+Pj7w2e6PcpdN8J4/GCZiG0hsM/DF1DFY8NkJJBi4YcMHfWuWBzVGp571oWlcHV+A5+FQ+HvZISv4ALYfjISMr0R5BQ9AhLZtTSEyc4CLS3cYAjCV9EJXYQnkGgUHFMEnEZR9D2d9feDj44Pt/uVw2eSN+Y+keAaDwWAwGI+CepXVMgRidJv5Pmb0qC1FFEhPy1U7qJZSFBSVgocA7Ucswbb/7sCRaBk4vgy/zjerP0zYDs91btPgvDLk5z8EDx6FeXlQAhB17IvhDjYNitUGlOUj/yEP8IXIy1MCEKFj3+FwsNF0NI8HhcWoIEBgaAhDAYDa1cBUBbn0gYbisgHthmGtz0LYiwFquooYhed+xTWrSXh9hKa+tdNu0GBIxBzuxcejSn2nOkIxymN2Y7HnAeQMfBueE6whbFh7qQ9LA0JxOWJ2L4bngRwMfNsTE6yFmt/ywWUh6Q85IBJrdhz+IQql5TDq44rV69ZhXe3f2uWY2ltTuaoPAQSNxi+ASCQAiNc8PjSVl39YCGm5Efq4rq4fz7p1WLt8KnobdsOiIxfxrZsZQrbNxKDeI7DsZGbTZSZohp710cQOQojLY7B7sScO5AzE254TYN2gQUFjwSEQiSAAgdfYJ4+HhVKUG/WB6+oGel+3Fsun9tZ4ocBgMBgMBqP10VgftQjDIZg/fxAMAPA5J3DwVL76ETWYomN7UwjBIenGDR2vihNC2Ogurik6dzaHEBxSQoORrrHqaYBpZ3Q2FwJcCkKD0zUXSXUIYdXtebQTAsTzNUVLBSqrAQjN0KVr+8YK4osR9cMXOHgtv67gNpBI0E0oRr+hQxseCfBFOP9rGCz/8zqGq9fVvBwp0dFILdFctosd3OEx1gz5Zw7gRK6mY6pw7/w5xFYApedXYNp6KWZ8tQWzB3eqK6I01l8aKcX5FdOwXjoDX22ZjcGddLQgsEIHKzEq4m8iRm1tOPE8IDRHF+s2SArYj8uy+n1cWiDOxWp4fYVIDJGGYpFIt9VagtC8C6zbJCFg/2XUD4lDWuA5xFZmIf7PrnDffRlJCWewfkAm9nptwyUN695161kEsQigpoJo97/S81gxbT2kM77CltmDoUvt+hHCvIs12iQFYH9jxSPwXCx7vziDwWAwGE+JFhfWPF9T6JES1VU8ACM819kKwtI4fPueN+5Y2tYcKVC7SWeCMVMnooOQh/ycL3yCpeDBI+f8bhy+XQWgtrDloax51lFFG0xwc0VXEVAZ9Q22/JINDoDi7jkEJlQBINQNieeANhPg5toVIlQi6pst+CWbA6DA3XOBSKiqKQBVB4MDYDpxAWZ0F4OK85FfDaCiCNISHqLnXfHWy43fx8EXBmDjO6uwaOJozPj8ItKkOQjb+yNibGZjvWe/xscWncOvYRb4z+sjGjzMCABKXN88AQOGDcMAZ2/c0FT1iOzxrt8ezGx7FstnrsOv90rr9/Ey3Dj8GU6RI/oZ8yhJTUN+aSaS75eiIisEZyJywSlKkBsThfhSVaGmrG7YiRDGxkbAg1zkFBciKjQCd9PyUZqZjPulFcgKOYOIXA6KklzERMU3OA+AsCOmzJuMDmn7sWL9WWRWAZUZtxBfwEGWnYG8EgEmLpyN7ul+cBs3B97fB+DEYR94fBQO07pfNeoRdbJBZ8NsRP52C/kFd3Fu7yFckypRmHUfRQ8rAJ4DpyTwDe5QE9VcBGm63oAGeU0nYuHs7kj3c8O4Od74PuAEDvt44KNwU/QQZCFghx9uKQBju1ex/pMZsGtjBGOBmo7CYpCnS8/lnWDT2RDZkb/hVn4B7p7bi0PXpFAWZuF+0UNUaBgXX5KKtPxSZCbfR2lFFkLORCCXU6AkNwZR8Q/AcUoQ3+CiQyV4Tfypjy8WgokLMbt7OvzcxmGO9/cIOHEYPh4fIdy0B7tjzWAwGAzG00J90bVWqv+k6F/30qL+xiSoeWBvwOtLac1Hq2jpouk0vJspCcQ9aWlwzdNTZT/RzHYNH15UPfT387sOZCESkMC4I/UeMpHe3hNND6iMkn/2oBcNBASBEfX3OEox0gYPDnIFdOmTsdTZQEACA0vqOXg8zdh4ljI5JaVfXEdjLYUEiKjL5B10LZcjruASfTK2MxkIBGRg2ZMGj59BG89mUlX6RVo31pKEAIm6TKYd13KJiKPiq9volW7WNGbNQTq4ajR17uZCW0Ok1OTRxepY+nJiZzIQgAAQBEZkM+o9OpJQpnYgR/kHp5Gl3bt0UfVcXAMqKWrDQDIWCMjE8ROK1vFkmTL/Gu1dOpVekvSi/sPG06Tps2jB4jW091pB3di47JO0dEhnMrPsSWM89tKVH9zJ1qIHTf5vEIUcX0cvW4tIZONCG47foKKak5QpB+ktiSW1l7iSb2QJZZ9cSkM6m5FlzzHksfcK/eBuSxY9JtOOCHnD4ajgZBT9tTsNs7UkCzsnmvLBJlo0rDsNn/0xHYzIJaIySjzqRRPsLcnI0Jy6jVxCh+LV9VPLAwrbOpG6mZuTjeMM2nHlPK0e3IvGLthER6+nUeyJ9eTcSUQGklnkez6Bkq8eoKUjLEjYxpE8vguj7IYG4qR0S4u8VJZIR70mkL2lERmad6ORSw5RfJnqYcn1I3qSw8vutGaTN61dsoR8LucR10RHD7XreUcEyYnoQdhWmtjNnMxtHGnGjit0fvVg6jV2AW364RL97q9hXFw2nVw6hDqbWVLPMR6098oP5G5rQT0m76CL107QeudOJDKQ0Czf85SQfJUOLB1BFsI25OjxHYVlc03GpxLzKHlNsCdLI0My7zaSlhyKJ22aZzAYDAaD0foIiOiRfnzWS8UvmGszA/4PemD57wnYObr27c8cSu7fxp1MJTr1ccQLndTXSWinLCsGt1LLYClxRL8uDddha6IMWTG3kFpmCYljP+g9vDIfiTcTkS/ojBcH90EnbR9z4UuRGXsLfxQLYNG9Pxy6W+j5KI0GeBnuXb8HYe+XYG/R4h8NGAwGg8FgMBjPIM0urNUfpmI8Gs1UN4PBYDAYDAbjbwa7XcpgMBgMBoPBYLQCzb5j3Xw45Ecew+HAe6jsMAiu86ahP1vuwGAwGAwGg8H4h/MECmsGg8FgMBgMBuPfB7uVzGAwGAwGg8FgtAKssGYwGAwGg8FgMFoBVlgzGAwGg8FgMBitACusGQwGg8FgMBiMVoAV1gwGg8FgMBgMRivACmsGg8FgMBgMBqMVYIU1g8FgMBgMBoPRCrDCmsFgMBgMBoPBaAVYYc1gMBgMBoPBYLQCrLBmMBgMBoPBYDBaAVZYMxgMBoPBYDAYrQArrBkMBoPBYDAYjFaAFdYMBoPBYDAYDEYrwAprBoPBYDAYDAajFWCFNYPBYDAYDAaD0QqwwprBYDAYDAaDwWgFWGHNYDAYDAaDwWC0AqywZjAYDAaDwWAwWgFWWDMYDAaDwWAwGK3AM1dY8w/TEJciB6++g9FCypBx+w6yKtS3PztwsnuIu1+mvvkvhMfDtDikyFvD+1qzrX8GFdlxuJv/D9dHRTbi7ub/8/IX/xBpcSlg7sxgMBi6aXFhzRdGYf9HC/Dmm25we8sDa3wP4dC2vbhcqX5kC+Gy8LuvO4Z0fxFu+5KgVN/PaBF8+j7MHz4Ciw/nPXuTPJeB333nY1D3AVjknwFOff9fAJf1O3zdh6D7i27Yl/R43teabf0T4OW3cfRDZ9jbj8PWsCr13f8MeDluH/0Qzvb2GLc1DP8cKTlk/e4L9yHd8aLbPjB3ZjAYDN20rLAuC8PHk+bjnN2H2P/zTzi+bzVGyn7AWp/fkPu41ZGoKyZ4LcbY9gRS3/evgkfhzRtIfUx9Cu2W4IeIcHy3oHMLjfwUENliwgcLMdoSz4ytRV0nwGvxWLSnxx9Ry9tqHZs/qwgtHDF7xTRImq2PvyFCCzjOXoFpkmcnf/GFN3HjsZ1KhK4TvLB4bHv8I83HF+LmjdRn4uJeE61jQwaD8TRpUc1Vcfl7HMgahgULB6IdAKFZb0zzPo7/c20PgfrBj4LIAhbmrdLS35eyKOzaeAj3HvvOkClsHQeiq7H69mcEkSnMTFvkfk8ckYUFWsv9WtRWq9n82UVobgbT5urj74rQHGbPjJBliNq1EYdaxalEsLAwb50c/4xRFrULGw/de0Z/IW1NGzIYjKdFiyobgaEhxMVn4fvZ78irvYgWPofX5kyFjajxsYqcOFwLDsXNjId6lyIoi1MQHRKK21nl6rsAHW3x8lREhVxFTGYJpDm5aLRaV5GDuGvBCL2ZgYeNBqCE9F4UrlwOxvU0uf47FVUFSIoIRnBUCmTqB3MypN24itDIJBSo//Zblom4ZCl4VCE/IRzhiQWNkzcvR2pUCK7GZKJEmoPcMoAvjMTuBXPhG52OmN+CcCW+UCWvIhNxSYXgKnJwJzoRiTcvIigwEEFXkyDnAS7nJi4EBiLwQiTuK+q7qMiORWJevfCKzDgkFXKoyLmD6KTixrLzuYi5GITAwCBcTZKDB4ecmxcQGBiIC5H3UdesPrmarV8BBDUzNSkLcTcyEgl56gvCdbSlQX/1KJATdw3BoTeR0dj4GlCiOCUaIaG3odn9Wq8tpfQeoq5cRvD1NMhrhNFqc+jxL53yq1OG7NgwhEbcRUFlFfLT0vGwufaGrlhqiiYZAQBCQZPCTJEVq1pzzcmRdiMctzNrhahCfmI4wu7koIlHaGsfAFCFgqQIBAdHIaVJsGqzYxky45Ih5YGq/ASEhyeioEkdo+1cdYR1Pl2PDh/WiHYZtMuuQGZcEgq5CuTciUZSUR4idy/AXN9opMf8hqAr8Sjk0fKxKIuREh2C0NtZ0ODOzfALHrkxzclVzbFBAxrlwyQUNxCk+XMFj8LI3Vgw1xfR6TH4LegK4lVK0qDn5sqhZofagSmluBd1BZeDryNNzWnLMuOQrBIcCeHhSKwVnC/UYkO0wB8ZDMZfQYsKa6MJXlg5Vojwrf+B4+gl+Co0G1UALCdNxTijmoP4XARtWYyVfiGIvf4TVo6SYMyGS5BqjH8F4vbNg4vHfsRkp+DMei/43WuQeHS0VRW7G+5ex5ClrEDigTkY9ub3SFdClQSDtmDxSj+ExF7HTytHQTJmAy5JeYBLw9EFw/DGrjsoyguHj4sEozZHNC4i6uBRGLwN893/D5cyChC7ZyokTl44lasSRB75Jdzd1iIgLhPJp1didF8XeF8pBM8XIvrwcoy3l2CSz3HsX+KC12bPw2sO/eHql6KazKpisdvdC8eylKhIPIA5w97E9+lVkOdIYWLZFjxfiTK5HCWleYg8sAzj7SWYuOlbbH9zFEYMH4Y1EW2R/8MSTFu8H4lKQGTVFZ2Sd2PO1A8RkMOBl93G8TWvwL7nGGwOrQBfEIkDy8bDXjIRm77djjdHjcDwIQtxRNpAXKEVuj2fjx+WTMPi/YlQQgSrrp2QvHsOpn4YgJzqZsjVIv2qoPxz8BrhiBHOo9Dfrg+m7bqBUuhpS6P+VBMSnxuELYtXwi8kFtd/WolRkjHYcEmq+eJOEYd981zgsT8G2SlnsN7LD43dr7Xa4pB2dAGGvbELd4ryEO7jAsmozYhQ8E1trlDJodW/oFt+dRQJh+D52jxsv5CApNAvMMuxO/pO34ckXo+9awsKbbHUBG0yqh8H8MU3cHTly5D0GotNASfw6ZxZcH/7DQzvMwwrg27gyHuTMX3hO5gxrA9Gf1rrP7rb5wuDsW2+O/7vUgYKYvdgqsQJXqdywWu1YyHyow9j+Xh7SCb54Pj+JXB5bTbmveaA/q5+SKmxneZztfiAOrp8WAPaZdAmO4+CyANYNt4ekomb8O32NzFqxHC8NG8f7ptYoi3Po7JMDnmJAsoWjkURtw/zXDywPyYbKWfWw8vvXoNCvLl+IYRVt+d15KpqFDbDBnXwBRry4RAsPCJt+VxRJUeO1ASWbXnwlWWQy0ugUGrTs345NNlhyMIjKEg7igXD3sCuO0XIC/eBi2QUNkcowBdG4/Dy8bCXTILP8f1Y4vIaZs97DQ79XeGXwoGX50CqbsPH9UcGg/F0oJZSmkDHPxxPzxsJSCBsRy9M30xn0ypqdnKUf3wOjV8bSZU1/8/YOZYMDRxp4+3qRs0QEZWFraYBPRbSKVnNhtKztMjGgF5YHUGVOtsqo/BV/cjho0gqJyLi8sh/6x5KqCbi8o/TnPFrKVJ1EnEZO2msoQE5brxNFXc/o6FtBtPmuGoiqqbodf3I2GEjaRgacbnHyM3ehb7O4IiIqDr+cxpr1YUWnCwlkp2ndyR9aHlIec3RZRS2sg8ZWs+iH/M4ImUqfT7SkMydltGptEoiktPPczqR0ajPKVVJVBm+ivo5fESRqsFTnv9W2pNQTUQc5XzlTMY2HnS+TqUZtHOcIZn0X0a/Fcgo4VIQ3ZFWUeLWIWTcexVdq5Gz8toq6m0ynP77h7Jm/F+Ts5E5zfyprKaZnTTO0IT6L/uNCmQJdCnoDklVotWjTKStQ4yp96prNTqvpGurepPJ8P/SH0rSK5eyBfql6mha18+QbKbupmipkqg0jr6bYUcGRk7kHVutsy2t+uPy6fic8bS23vi0c6whGThqGkMZha0eQD0WnqJ691tENgYv0OqIytZtS3mXPhvahgZvjqNqIqqOXkf9jB1qYkKDzfX4l1b51Xn4Oy3v50irr6l8gKiSwle9QEb91lF0tX5764qlJr3plJGIHhykKcaWNPtnlUxczlfkbNSGhq0LoVwlEVXeok8cDKjd8I/otz9VNr/9iQMZ9fCiKxV62udy6ZibPbl8nUEcEVF1PH0+1oq6LDhJpTrtqKTUz0eSobkTLTuVRpVEJP95DnUyGkWfpypb6ANERA/o4BRjspz9M5VTC+NBlwy6ZCeOMnaOI0OT/rTstwKSJVyioDtSqs75ipyNbcijxqlaNJayMFo9oActrE/MdHaRDRm8sJpUodECvyClnlylxwbqaMyH1Y80VxCXQ185G5ONx3mqID0+plcOTXYooITPhlKbwZtJpfZoWtfPmBxq9KRM/ZxGGpqT07JTpEqnP9OcTkY06vNUUtbGSAMbttwfGQzGX0GL7lgDAEz7Ypbv70i89T98Ms0aOac2wXXk6/gmUQlAgeCTQci+dxa+Pj7w8dkO/3IXbPKej8Em6g2VImjvIaT1H4fxFjWbjLvDzrp2TYmutsSwkdgi44upGLPgM5xIMIDbhg/QVwwogk8iKPsezvr6wMfHB9v9y+GyyRvzB5tAJPHE4VB/eNllIfjAdhyMlIGvLEeFhst9WeBxBBk5wqmzSkXiF1chWJqNQ66mKD7zHX7MssdAx9oFzG0w1M0VkqKzOBYoB0Rt0dZUBDMHF7h0NwRgCkmvrhCWyFFMgNhGAtuMLzB1zAJ8diIBBm4b8EFfcaP+6xCawMRQCHMnZ4zuaIG+zi4YYKXfbEIzM7Rt8LO00MQEhkJzODmPRkeLvnB2GYBmNNMYPXK1RL8qRLB+yRmDrESAaT+87fshRgniEHq1CAIdbWnVnyIYJ4Oyce+sL3x8fOCz3R/lLpvgPX8wmrpfEPYeSkP/ceNR7352qHe/VmxLJIHn4VD4e9khK/gAth+MhIyvRLkWxejzL63yq1Fy7lscfTgUrwxuU7NFhHbt2jb7ZypdsdSEFsoobGuKNgJDdB/khM4iAIYS2NuKga6DMNJGDEAMO9suEJTIICM97csCcTzICI5ONQ/qil/EqmApsg+5wlSnHUVo29YUIjMHuLh0hyEAU0kvdBWWQF5MLfMBDbQoHnTJoEt2CGFiYgihuROcR3eERV9nuAywamLjloylNGgvDqX1x7j6xIzudtaoD40W+IVe9NhAHY35sOKR5oom6NSzPjTZoSNe8DyMUH8v2GUF48D2g4iU8agsrwAPQNS2LUxFZnBwcYEqnUrQq6sQJfJizQ/APqY/MhiMp4N6/tUJl3oDt2sWepn1fQObf7mNm0fmonvRBXy28yLAP0ShtBxGfVyxet06rKv9W7scU3urZTIuC0l/yAGRWPMgdLZliG6LjuDit24wC9mGmYN6Y8Syk8jkeDwslKLcqA9cVzc4Z91aLJ/aG2KhGOUxu7HY8wByBr4NzwnWEGrMYBykBUWokBerJnW1ffmZf0LBV6GqwQJQsZ0tbIRVkMsegG+wfliFACKRACAeBEDYbRGOXPwWbmYh2DZzEHqPWIaTmeq/ezagybrNZiBQH8OjNdMY9TYby4Vm61czwo490N1CAE5ZrbMtbfrjHxZCWm6EPq6rG9h+HdYun4qm7pcElftp9L5WbQsQQlweg92LPXEgZyDe9pwAa62K0e9f0CJ/YzjkpKajVGwIg0cyvJ5YUj+8RTLW+GfjDRAKGr8lRiAUov5VFNrb56QFKKqQo7hpsOq1o0AtSAQiEQQg8KT/XL3o8GF1dMmgS3YVzTBws8fCISvpD8ghgmZ3bqlf6EeXDTSiLu4jzRVqbQDN0LM+1AcGCMXliNm9GJ4HcjDwbU9MsBbW+7h6DAhEUKVTzX0+tj8yGIyngsbUqQ1lyv+wP6jBw1Uwhv0sb3gOF+GBTA4IzdHFug2SAvbjsqz+PC4tEOdi1daACqzQwUqMivibiFF7BzbxvJ62KpEV/ye6uu/G5aQEnFk/AJl7vbDtUjXMu1ijTVIA9jc+CYHnYiE/vwLT1ksx46stmD24U90k0DSNifBcNxuY5AfipwvFdVt5aSD8/FPwXK+eMOcScONm/QpFvqoSVcLnMdDRWq9Suax4/NnVHbsvJyHhzHoMyNwLr22X0JJXgYvEovqCtg4CaZwwmosIqmbVNEKk/0EnAKXN1q8WFIUoKu8Gh0HPQaGjLW36qzbvAus2SQjYfxn11ueQFngOTd2vA6zEFYi/GaOmd4LK/VqvLZSex4pp6yGd8RW2zB6MTjoVI0IXPf5FWuRv3LcAFpbtgD9vIPK+NuvpsrdQZyw1WdHdIhkfAR3ti57rBhuTfAT+dAF10cpLEejnjz9Mm29HdVriA5poSTzokiG5RLvszaX5YxHAqoMVxBXxuNk0MYNvqV88sVzVgEeaKzRkWx0+hkeSoxTnV0zDeukMfLVlNgarN9hCHtcfGQzG00FfDdgYkuH8ttU4llQ/4XPZ4Yi63xnTZjkDMMXEhbPRPd0PbuPmwPv7AJw47AOPj8Jh2kPtklrYEVPmTUaHtP1Ysf4sMquAyoxbiC/gIMvOQF6JQEdbAmQF7IDfLQVgbIdX13+CGXZtYGQsgOnEhZjdPR1+buMwx/t7BJw4DB+PjxBuaoey1DTkl2Yi+X4pKrJCcCYiF5yiBLkxUYgvbTy8dpMWYmbXPBx553Us/yYAv/j74n33AIhH2MNq8lJ49pfhxM4DSK4CAB55F4ORNXIp3httBPAcOCWBb5CEiVQXDDwPcFkB2OF3CwoYw+7V9fhkhh3aGBlDACGMjY2AB7nIKS5EVFis6uEiApTVDTOnCJ1sOsMwOxK/3cpHwd1z2HvoGqTKQmTdL8LDCgA8B55qCrvaMUCJRs2oI+oEm86GyI78DbfyC3D33F4cuiaFsjAL94seokKnXDxKWqBfFQRFibymIKxA3P6jSP3PJ1g2XKyzrdhkLfoznYiFs7sj3c8N4+Z44/uAEzjs44GPwk3R1P2mYN7kDkjbvwLrz2aiCpXIuBWPAk6G7Iw8lAhary1ZXirS8kuRmXwfpRVZCDkTgVxOgZLcGETFK5rY3ECPf2n3n0ajQqf/vI5xJlH475z3sPdCNG7+fggHf8+tv0jSY2+R1ljq0eTOJF+iS8ZSgOPAgcDXOiTHg6+98KiBAFCDlyUTEcDz4PS1nzUaC2d2Rd6Rd/D68m8Q8Is/fN93R4B4BOzNddmRB8cpQXyDu6Mqh1aNswX+pIIDx9XEA1oYD+0maZWhR6kO2eNLaxNEo6JWaGwMIzxAbk4xCqNCEXG3uWMRouOUeZjcIQ37V6zHWVVixq34AnCybGTklUDQAr/Qn6v02EATTfKhrnlH+1wBoTFUoZeD4sIohEbc1aHncj1y1A2s3g58CVLT8lGamYz7pRXICjmDiFwOipJcxETFg+c4KIlvcGFLoJoY4ZvYMAyxOnMSD+nFzXB7ayuuNLi4YDAYfwHqi651UfHbBnpj7mJ6a8okmvqGG82aMZUmjHmVPjh4hx7WHVVGiUe9aIK9JRkZmlO3kUvoUHztw1NqcDKK/tqdhtlakoWdE035YBMtGtadhs/+mA5G5Opoq5KurR9BPR1eJvc1m8h77RJa4nOZ8moexitLPEpeE+zJ0siQzLuNpCWH4qmMiLjsk7R0SGcys+xJYzz20pUf3MnWogdN3hFBcvWxEVFZoj95TZBQR7N2ZOM0m3yvFqgeLCKi6vTTtGHqYHIcN4sWv/s2zfP8gkLyOSKSU+yJ9eTcSUQGklnkez6Bkq8eoKUjLEjYxpE8vguj+1fX04ieDvSy+xra5L2Wlizxocs1g1emHKS3JJbUXuJKvuEZdOv4OnrZWkQiGxfacPwGFdUO4EEYbZ3YjczNbchxxg66cn41De41lhZsOkrXM+LpzKeTqItITHau2+hMVCQdX/cyWYtEZOOygY7fKKqTQ50HYVtpYjdzMrdxpBk7rtD51YOp19gFtOnoFQr9n265srJaot8y+uP0Vpo79iUaM82d3l+6mN7bcoZSa57X02Wrgmva9UdliXTUawLZWxqRoXk3GrnkEGl3v2j62n0Y2VpakJ3TFPpg0yIa1n04zf74IEXkcq3XVnYWnVw6hDqbWVLPMR6098oP5G5rQT0m76AIuZrNI1WRpN2/iCp1yd8IJeX89ilN6dOR2prb0fgVART4qROZ1D68qNPe16mI0x5LTeCytcuYl0RnN7pQZ5GIbF230ano63T600lkIxJTjze205m4DIr5ZQtN7SYicY/p5PPrHbp/I4A2vmpDInF3mu4TSCnlOtqXq+zu7zWBJB3NqJ2NE832vUoFtSrRYkd57Ala79yJRAYSmuV7nhKSr9KBpSPIQtiGHD2+o7DslvhAOSWd3UgunUUksnWlbafidfpw03jQIYNW3f6XgkKO07qXrUkksiGXDcfpRm2CUKbQwbckZNleQq6+kVTSorFwJIv+mtyH2ZKlhR05TfmANi0aRt2Hz6aPD0aQKjSa6RekO1ddCf2ffhvUwkm158NHmiuUlHLwLZJYtieJqy9FlmjTc42PaZXjB7r0u78GO3CUfXIpDelsRpY9x5DH3iv0g7stWfSYTDsuXqMT652pk8iAJLN86XxCMl09sJRGWAipjaMHfReW3cSGD0m7LxMpKeXrSfRc58n0bZqGhz4ZDMZTQ0ANbxExGIx/MBwStw6D008TEXL7M7zU9PYig8FgMBiMx6BlS0EYDAaDwWAwGAyGRlhhzWD8a1CiqKgEylI5Huhaa89gMBgMBuORYIU1g/GvgEP2teOIMn8DH87qgBtHgpGu9W0GDAaDwWAwHgW2xprBYDAYDAaDwWgF2B1rBoPBYDAYDAajFWCFNYPBYDAYDAaD0QqwwhpQfaY3LQ4pci0fJGhNKrIRdze/wdcr/8k8Rb22MpzsHuLul6lvZrQK6n5Rhozbd5DV4BPuT5SyDNy+kwVd3fEP0xCXIn8ycaq1fx4l6TcQFhGPvAqgLOM27jwhpTzJtp9Fnq14Vvf/p4RWv3s0nm0fauWc8ljz9pOzt3qe0moTvgTpN8IQEZ+HitbWDSqQHXcX+a0lHv8QaXEpaKm6OLkMJRrPeXL610bzC2tFMi5+vwkLXxmFkaPGwHnKG3jD1RUzFn+C/ddyNX7K9u8Al/U7fN2HoPuLbtiX9ASl4OW4ffRDONvbY9zWMFSp7/+H8dT02tpwGfjddz4GdR+ARf4ZzfqUO6OGyqvYMKI3xqwKQoGWHKbJL/j0fZg/fAQWH857xImrJfBI3zcfw0csxuE8Db1xWfjd1x1Dur8It31JTyCvaemfu4+ANZ7YfiYCpz52gaSfK5bMGIYRiw9D0zAfCz4d++YPfzJtP2s8Y/Gsyf+fDlr87lHR4UOVVzdgRO8xWBVU8BTiWTOtllMec95+YvbWlKe02IS7H4A1nttxJuIUPnaRoJ/rEswY1gq6AQ/57aP40Nke9uO2IqylymkCh6zffeE+pDtedNuH5qurEiknv8DnZ/5okq+fmP71of7FGN2U0ok5HUhkNYdOlBNR+X06vXQQmRp2ozcPpagf/LehMuxDkhi9QKsjKtV3tS5cJu0ab0SWs3+mmg8M6oGjghvXKeVv+iGtp6bX1qbid3rfzoictiSQVtVzBXTjeor2/f9CKq+tIqfhGyi06af8GtHUL0op/VYMZTYvKB6f0nS6FZOpPQYrw+hDiRG9sDqCWsNzuYIbdL1hEDfpn6O8H6ZTl1f3kZSIuKJL5D3Xk/Zeuk4xraKUpnmkNP1WK7X9N6A58fwUaer/T4kmfvd4aPahSrq2yomGbwjV8EXPp0kr5pQWz9uNeWL21pCnmtiEy6MfpnehV/dJiYijokveNNdzL1263kq6IY4yd40nI8vZ9HNde03zTfOppLAPJWT0wmpqnrqUdN/fg2b/97ZW2zwx/eug+XesAQBiWLRrCwEAAQAY22HKtk/wuuWfOOm9S/3gvw0iCwuYC9S3PgGE5jAzbUFHZVHYtfEQ7j3FC63W5KnptbURmcLMVHdolEXtwsZD95pcIf974ZCZ8TzWHNuM0e3U9zWmqV+YwtZxILoaN9z2BDG1hePArtDancgCFq3muGWI2rURhxoGcZP+qxB5KQxlpuYwBiBs74xPjuyFp7MTBraGUjTkEVNbx9Zp++9AM+L5adLU/58STfzu8dDoQ1wmMp5fg2ObR0NPGnjCtGJOaem8rcYTs7eGPNXEJlWRuBRWBlNzYwBCtHf+BEf2esLZqZV0AyHMzUxV9WAtGvJN8xHBwsK8cXs64NK+g9fnwFueDlr9+onpXwePn22Mu6O7tQi8NL9+m1KKe1FXcDn4OtLkjX98U2TGIamQQ0XOHUQnFdf8NKeE9F4UrlwOxvU0eQt/rqtCQVIEgoOjkCJrfKZSeg9RVy4j+Hoa1IYBQInilGiEhN5GVrn6Pn3naoPHw/sJSHvIg5OlIDI0CimNThZC0MTAmmXnCyOxe8Fc+EanI+a3IFyJL6z72YaTpeHG1VBEJhW0+KephvDyVESFXEVMZgmkOblotAJRkYO4a8EIvZmBhy36vUi3XgEFcuKuITj0JjIaNcxDnhqFkKsxyCyRIie38XpIRU4crgWH4mbGw8Y/X+nwNb1wMqTduIrQyCQUNFKkoM5OpCzE3chIJOTVLkjjURi5Gwvm+iI6PQa/BV1BfGHtiLTJVobMuGRIeaAqPwHh4YkoaJJ0tJ2rLWZ0wMuRGhWCqzGZKJHmILeMR27MRQQFBiLoahLkPMDl3MSFwEAEXojEfYV6A9rQHmsA0H7oSHTOvI6kxsqsQbdfVGTHIlH9N+WKXMRfC0FYTIbmtXNa7aePCmTHJjb5CVtZnILokFDc1jRAHfYpy4xDssq4SAgPR2KtcflCRO5egLm+0UiP+Q1BV+KhcpUG/VdmIvrCb4hMLQFXlIhLgRcQnvJQdX5FNmIT1X+u1W4DTTlLax6pa5tH8d1QBAUGIjAwEEFhySpdP0zBtQuBCAwKQ3Ld2kQOsrQbuBoaqcXGzaU58aCrLwWyYlVrOjl5Gm6E30ZmbbqoykdieBju5DRcQKornlVojbFHzoPq6PZ/Xf6lK09XFSQhIjgYUSmyRnlBszzqfq9vvlKhrQ/N/tkeQ0d2RuZ1DTFZlom4ZCl4VCE/IRzhiQWPcWNCvw/V5hS++C5Cg1T+HRgUhmSVgyPl2gUEBgYhLFled47meUbTvK2PR7e3PnTmqQY2qcyMxoXfIpFawqEo8RICL4SjPrU0zbdN7MznIuZiEAIDg3A1SQ4eHHJuXkBgYCAuRN5H7bQhbKAcrflGS51Th7IYKdEhCL2dBQ1SaaEUl3Z8jpjBrpjQ5Cruyem/OTx2Yc0XXMetdA5tBg0HAHBpR7Fg2BvYdacIeeE+cJGMwuYIBfiCSBxYNh72konY9O12vDlqBIYPWYgjBWk4umAY3th1B0V54fBxkWDU5og6o+mCLwzGtvnu+L9LGSiI3YOpEid4ncoFDw5pRxdg2Bu7cKcoD+E+LpCM2oyI2kYVcdg3zwUe+2OQnXIG6738cK/O0nrO1QKXFYo9HkNg23c29vhvxiuDhmLiy8PRRzIB3tdK1A9XwWmTnYc8RwoTy7bg+UqUyeUoUSgByBH5pTvc1gYgLjMZp1eORl8Xb1ypK+yaT1Xsbrh7HUOWsgKJB+Zg2JvfI10JADxyg7Zg8Uo/hMRex08rR0EyZgMuSZvRh069AnxuELYsXgm/kFhc/2klRknGYMMlVaKN3e0Or2NZUFYk4sCcYXjz+/SadWO5CNqyGCv9QhB7/SesHCXBmA2XIOW1+1pzkEd+CXe3tQiIy0Ty6ZUY3dcF3lfqL14AgPLPwWuEI0Y4j0J/uz6YtusGSnk5cqQmsGzLg68sg1xeAoVSm2yFyI8+jOXj7SGZ5IPj+5fA5bXZmPeaA/q7+iGltvjReK4USm0xI20wSHWqYrHb3QvHspSoSDyAOcPexPfpPKy6PY/8H5Zg2uL9SFQCIquu6JS8G3OmfoiAnCZprgnaYw2APBJfurthbUAcMpNPY+XovnDxvlJTROr2C152G8fXvAL7nmOwObS+2CmJ2AHXKZ8istoIJefex7A+L2H8K6/hja1XoGim/ZrCQ3b7ONa8Yo+eYzajvjsF4vbNg4vHfsRkp+DMei/4NXBcrfYpjMbh5eNhL5kEn+P7scTlNcye9xoc+rvCL4UDL8+B1MQSbXkelWVyyEtKUaTeP1WhrESOsmqAqstQIpfjgUKKm8fX4BX7nhizObTuYTPtNtCWszTkkdIi3G7UthCm7Y2Q9M0iTJm2DbcsusBUCKDNc2gbvRO+N8SwaiPUb+NmwaOwGfGgvS8exTeOYuXLEvQauwkBJz7FnFnuePuN4egzbCWCbhzBe5OnY+E7MzCsz2h8qpYLNMXzA60x9hh5UB0d/g8d/sXrytN8IYK3zYf7/11CRkEs9kyVwMnrFLLzNMnjjm+vNPa7Zs1XWvrIVcrUfEiF1pjkCxF9eDnG20swyec49i9xwWuz5+E1h/5w9UtpWmTpRL8PqecUoWl7GCV9g0VTpmHbLQt0UTk4nmsbjZ2+NyC2aqNznmkxj2Fv3ejIU3xTm1BVGUrkZagGobqsBHL5AyikN5vmW212hhW6PZ+PH5ZMw+L9iVBCBKuunZC8ew6mfhiAptOGhnyjUOqoc1Qo4vZhnosH9sdkI+XMenj53WueTzy8CP9fc/HiSy81vlv9xPTfAtTXhuimgi6/Z0di0+G04shJOunvSx4vtad2L8yifXHlRKSku58NpTaDN1NcNRFVR9O6fsbksPE2VRMRl7GTxhmaUP9lv1GBLIEuBd2hgoTPaGibwbRZdQJFr+tHxg4b6Xa1et9qcLl0zM2eXL7OII6IqDqePh9rRV0WnKRS5V36bGgbGrw5jlTDWEf9jB1o4+1qIiqjsNUDqMfCUySraar07CKyMahZg6PzXN1Uhq+i3gbWNOHTIPqzmqgs8TuabiMiw8Gb6E41EdEDOjjFuG6tlvKuLtk5yvnKmYxtPOh8hap92fl3SNJnOYXULiYqC6OVfQzJetaPlMfVj0M/lRS+qh85fBSpWpfE5ZH/1j2UUE3E5R+nOePXUmTNciQuYyeNNTQgxxobakePXrl8Oj5nPK2tb5h2jjUkA8eNdLssnFb1c6CPIlWCcXn+tHVPAlUTR/nH59D4tZE1a8g4ytg5lgwNHGnj7QqdvqYT2Xl6R9KHltcrksJW9iFD61n0Yx5X05Yh2UzdTdFSJVFpHH03w44MjJzIO7aaiMuhr5yNycbjPFUQ6ZatWkmpn48kQ3MnWnYqjSqJSP7zHOpkNIo+T1XqOVdzzEh12LoyfBX1c/iIVKrkKM9/K+1JqCYiJSVuHULGvVfRtZquKq+tot4mw+m/f+hZDKcr1khG59+RUJ/lIXVr3MrCVlIfQ2ua9WMecfr8goi43K/J2cicZv5UpjqgOo62vNS2fk1s9S36eIAR9VwarPIDffbTCUe5XzuTkflMqu2uLGw1DeixkE7VD5AW2Rio1i7qsY8y9XMaaWhOTstOUZrKuDSnkxGN+jyVlETE5XxFzsY25FEbxBr6JyqjH6YZk4VbANVt4nLpa2cjMp/5k2qbLhvozFlN80iTtomoOm4LvWRiQwtP1ayM5XLo4PurKfAhEem1cUvQEw96+1LJY9RmGK0LySUlEVXe+oQcDNrR8I9+oz+riaj6Nn3iYEQ9vK6o4lNPPGuKscLcR82D6ujxf53+pS1Pc5R7zI3sXb6mDJUzUPznY8mqywI6WaotZzT1O93zle4+mviQvphUptLnIw3J3GkZnVIFCv08pxMZjfqcUvWkn6bo8yFtOcWEbBaeqln7zVHOwfdpdeBDIp3zTHWTeVs3j2Pvhu00RWeeIg02ISIq+4GmGVuQW0DdFjXd6LGzMpG2DjGm3quu1eimkq6t6k0mw/9LtdPGg4NTyLhujXXTfKOzzikLo9UDetDCeqHo7CIbMmjGGuvKayupt8HztCSoNrHRE9V/S3i0O9aGNug7wAZWzw3EvL3XkRF/HIv7GQMQQeJ5GKH+XrDLCsaB7QcRKeNRWV4BHoDQxASGQnM4OY9GR4u+cHYZgI4veOJwqD+87LIQfGA7DkbKwFeWo0Lf5YMsEMeDjODo1Fl12138IlYFS5F9yBWmIgk8D4fC38sOWcEHsP1gJGR8JcoreKA0CHsPpaH/uPGwqGnKuLsdrEU1/9F1rh6EJiYwFnXEiGnOsBEDbfq4Y/NiB1BcCEI0vItGJGmJ7MU4892PyLIfCMfay7M2Q+HmKkHR2WMIrP81qxmIYSOxRcYXUzFmwWc4kWAAtw0foK8YUASfRFD2PZz19YGPjw+2+5fDZZM35g82UW+kMfr0qgjGyaBs3DvrCx8fH/hs90e5yyZ4zx8ME7ENJLYZ+GLqGCz47AQSDNyw4YO+EEOB4JNByL53Fr4+PvDx2Q7/chds8p6PwSa6fU0XxWe+w49Z9hhYr0gMdXOFpOgsjtUpUgTrl5wxyEoEmPbD274fYpQgDqFXi5q2r0s2iNC2rSlEZg5wcekOQwCmkl7oKiyBvJj0nKs5Zqx0RK3YRgLbjC8wdcwCfHYiAQZuG/BBX7H6YS1DV6wVn8F3P2bBfqBj3V2DNkPd4CopwtljgZDr8wsAQjMztG34U6syHWlZVfU/MYq7o3tXICc9HeXNtp82hDAzUz0noqIUQXsPIa3/OIyvHyDsageoxz6itm1hKjKDg4sLuquMi15dhSiRF0PzJ23V+9eC0AxmDZWiywYtzVnqbQMQ910Ez5cVOOkXgGwe4O4dR9RzMzGhLQB9Nm7Ukj70xIPevoRoa9oGAsPuGOTUGSIAhhJ72IqBroNGwkYMQGwH2y4ClMhkDWygPZ6hIcaMQx8xD6qjz/91+pe2PC1D4PEgGDk6obPKGfDiqmBIsw/B1VRbzmjqd7rnK6nOPtR9SG9MitqirakIZg4ucFEFCiS9ukJYIkex5kDRgR4f0pRTxH2xyPNlKE76IUDl4Dge9RxmTmgL6JxnGrTRHB7L3rrQk6fQ1CbaaKwb3b7UGuiqc0qD9uJQWn+MqxcK3e2s0UAqrSizspCLtmjXroHMT0z/LUPHFK0DgRHaS17CGGdnjBncHe0a2lZcjpjdi+F5IAcD3/bEBGthowmmidmFYpTH7MZizwPIGfg2PCdYQ9iMQOOkBSiqkKNYpulgIcTlMdi92BMHcgbibc8JsK5plMtKwh9yQCTWJrr2c1uOGD1f7AVTVKOyUkMbLZGdy0fmnwrwVVUN3kMqhp2tDYRVcsgeaJlENSJEt0VHcPFbN5iFbMPMQb0xYtlJZHI8HhZKUW7UB66r12Hdutq/tVg+tTd0lWf69Mo/LIS03Ah9XFc3aHcd1i6fit6G3bDoyEV862aGkG0zMaj3CCw7mQmOf4hCaTmM+rhidYNz1q1djqm9xXp9TTMc8jP/hIKvQlWDZZZiO1vYCKsglz1oWjgDEHbsge4WAnDKavVdumUTAwK1BXoCkQgCEHjSfy40xYwOhN0W4cjFb+FmFoJtMweh94hlOJnZrB/WtKIr1rj8TPyp4FHVWJmwtRGiSi6DLEO3XwAABPVrYAEAhkMx+ZXnkHz5Au5zACrvIinDEs5TxqLtI9qvIQKBoF6nXBaSVAPUmAz12qdhWwAgEEEkAIhvqqtaGvWvFUEjv9Flg5bnrMZtAwCE1pjp+QbMrvhhf3wZon9MRb85jjBsho1blHpq5G/0/wbx0Jy+1M+HQAiB2iwjFAKkQwXq8dy4xUfPg+o8Vl4Ua8nTVVIUFFVAXtzwwqExmvxLv981mK8URXr6aOhDzYlJtRiHACJVoGhpXzfqPtDQh2oOUOtPCOuZnnjD7Ar89sejLPpHpPabA0dDAHrmmZbwePZWP7oBevKUCg1xrYmGuuH0+9Jjo7XO4ZCV9AfkEEGLunRC1dWoJqDhwJ+Y/luI5t4fmVKcXzEN66Uz8NWW2RjcqXak2k1Wen4Fpq2XYsZXWzB7cKe6pKX9DBWi57rBxiQfgT9dQHHtRl6KQD9/JJecx4pp6yGd8RW2zB6MhsMQWHWAlbgC8TdjUFnfHAACzwMo1X5u8yBQg4mmWlEBvlMf9OvS9BqsRbKLuqBXT3NwCTdws27pII+qyioInx8IR+uWmJJDVvyf6Oq+G5eTEnBm/QBk7vXCtkvVMO9ijTZJAdh/Wdbg8DQEnovV+aCJPr0KzbvAuk0SAvZfRn3LHNICzyG2Mgvxf3aF++7LSEo4g/UDMrHXaxsuVZuji3UbJAXsR+PhBOJcrLzFvqZChC69esKcS8CNekWCr6pElfB5DHS01hwUikIUlXeDw6DnmuzXKZsupT3muZrgsuLxZ1d37L6chIQz6zEgcy+8tl1CJQCRWKRhIiOQnrpbV6ylPNcLPc05JNy4Wf9cBF+Fyiohnh/oiC4ddPuFRoQd4bpzL9yNLuPLLTvh+9lJmKwJxBEPO4ge1X7aEFihg5UYFfE3EdN4gCCeb3X7PCq6bKAr37WEtq94wl2SgINfeON4yVjM6qHKWaIuum3cotSjh6fWl454BoSPnAfVeay8qNSSp69YoJuNCfIDf8KFemeANNAP/sl6grkJWuarrl1a0Ecrx+STou0r8HSXIOHgF/A+XoKxs3qo7owKdc0zLbH249q70QmN0ZOnHhnRc3rsLIJq2lBLJkTNWwets84RwKqDFcQV8bjZVCi9N0jEnZ9DB0EZHpbVj+2J6b+FtNjfK6uqQdWVqNQkNV+C1LR8lGYm435pBbJCziAil4OiJBcxUfEAAIIS1XUC8ChJTUN+aSaS75eiIisEZyJywSlKkBsThfjSho2r0W4SFs7sirwj7+D15d8g4Bd/+L7vjgDxCPQoTUVafikyk++jtCILIWcikMspUJIbg+v5EzBvcgek7V+B9WczUYVKZNyKRwEnQ3ZGHmR52s+N0jmgGvhCZKTXHMfn4PTpWPTzfA8TjAGAA8epAoHXK7sQxsZGwINc5BQXIiosAxOWeqK/7AR2HkhWvQ2Ez8PF4CyMXPoeRhsBiut7sGDyW/C+kNt4TE3gkBWwA363FICxHV5d/wlm2LWBkbEAphMXYnb3dPi5jcMc7+8RcOIwfDw+QrhpD513aoQdp+jUa4lgIhbO7o50PzeMm+ON7wNO4LCPBz4KN0UPQRYCdvhBNZxXsf6TGbBrYwRjgSkmLpyN7ul+cBs3B97fB+DEYR94fBQOU7syvb6mjXaTl8Kzvwwndh5AskqRyLsYjKyRS/HeaKOaowiKEnlNcFYgbv9RpP7nEywbbggIjaEyTQ6KC6MQljpSu2xiHhynBPEN7qYQqRIHzwOmOvRSo/DGMaMbLisAO/xuQQFj2L26Hp/MsEMbI2MIIEInm84wzI7Eb7fyUXD3HPYeugapshBZ94vwsPFLEhqjI9bsrSZjqWd/yE7sxAGVMsHnXURw1kgsfW80TPT5hQIAz4GnhoW2DOfXfYqs6V9i21ovrNi8A5vnOdT9tNc8+2mH53hQbeIWdsSUeZPRIW0/Vqw/i8wqoDLjFuILOMiyM5Cn1GVbgOc4KIlvMPEQCASeV7UvNDaGER4gN6cYhVFhiFWo9Q8AqEJVNaGqqrLBNh4cT/WTpg4b6Mp3UfEKtTwSC4V627WIHbFoyWhIj50ATZmM9rXb2+m2sREUuL5nASa/5Y0LuZomhoboiQe9fQEcz6tNvKrbVvV3qFX/5vmGU7+OeNYQY7rzYPPlfay8KNaWpy0waeFMdM07gndeX45vAn6Bv+/7cA8QY4S96mJIXR6o+33dRm3zVTs9fTT2Ib0xyXPglAS+wYW9yuy8Ku4V17FnwWS85X0BelSq34egKacAgBiOi5ZgtPQYTtAUTK5zcB3zTA+x2rytm8ezt3prDdCXp1SJtGlcV1WhmqpQ1bBga6QbPXYWdYJNZ0NkR/6GW/kFuHtuLw5dk0JZmIX7RQ9RAYBTKaemPfW6JQZ5Wuuc68ifMA+TO6Rh/4r1OKsSCrfiC8DJspGRV6LzJRYGA1+Cg3ERsupeCfQE9d9S1Bdda6UsiS4d2ERTbcUkEHWmCau/pbNx6q+A5yj75FIa0tmMLHuOIY+9V+gHd1uy6DGZ/hsUQsfXvUzWIhHZuGyg4zeKiCMiLvskLR3Smcwse9IYj7105Qd3srXoQZN3ROh/wXxZIvl7TSBJRzNqZ+NEs32vUoGqUTq5dAh1NrOknmM8aO+VH8jd1oJ6TN5BEXIiThZNX7sPI1tLC7JzmkIfbFpEw7oPp9kfH6SI7Cyd5+qi+vYnNNDQmobN9KD3V3xI78+dTm4fn6EMJRFROSWd3UgunUUksnWlbafi9cquTDlIb0ksqb3ElXwjHxJRNaWf3kBTBzvSuFmL6d2355HnFyGUz5FK9wenU2eLDtRppLf60NSopGvrR1BPh5fJfc0m8l67hJb4XK57ALIs8Sh5TbAnSyNDMu82kpYciq9/GEIHOvWayxGVJdJRrwlkb2lEhubdaOSSQxRfRkSV12j9iJ7k8LI7rdnkTWuXLCGfy7UPRZVR4lEvmmBvSUaG5tRt5BI6FK966EKbr+3QZygiqk4/TRumDibHcbNo8btv0zzPLyhEpUgiKqM/Tm+luWNfojHT3On9pYvpvS1nKLXuyRUlpRx8iySW7Uni6kuRD1W+qEk2eewJWu/ciUQGEprle54Skq/SgaUjyELYhhw9vqOwbO164aS3NMaMLiqvracRPR3oZfc1tMl7LS1Z4kOXaw37IIy2TuxG5uY25DhjB105v5oG9xpLCzYdpetFelrWFmtERNXpdHrDVBrsOI5mLX6X3p7nSV+E5NeNVadfpMbTmU8nUReRmOxct9G55AoiLpuOzbUlIwEIEJBAaEDG5p2o11hPOnJX9dCJbvtppzTxDH06qQuJxHbkuu0cJVcQESej6K/daZitJVnYOdGUDzbRomHdafjsj+lgRK5W+5A8lk6sd6ZOIgOSzPKl8wnJdPXAUhphIaQ2jh70XVg2kTKFDr4lIcv2EnL1jaQ89f5L0+jyN0tpVHshCTuNp9V+/6OIP0so8cynNKmLiMR2rrTtXLJq8NpsoCffNc4jeZrbrkX2Cy2a7F3zsHUDdNmYy6aD0zuTRYdONNI7Tu3ExjQrHnT0VZp4mj6dZEMicQ96Y/sZisuIoV+2TKVuIjH1mO5Dv965TzcCNtKrNiISd59OPoEpVKkjnnXFmNY82AJ5SZ//68qLOvN0GSX6e9EESUcya2dDTrN96WoBp1UeTX6ve77S3gdRqUYf0h6Tcoo9sZ6cO4nIQDKLfM8nUPLVA7R0hAUJ2ziSx3dhlJV1kKZ3tqAOnUaSd5y68zVGrw/9oSGn1CGjXxZNJu8mDq5tnmk6b+vj0e2tB515KrWJTarTLtM3S0dRe6GQOo1fTX7/i6A/SxI16EabnVU8CNtKE7uZk7mNI83YcYXOrx5MvcYuoE1Hr9OfiWdpo0tnEolsyXXbKYp/oJ5vHuqpcziSRX9N7sNsydLCjpymfECbFg2j7sNn08cHIyhXV0rncungtA4kWR7a6ENeT0z/LUBApGslGqMlKGM2wmn4KUwJv4ktjq15+dMCqsKw/r2b+Oz7Zep7GIy/B3w2Tnv74eHr7nDkiyArKYWiVIacOz/hcO5iBO6ZCP33pRlPm6qw9Xjvpge+X9ZDfdc/kr+7vM/EfNWIKoStfw83PfywrGYZEoOhC8XVVRi+whj7I7fC6Vlw4RpavBSE0Qz0/V70pOClCN93Fu3nzlffw2D8TeCRfcQLy+/0wH8G9EBfhyEYOXYCJr72Bma4OOGlF3UvSWL8NfDScOw72x5z5/89i8yW8o+S96+arxrBQxq+D2fbz8V8VlQzmkmb0Z9g9yu3sOfHrGfDjWtghXUroiwuxgOuBFKZ+ienngY8ZHEx4Cdvwspxluo7GYy/DWKLzjD5fRmGTpiLZRu8sW3rp1jzzjy8+0sPLPHo2axXMTGeIrwMcTE8Jm9aiX9F6vmHyPvXzleN4WVxiOEnY9PKcfgbq5Tx1GmHsVu+xZvpX+Gba638kZfHgC0FaSUqUy7i0P9CkV6ihNjCDuNmLoRzD9WDMQwGo2VUZkfh7OlgxOUoILK0xaCJ0/Cf/u1ZUc1gtAJsvmL8s6hEZnQcMNgJ3Z6BSYIV1gwGg8FgMBgMRivAloIwGAwGg8FgMBitQOsW1hXZiLub37x1LpwM9+Luo/4NhH8tZRm3cSdL18t8mw9fIoO8uW9P/wvhS9JxIywC8XmtI/dToSU+9kQpQ8btO3hsl+FLkH4jDBHxeahorTZreWZ01QIeY8wV2XG4m19/ZmvG9N8B/mEa4lLkj6Q7nTyGTZ5lnpi+GE+XsgzcvpPV4IvEjL8XrTzvqfFXxHnrFNa8HLePfghne3uM2xqm+niJVjhk/O6L+YO6Y8Aif2Q8CwUon45984djxOLDyFPXfuVVbBjRG2NWBaFAfZ82KuJwbOM2nEhV+5rQMwOH+wFr4Ln9DCJOfQwXSX/MPXJf/aBnixb52JOHT9+H+cNHYPHhvEcOWO5+ANZ4bseZiFP42EWCfq5LMGPY47UJPHu6ahaPMWZefhtHP3SGvf04bA2rOVNXTD8TcCiOP4Wdq5dgkcc7+GD5h1i34zgi79/B4cNX1L4apgcuC7/7umNI9xfhti+pRV8G1Mlj2OSZ5knpi/EXwCN933wMH7EYh5/NQH/6lPyKdwf2waRtkXiovu8ZpDXmUo38lXGu/mLrR4bLpF3jjchy9s9U9x0NrVTQ7+/bkZHTFkqoexn9X0tp+i2KyWw68sprq8hp+AYK1f/NkcbIfqePpi2iH+vftv/MwOX9QNO7vEr7pETEFdEl77nkeeCu+mGN4QroxvUU+kulaZGPPWlKKf1WDGlwmebB5dEP07vQqyojUNElb5rruZcuXX+MNhvyTOmqmTzGmLnMXTTeyJJm/1x/praYfjQ4KrhxnVJaIwC4XPptwzjq3u8t2h2SSbWfryj94zR9PP45MnllL+WrnaKXyjD6UGJEL6yOaPSxhMemxTZpRT09SZ6Uvh6Jv4nOnlVK0+lWTGYz/fMJ8wzMkw9PLqAXXb6k2CeoEK7gBl1vNYd9zLlUF39RnLfOHWsAEJrDzFSgvlULIpiambbS7fLWwdTWEQO7Gqtt5ZCZ8TzWHNuM0e3UdunDYjzWzK3Elg/24/6zcFe+AVWRlxBWZgpzYwDC9nD+5Aj2LnxB/bBGlEXtwsZD957uVZ86LfKxJ40pbB0HoonLNJeqSFwKK4Opygho7/wJjuz1hLPTY7TZkGdKV83kMcYsNDeD+qmaY/oRKYvCro2HcO+xA0CJxN1z4LarEouPHYLXmK51H7sxtZ+CzT/5Ya7FA8hamjNEFrAwfzTd6aSlNmk1PT1hnpS+HoW/i86eVUxt4TiwK1op0h+Lv36erEKidBB2HfFC/yemkDJE7dqIQ63msI85l+riL4rzR6ptFTlxuBYcipsZDxvcuhdCoGH8Suk9RF25jODraY3WHQtqDyYlCu9GIjIhT8MaKQ6ytBu4GhqJpAL1HyIVyIxLQiFXgZw70UgqrmlcKcW9qCu4HHwdaRoWOlcVJCEiOBhRKTI02luRjdjEpj9FtB86Ep0zr2vovwyZccmQ8kBVfgLCwxNRoOZnVpPewKAbO/D5Fd0ryfncGFwMCkRg0FUkyXmAy8HNC4EIDLyAyPuKuuPKMuOQrOoQCeHhSFTvUI/sqlfSXMBvkako4YqQeCkQF8JT6n8u4mRIu3EVoZFJqBeXR2HkbiyY64vo9Bj8FnQF8YW1WtJlHwDgIU0IRlBgIAIDA3EhKh0KAFCkI+pCIAKDgpEgVdc4ACiQE3cNwaE3kfGw4X7NPlYL//A+EtIegudkSIkMRVSKvLGNFZmISyoEV5GDO9FJqHUZ7f0BQBUKkiIQHByFFLVqpyI7FonqPz9q1GFjKjOjceG3SKSWcChKvITAC+FIqTGCepuPbnPdugL/EPcT0vCQ5yBLiURoVEqT5wK0xe6jxl5DWpJDGqPFHkIBmpyqMaa12Vp7PPOFkdi9YC58o9MR81sQrsQX1repyEHctWCE3sxAE9fRhOwUPtseAt75HXj0b/p6M2HH1/DhwgFA7bua9OhUWZyC6JBQ3M4qV9+l91wVPB7eT0DaQx6cLAWRoVFIaYYfafINXXriZGm4cTUUkUkFOpaUaB9Lc3MktPqWCp360nNuLXrzDHT4hVoOKsrTrjOtYynLRFyyFDyqkJ8QjvDEgqaFnLb+AaCqAEkRwQiOSml6AaftPK25swF6/I0vvovQINVcEBgUhuQSHsBDpFy7gMDAIIQly1UH6mhHkRmHpEIOFTl3EJ1UXKP3CmTHJjZe8qWjDV6eiqiQq4jJLIE0J1frc15aawUoIb0XhSuXg3E9rdb2uuZJbTkHACqQG38NIWExyChR3we9c2xTfRhiyKIleCEvGQ0eN9EYryp4yFOjEHI1BpklUuTkatNGDXwhIncvwFzfaKTH/IagK/GoE1OrnNpzay3q8x50+L/eObEZcd68fPTotKyw5nMRtGUxVvqFIPb6T1g5SoIxGy5BY20EDmlHF2DYG7twpygP4T4ukIzajIiGOZDycc5rBBxHOGNUfzv0mbYLN0pr9skj8aW7G9YGxCEz+TRWju4LF+8rKOR5FEQewLLx9pBM3IRvt7+JUSOGY8jCIyhIO4oFw97ArjtFyAv3gYtkFDbXdsgXInjbfLj/3yVkFMRiz1QJnLxOIVcpw+3ja/CKfU+M2RxaX9zr6L8w+jCWj7eHZJIPju9fApfXZmPeaw7o7+qHlIZOazIYg1/Ixkn/y1qDFwCEVt3wfP4PWDJtMfYnKgGRFbp2SsbuOVPxYUAOqgujcXj5eNhLJsHn+H4scXkNs+e9Bof+rvCr6ZDTJXsdhKqyEsjLqgGqRlmJHPIHFeB4QB75Jdzd1iIgLhPJp1didF8XeF8pBM/LkSM1gWVbHnxlGeTyEiiUuvTTsD8hTNqW4eInMzF59l6kd+qouqtg3B6ia1ux/mwZLNo2dkE+NwhbFq+EX0gsrv+0EqMkY7Dhkp4Xv3NZCN3jgSG2fTF7jz82vzIIQye+jOF9JJjgfQ0lfAEiDyzDeHsJJm76FtvfHIURw4dg4RGpzv74wmBsm++O/7uUgYLYPZgqcYLXqVwoZbdxfM0rsO85BptD6y8Hteqw0WABqipDibwM1SBUl5VALn8AhfRmozb5VrO5OhyyQvfAY4gt+s7eA//Nr2DQ0Il4eXgfSCZ441qJ6hjNsfuIsdeQFuWQxmizR5NTec0xrdnWhcjXGc885DlSmFi2Bc9XokwuR4lCCYBHbtAWLF7ph5DY6/hp5ShIxmzAJT2CKEJP47cCISROL8FKfScAQIwX/vMf9Bbrs68CcfvmwcVjP2KyU3BmvRf87tUnH93n1hyTFYo9HkNg23c29vhvxiuDhmLiy8PRRzIB3ipH0IB239CsJzkiv3SH29oAxGUm4/TK0ejr4o0rjROF3rHoy5Ec9PmWbn3pPrcGfXlG1ZBmvyjM05CDXsK8ffeb6kzbWJSFiD68HOPtJZjkcxz7l7jgtdnz8JpDf7j6pdQVeBr7l/Kq4i94G+a7/x8uZRQgds9USJy8cCpXtU/jeRrHrcqdDWmOvwlN28Mo6RssmjIN225ZoIupEEAbPNc2Gjt9b0Bs1UZrO3xBJA4sGw97yURs+nY73hw1AsOHuOPbK8ex5hV79ByzGbWpWFsbAFAVuxvuXseQpaxA4oE5GPbm90hXr8u01Qo8AC4NRxcMwxu77qAoLxw+LhKM2hwBhZZ5UnPOqZnPSiKww3UKPo2shlHJObw/rA9eGv8KXntjK64odM+xevUxditUj5toi1cAqELsbnd4HcuCsiIRB+YMw5vfpze9SGsAL8+B1MQSbXkelWVyyEsUUD5ybgV4TXOpFv8vzNc/J+qN82bmo8dGfW2IdjjKPz6Hxq+NrFmrwlHGzrFkaOBIG29XE9EDOjjFuH4tnvIufTa0DQ3eHEfVRFQdvY76GTvUHFtN0ev6kaHNVNodLSUllVLcdzPIzsCInLxjqZpkdP4dCfVZHlK3bqosbCX1MbSmWT/mEUccZewcR4Ym/WnZbwUkS7hEQXcKKOGzodRm8GaKU3VI6/oZk8PG21RNHOUecyN7l68pgyMiqqb4z8eSVZcFdLJUtebxa2cjMp/5E5UREentX0mpn48kQ3MnWnYqjSqJSP7zHOpkNIo+T2247qicTs7rQAYvrKZwPQt8lIlbaYhxb1p1rebAymu0qrcJDf/vH6QkImXq5zTS0Jyclp2iNFWHNKeTEY36PJWUpKS7WmVvStkP08jYwo0CVMISyc7TO5I+tDykTloKW9mHDK1n0Y95HBGXQ185G5ONx/ma9aD69NOYspDlJDHqQ6vDa1aTcnl0eN4s+jZT7Ugun47PGU9rI2t0wGXQzrGGZOC4kW5XU1Mfa0hlOK3qbUDWEz6loD+ricoS6bvpNiQyHEyb7lSr2hpnSCb9l9FvBTJKuBREdwpztfdXmUvH3OzJ5esMlTzV8fT5WCvqsuAkqVzma3I2MqeZP9UoUZ8O1Sn7gaYZW5BbnRGatvl4NtehK6qk8FW9ycB6An0a9CdVUxklfjedbESGNHjTHarWGbstjb2GtDCHNDpVtz3owUGaYtxgjbV6TOv0LX3xzFHOV85kbONB52tdOP84zRm/luqb20ljDQ3IsYnMDeEo88vxZAgjeuXbAvWdaui2b1nYahrQYyGdktUcXnqWFtkY1Kwl1H1uQyrDV1FvA2ua8GkQqcLmO5puIyLDwZvojqaY0+Mb6nqSnX+HJH2WU31YhNHKPoZkPetHUg8LfWPRnSN1+5Zufek+txF68oxOv9CUg6TVajrTMxZlKn0+0pDMnZbRKVVSoJ/ndCKjUZ9TqlK3X1bmHiM3exf6WjUJUnX85zTWqgstOFmq8zzN425ovOb7G1XH0ZaXTMhm4SlSPbbEUc7B92l14EO97XAZO2mcoQn1X/YbFcgS6FLQHZJyHOV+7UxG5jNJlTZ1tVFJ4av6kcNHkSpf5vLIf+seSmg0SN21gvLuZzS0zWDarGqcotf1I2OHmvlJfZ7UmXOqKW7LS9S27jmzarr18QAy6rmUgiupWXOsTn1Yzqafy/XEa2U4rernQB9Fqnrg8vxp656EpjZTg8v5ipyNbcijPhnqkFNfblWf93T7v+45UV9ebFk+ehxacMdageCTQci+dxa+Pj7w8dkO/3IXbPKej8Em6scCEEngeTgU/l52yAo+gO0HIyHjK1FeUX9lILJ+Cc6DrCCCKfq97YsPRwkQF3oVRUVn8N2PWbAf6Fi3bqrNUDe4Sopw9lgg5BDCxMQQQnMnOI/uCIu+znAZ0BEveB5GqL8X7LKCcWD7QUTKeFSWV4CHDIHHg2Dk6ITOQgAQ48VVwZBmH4KrKQChGczaNvi9s1hf/yK0bWsKkZkDXFy6wxCAqaQXugpLIC9u+L0dASzamYFy0pGp6zKwGYjatoWpyAwOLi7oruoQvboKUSIvBkEEiVbZ9VN85jv8mGWPgY510mKomyskRWdxLLDm57mG6NVPY9qM9MIHo7Jx+IsTyOcBLiMA5wymY0ZXNfdTBONkUDbunfWFj48PfLb7o9xlE7znD4YmF2uE0AQmxiJ0HDENzjZioE0fuG9eDAeKQ0hIPnihCUwMhTB3csbojhbo6+yCAcah2vuTBeJ4kBEcnTqrftYRv4hVwVJkH3KFymXM0NhlWqhDDai3+eRsLoSJiTFEHUdgmrMNxGiDPu6bsdiBEBcSgnyBrthtaew1pIU5pCF67NEE9ZjW6VvNjed6FMEnEZR9D2d9feDj44Pt/uVw2eSN+ToFEaJNGyMIBYTqCnXdqKPLvqUI2nsIaf3HYbxFzeHG3WFnXfvJMV3nNkZoYgJjUUeMmOYMVdi4Y/NiB1BcCEIa/pZcSzPyej3FOPPdj8iyH4j6sBgKN1cJis4eg3pYtHgsjdDlW/r0pevcBl1Af54p1eUXmnKQlfoUrGcsorZoayqCmYMLXFRJAZJeXSEskaOYdPulLPA4gowc4aSaBCF+cRWCpdk45Gqq8zz9426+v0HcF4s8X4bipB8CsnmAu4fjUc9h5oS2etsRmpjAUGgOJ+fR6GjRF84uA2AlFMLMrG2DZWC62hDDRmKLjC+mYsyCz3AiwQBuGz5AX3HDAequFUQSTxwO9YeXXRaCD2zHwUgZ+MpyaHR/nTlHifS0LFTVLWETo3v3rkBOOtLLmzfH6tJHnXV0xavYBhLbDHwxdQwWfHYCCQZu2PBBXzRSR3PQKaf+3Np43tPt/7rnRH1x3rJ89Dg0X4f8QxRKy2E0zBWr1w1uxolCiMtjsHvxTli9vgLveebg14P+6gfVI+yIHt0tILivREV+Jv5U8LCqqgBgptovtoOtjRBVchke8IBp0xWVEIrLEbN7MXZavY4V73ki59eD8AcAToqCogrIi2V1SxcbI6hf8w2Aa07/agsPBSIRBCDwjToQwMDQAOD5pgmmpQjU1pAKRBAJAKrpUKvseuGQn/knFLwVGotrCxthFeSyB+DrHq+qOaMZ+mmcd3tg/ooZ+L8ZX+DbuNcx/fQVPDfraJOfwvmHhZCWG2GY62qsG6zfw/Qh7vkiepkCf1ZWgmAIdZfR1R93bzuKKuQolmn2GAgEDdaeNkeHVvrXXTVq80naXAPinnhRpSxUkhDmOmO3BbHXkBbnkHo4aYFuezShcUzrsjUAFDYrnmvh8bBQinKjYXBdvQ4amtNKu0GDIRFfxL34eFRB9wNXWnXKZSHpDznwvFirT2k9Vy9i9HyxF0zxJyorNQnfgrzO5SPzTwV4qyrUh4UYdrY2EFbJIWuSKNTRN5YG6PIt7i4+06UvXec2g/o8U44HOv2iUFPoNEbvWNRyBAQQqZICSKdfcri3vQgV8mI0DSFd56FZ426+vwlhPdMTb2x6E3774zF74i9I7Tcfy2oeN9DXjqZhCNTypPY2hOi26Aguij7FGu9tmHlsJ5ze24f/fTG9/jPY+moFoRjlMbuxeKcVXl/xHjxzfoU299edc3hYTX4Fz/1yGRfur0UfeyXuJmXA0nkZxrYFuHvNmGN16KMeHfEq7IZFRy5C9OkaeG+biWM7nfDevv/hi+nd0JKvguuWsxm5teG8p8//C3XMifry4mPno+bT/FaE5uhi3QZJAftxWVa/mUsLxLlYDbdjS89jxbT1kM74CltmD0anWg1p9FYAUKCwqBzdHAahy/O90NOcQ8KNm6qH3QCAr0JllRDPD3SEtcZRl+L8imlYL52Br7bMxuCGHYqeQzcbE+QH/oQLxbXH85AG+sE/uelDFqIuj9K/JgiKMgUE7Z9DJ32eKhJDpGEiJ2o6vqbokF0vInTp1RPmXAJu3KxfE8dXVaJK+DwGOlo3cZJH0U87l+V4Z8BdfPdfb3x960XMHd9G/RAIzbvAuk0SAvZfRr2LcUgLPAdNLqYJogaXMNUKVPCd0KdfF42JQld/Ce27wcYkH4E/XUC9y0gR6OePpi7Tch0+Po9j8xqIGlzwVUNRwaNTn37oUt7S2G3mWFqaQxogeq4l9miKLlvr6VoDQph3sUabpADsbywIAs/F6lyjKHZwh8dYM+SfOYATuZout6tw7/w5xFbo0KnACh2sxKiIv4kYtRdeE8833x51EBqHTQX4Tn3Qr4uGqGlJXhd1Qa+e5uASbqA+LHhUVVZB+PxAOGpKFLrGoitH6vKtOHPd+tJ1rhbn0JxnnoflI/pFHY8wlnp0+WUC2nezgUl+IH6qnwTBSwPh5/8HTLWe15xxt9Df2r4CT3cJEg5+Ae/jJRg7q0dNfm5hOxrR1QaHrPg/0dV9Ny4nJeDM+gHI3OuFbZcaOIWeWqH0/ApMWy/FjK+2YPbgTnWFn6YR6s45QnR03Ym97ka4/OUW7PT9DCdN1iDwiAfsRI82x2pEV7xyWYj/syvcd19GUsIZrB+Qib1e29BQHc1Bt5yNDtXP4/i/vrz4SPno0WhBS6aYuHA2uqf7wW3cHHh/H4ATh33g8VE4THuIAXDgOJUAPAC+JBVp+aXITL6P0ooshJyJQC6nQEluDKLiVU8okqIE8hoFVMTtx9HU/+CTZcNh2G4ylnr2h+zEThxIVj2zyeddRHDWSCx9b3TN/VMClNX1Qc+XIDUtH6WZybhfWoGskDOIyOWgKMlFTFQWJi2cia55R/DO68vxTcAv8Pd9H+4BYoywFwHgwfFUMykB0Ns/D45TgvgGSZ4IIB58bRsAAAWyc2QwHuCEAQaA4voeLJj8Frwv5DY4RoWokw06G2Yj8rdbyC+4i3N7D+GaVInCrPsoelgBnuOgJL7ubiVAIBB4ngevU/Z4tZ6AqqpqUFUVKuvEXQrP/jKc2HkAKnF55F0MRtbIpXhvtBEgNIaxEfAgNwfFhVEIy5igRz8aEPfF4uWTUf2/L5EwfK6GuyIATCdi4ezuSPdzw7g53vg+4AQO+3jgo3BT9BCjiY81hUdhRjpU3sUj5/RpxPbzxHsTau4LEqCsbhCcuvprPwkLZ3ZF3pF38PrybxDwiz9833dHgHgEVC7DgSdCvcvo0aE6VVWopipU1RoBTdt8PJvr0xXAF2YgveZhYT7nNE7H9oPnexNgqDd2WxJ7Df2vZTmkEe302IPjwNXoRoVaTOuytVhfPAthrAoA5BQXIiosFoKJCzG7ezr83MZhjvf3CDhxGD4eHyHctAfEvBQXN7vhra1XGkw0NYjs8a7fHsxsexbLZ67Dr/dqn9YGwMtw4/BnOEWO6GeoQ6fX8zFl3mR0SNuPFevPIrMKqMy4hfgCDrLsDOTJ8rSfqyEfgC9ERr0j4PTpWPTzfA+qsGlJXleo6SkDE5Z6or/sBHYeSFY9fc/n4WJwFkYufQ+awkLXWHTnSJF237K31q2vEoH2c1WJRw3tecZUl19AQw5q4lupGKlrLDwHTkngia8r5lSuyoPnobP/9pMWYmbXPBx553Us/yYAv/j74n33AIhH2MNcx3max92AZsd/LWI4LlqC0dJjOEFTMLl9zeZmtENQQn0YPMeDqCZn6GwjFlkBO+B3SwEY2+HV9Z9ghl0bGBk3vAfaTketIEBJahrySzORfL8UFVkhOBORC05RgtyYKMQr1ObJ1JE6cg4gO78On2ZNx5fb1sJrxWbs2DwPDrVLGPTWICq06QPEg3g98RqbjIAdflCp41Ws/2QG7NoYwVigu1YRGhvDCA+Qm1OMwqgwxAoeJ7dCbd7TPUfonBOFHfXEuQEmtzQfPSrqi651U0aJR71ogr0lGRmaU7eRS+hQfBkRlVPS2Y3k0llEIltX2nYqnojLppNLh1BnM0vqOcaD9l75gdxtLajH5B0UIScq++M0bZ07ll4aM43c319Ki9/bQmdSGzyyVJ1OpzdMpcGO42jW4nfp7Xme9EVIPnHEkfTWcVr3sjWJRDbksuE43SjiiIij7JNLaUhnM7LsOYY89l6hH9xtyaLHZNoRIVeN3d+LJkg6klk7G3Ka7UtXCzgiKqXEM5/SpC4iEtu50rZzyXr6J5LHnqD1zp1IZCChWb7nKSH5Kh1YOoIshG3I0eM7CsuuWQVfGUYfStrTtIO5xBFH2QenU2eLDtRppHe9nHU8oLCtE6mbuTnZOM6gHVfO0+rBvWjsgk109EoonVjvTJ1EBiSZ5UvnE5Lp6oGlNMJCSG0cPei7sCw9stdSTWmXv6Glo9qTUNiJxq/2o/9F/ElKIqpOP00bpg4mx3GzaPG7b9M8zy8oJL92Nb+SUg6+RRLL9iRx9aXIh7r1o5WKEFo+eArtq9WPJsoS6ajXBLK3NCJD8240cskhii8jzT7WkOrb9MlAQ7IeNpM83l9BH74/l6a7fUxnMpREnJRuHV9HL1uLSGTjQhuO36Ci2iFo7U+1z99rAkk6mlE7Gyea7XuVVC6TSGc+nURdRGKyc91G55JVD3Ho1mE91WmX6Zulo6i9UEidxq8mv/9F0J8lam3euPEYNs/TrSuqptufDCRD62E00+N9WvHh+zR3uht9fCZD9WEDrbH7XwoKeZTYa0gLcog62uxRnkRnN7pQZ5GIbF230an4XM0xrcXWzYlnZcpBektiSe0lruQb+bCmuaPkNcGeLI0MybzbSFpyKF71oKQyhb6e9Bx1nvwtpWn5hoIy/xrtXTqVXpL0ov7DxtOk6bNoweI1tPdaQU0M6dEpJ6Por91pmK0lWdg50ZQPNtGiYd1p+OyP6WBEtu5zG1B9+xMaaGhNw2Z60PsrPqT3504nt4/PkOq7VhpsotU3VHm9qZ6qKf30Bpo62JHGzVpM7749jzy/CCENYaFnLKQ7R14v0uFbpEdfubrPbYiuPFODRr/QkYOa6kzbWOQUe2I9OXcSkYFkFvmeT6Dkqwdo6QgLErZxJI/vwiib09J/3dj8yWuChDqatSMbp9nke7XW37Scp2Pc9ejxVY3I6JdFk8lb9YRsDdrb+W9QCB1f9zJZi0Rk47KBjt8oIlUqPkOfTupCIrEduW47R8kV2tvYEVFA19aPoJ4OL5P7mk3kvXYJLfG5rOGhNW21AhGXfZKWDulMZpY9aYzHXrrygzvZWvSgyTsiSK5pntSSc4g4yj42l2yNBASABAIhGRibU6deY8nzyF3Vg3s65lhOekuPPrrT9M/OU7JCR7wWXKP1I3qSw8vutGaTN61dsoR8LqteDqGzVlGm0MG3JGTZXkKuvpH0kLTLqTe3/hGvYS7V4v/yWD1zYnYz4rz5+ehxEBCRpl8xGK2AMmYjhi8ox86IzzGqduVDVRjWv3cTn32/TO3ofz585rdw39YRu/zegKX6zsdFGYONTsNxako4bm5xbLo2i9EAJWI2OmH4qSkIv7kFjkxZ/1qUMRvhNPwUpoTfxJa/2BGepbFoheUZRqvAI/u0N/wevg53Rx5FshKUKkohy7mDnw7nYnHgHkxszTuoj8K/uFZ5XFqwFITRIvgCnNp7Cy/v/ri+qOalCN93Fu3nzlc7+J8Mh9JiGSr4UoTvvQjrua+1flHdiCaLCBg6YNpiAM+YIzxLY9HK32KQjGcUPvsIvJbfQY//DECPvg4YMnIsJkx8DW/McIHTSy/WLH38C/lX1iqtByusnwS8DNH7dyP5ta+xdWztt9B5yOJiwE/ehJXjnmxp+SyhjN2Gcdad0KnzC1haPB8rRup6D8JjoCxG8QMOJVLZE/mS0j8LJYqLH4ArkULGlPWvRllcjAdcCaTPgCM8S2PRCsszjNZAbIHOJr9j2dAJmLtsA7y3bcWna97BvHd/QY8lHuip4bnhp8e/s1ZpTdhSkCcAl3kDN6gfhto+oSLy74QyAxe+9Ud8h1cwf6YTOj6JS7nKFFw89D+EppdAKbaA3biZWOjcA00/GM0AKpFy8RD+F5qOEqUYFnbjMHOhM3owZf3rqEy5iEP/C0V6iRJiCzuMm7kQzn+RIzxLY9EKyzOM1qQyG1FnTyM4LgcKkSVsB03EtP/0R/u/tKhmtAassGYwGAwGg8FgMFqBJ3H/kMFgMBgMBoPB+NfBCmsGg8FgMBgMBqMV+OsKa/4h0uJSIGcPV/+1lGXg9p0sVKhvfwpUZMfhbj5zAAaDwWAwGP8M/oLCmkPW775wH9IdL7rtQ5KWjzn9Yyn5Fe8O7INJ2yLxUH3fU4dH+r75GD5iMQ7nPb0Cl5ffxtEPnWFvPw5bw9iz9QwGg8FgMP4Z/AWFtQhdJ3hh8dj2eOqPTfKFuHkjFZz69qdI6ZVfcdXaEztWDoOZ+s6njhB2S35ARPh3WND56bmC0MIRs1dMg6QlDvAM2I7BYDAYDAZDF0+vmmqECBYW5hCob37ClEXtwsZD9/DX3SSvQqJ0EHYd8UL/Z+VNfKa2cBzYFU97OEJzM5i2wAH+etsxGAwGg8Fg6Ea0adOmTeob9VFVkITo6/HIUbaDtZVJfXWulOLe9SjEpBQBFp1haaxWtyuLkXIjGvEFAgju/Q8H47rD/d2JeF4EAEpI711HVEwKimCBzpbGuqv+qgIkRV9HfI4S7aytYFI/CA3t8CiM3AOPud4IN+iNflZKVLezRaeayk6RE4fom8koFFihs4VRo4K/IjceUbfuoVjQDp0sjJtcDHCyNNy6EYfMchN06mCKhq+gVGTGIbWqA9qWxOFWtiE6d2iLroMGwigtBeUdO6JtTWNK6T1cj4qBSm2WUFcbAPDFd3E15AYS/0hBSmo++I7Po4NxKVKuBSMqIQX5fAd062Css62m4zGBEBXIjr0HRYPxABxkabdwIy4T5Sad0MG0oVQ85KnRiEoogtDCAGUygpmZpje58nh4PxHZ4g4wV6Qi+vofqGhnDavaAVXfwY+fX4DR6yvxRt/az0y13Ha69M/LUxEdlYAioQUMymQgMzP2zlkGg8FgMBhPDA0lnA74QgRvmw/3/7uEjIJY7JkqgZPXKeTyAJd2FAuGvYFdd4qQF+4DF8kobI5Q1J2qiNuHeS4e2B+TjZQz6+Hld6/+Z30uDUcXDMMbu+6gKC8cPi4SjNocgfqzG8KjMHgb5rv/Hy5lFCB2z1RInLxwSjUIze3wcuRITWDZlgdfWQa5vAQKJQA+F0FbFmOlXwhir/+ElaMkGLPhEqQ8AJQgYocrpnwaiWqjEpx7fxj6vDQer7z2BrZeUQCQI/JLd7itDUBcZjJOrxyNvi7euFLIgy+IxIFl42EvmYhN327Hm6NGYPgQd3x75TjWvGKPnmO3QrW0mEPa0QUY9sYu3CnKQ7iPCySjNqOB2uoQmraHUdI3WDRlGrbdskAXUyGANniubTR2+t6A2MpIa1t6xzNmM0Jrn16UR+JLdzesDYhDZvJprBzdFy7eV1DIA0AVYne7w+tYFpQViTgwZxje/D69yV1kLisUezyGwLbvbOzx34xXBg3FxJeHo49kAryvlagdXUNLbadD/wBQFbsb7l7HkKWsQOKBORj25vdIVx8og8FgMBgMRmtCzYaj3GNuZO/yNWVwRETVFP/5WLLqsoBOlirp7mdDqc3gzRRXTUTV0bSunzE5bLxN1UREZWG0ekAPWnhKVtNWKZ1dZEMGL6ymiEoi5d3PaGibwbRZdTJFr+tHxg4b6XZ1owEQERGXe4zc7F3oa9UgqDr+cxpr1YUWnCzV3Q6XQ185G5ONx3mqULVE+cfn0Pi1kVRZ8/+MnWPJ0MCRNt6upuq4LfRSWyfakqBU9XPrYxpg1JOWBquOlp1/hyR9llNIec3AysJoZR9Dsp71I+VxRFzGThpnaEL9l/1GBbIEuhR0h6QcR7lfO5OR5Wz6uZyIlHfps6FtaPDmOFKpbR31M3agjZoEJyKqjqMtL5mQzcJTJCciIo5yDr5PqwMf6m1L53jMZ9JPZUREMjr/joT6LA+herFWUh9Da5r1Yx5xleG0qp8DfRSp2svl+dPWPQkqG6tRGb6KehtY04RPg+jPaqKyxO9ouo2IDAdvojvVRPTgIE0xtqTZP6vaapnt9Om/ksJX9SOHjyJVcnB55L91DyVoGiiDwWAwGAxGK9GCO9YyBB4PgpGjE1TPuYnx4qpgSLMPwdVUBInnYYT6e8EuKxgHth9EpIxHZXkFeAClQXtxKK0/xo23qGnLGN3trOt+thdJPHE41B9edlkIPrAdByNl4CvLUaHhRRWywOMIMnKEU83DduIXVyFYmo1DrqYtagdQIPhkELLvnYWvjw98fLbDv9wFm7znY7AJoExPQ1aVEIKa5RHi7t3RFTlITy8HUIwz3/2ILPuBcKxdnNxmKNxcJSg6ewyBckBoYgJDoTmcnEejo0VfOLsMgJVQCDOztvU/E4gk8DwcCn8vO2QFH8D2g5GQ8ZUo1zxgQNwXizxfhuKkHwKyeYC7h+NRz2HmhLZ629I1nroVIMVn8N2PWbAf6Fi35rrNUDe4Sopw9lgg5GIbSGwz8MXUMVjw2QkkGLhhwwd9UbuQoyFCExMYizpixDRn2IiBNn3csXmxAyguBCEaXrHXMtvp078YNhJbZHwxFWMWfIYTCQZw2/AB6lacMBgMBoPBYDwBml9Yc1IUFFVAXiyDpnc5CMXliNm9GJ4HcjDwbU9MsBbWHMchK+kPyCGCWFtvQjHKY3ZjsecB5Ax8G54TrCHU1Ak4SAuKUCEvhkzT/ma3o3qPdqG0HEZ9XLF63Tqsq/1buxxTe4thOHQyXnkuGZcv3AcHoPJuEjIsnTFlbFuAy0fmnwrwVVUN3v8shp2tDYRVcsgeqKpB9fXYACCordQBAEKIy2Owe7EnDuQMxNueE2CtdcAAIIT1TE+8YXYFfvvjURb9I1L7zYGjoWqfvra0jad2O5efiT8VPKqqGrzVWmwHWxshquQyPEA3LDpyEd+6mSFk20wM6j0Cy05mNvNNHWL0fLEXTFGNykoNMrbEdnr1D3RbdAQXv3WDWcg2zBzUGyOWnURm8wbKYDAYDAaD8UhoK3WbInoO3WxMkB/4Ey4U127kIQ30g39yCc6vmIb10hn4astsDO5Ue2uQAAhg1cEK4op43IyprG8PAIhX3dE+vwLT1ksx46stmD24U90d0KZ1lQjPdbOBSX4gfqofBHhpIPz8k1HS7HYACM3RxboNkgL247KsfjOXFohzsUoIO7pi5153GF3+Elt2+uKzkyZYE3gEHnYiQNQFvXqag0u4gZt166F5VFVWQfj8QDhaN1OtpeexYtp6SGd8hS2zB6OR2rTR9hV4ukuQcPALeB8vwdhZPVR3/h+lLTVEXXqhpzmHhBs369e381WorBLi+YGOsKYsxP/ZFe67LyMp4QzWD8jEXq9tuKRm1noI1OCOc7WiAnynPujXpeEjhiqa7wNohv4JWfF/oqv7blxOSsCZ9QOQudcL27QPlMFgMBgMBuOxaWYFCADtMGnhTHTNO4J3Xl+ObwJ+gb/v+3APEGNEj1KkpuWjNDMZ90srkBVyBhG5HBQluYiJSkTHKfMwuUMa9q9Yj7OZVUBlBm7FF4CTZSMjT4a81DTkl2Yi+X4pKrJCcCYiF5yiBLkxUYgvVRvFpIWY2TUPR955Hcu/CcAv/r543z0A4hE9UKqrHYUxjI2AB7k5KC6MQlisABMXzkb3dD+4jZsD7+8DcOKwDzw+CodpDzEgO491n2Zh+pfbsNZrBTbv2Ix5DrVLWdph8lJP9JedwM4DyagCAD4PF4OzMHLpexhtpDqKoES12gNzPMcDxIN4gC9JRVp+KTKT76O0IgshZyKQyylQkhuDKHXB6xDDcdESjJYewwmagsntVVub05a28VDNBQ7aTcZSz/6QndiJA8mqD7fweRcRnDUSS98bDSMuCwE7/HBLARjbvYr1n8yAXRsjGGu6FQ7Vw64Z6TVy8Dk4fToW/TzfwwRjABwHDgSe5wHwKGmR7Qz06J9DVsAO+KkGilfXf4IZdm1gZCwAeCkubnbDW1uvoMH1FIPBYDAYDMbjo77oWjdllOjvRRMkHcmsnQ05zfalqwUcEXGUfXIpDelsRpY9x5DH3iv0g7stWfSYTDsi5ETEkSz6a3IfZkuWFnbkNOUD2rRoGHUfPps+PhhB2VknaemQzmRm2ZPGeOylKz+4k61FD5q8I6LmIT21UST6k9cECXU0a0c2TrPJ92oBcUTEZetqR0kpB98iiWV7krj6UuRDUslz1Ism2FuSkaE5dRu5hA7FlxEREZd9jObaGpEAIAgEJDQwJvNOvWis5xG6W0lEVE3ppzfQ1MGONG7WYnr37Xnk+UUI5XNEnPQWHV/3MlmLRGTjsoGO3ygijohKE8/Qp5O6kEjcnaZ/dp6SFdl0cukQ6mxmST3HeNDeKz+Qu60F9Zi8gyI0CV6HjH5ZNJm87zR4Go/T3ta1+/rGY0eu285RcgURVafT6Q1TabDjOJq1+F16e54nfRGSTxwRUeU1Wj+iJzm87E5rNnnT2iVLyOdynmqfGtW3P6GBhtY0bKYHvb/iQ3p/7nRy+/gMZSiJqDyJzm50oc4iEdm6bqNT8Q8ewXba9U9USdfWj6CeDi+T+5pN5L12CS3xuUx5HBEpU+jrSc9R58nfUprquVQGg8FgMBiMVkFA1JLP3/174LNPw9vvIV53dwRfJENJqQKlshzc+ekwchcHYs/EmtvSDI0oYzbCafgpTAm/iS2O7KlBBoPBYDAY/3xasBTkXwSfjSNey3Gnx38woEdfOAwZibETJuK1N2bAxeklvNiDFYrNRuNbPRgMBoPBYDD+ebDCWiNiWHQ2we/LhmLC3GXY4L0NWz9dg3fmvYtfeiyBR8+mD98xGqMsLsYDrgRSmWqtNoPBYDAYDMY/HbYURCuVyI46i9PBcchRiGBpOwgTp/0H/duzoloflSkXceh/oUgvUUJsYYdxMxfCuQf7mDiDwWAwGIx/NqywZjAYDAaDwWAwWgG2FITBYDAYDAaDwWgFWGHN+BtThozbd5DV4EORjGcDTnYPcffL1Dc/Q/x7fefZt01DeDxMi0OK/Ck/BV2Wgdt3shp82fXxKMu4jTv/RmdjMP6FNL+wrkrDlUOfYfGrozFy1BhMffe/2H8+AQ/Vj2MAAEp+fRcD+0zCtkimoScFn74P84ePwOLDeezlI88KXAZ+952PQd0HYJF/RjM/d//o8Bn7MKP3QMzal6T6UFAz+Vf6zlO2zePCZf0OX/ch6P6iG/YlqX3Z6onCI33ffAwfsRiH81rBO/h07Js/HCMWH4Z6c5VXN2BE7zFYFVTw7/FDBuMfTgvXWFfi9/d745XvbbEj+Qo+tGt+Xf5U4Qtx89YDODj1VH3u+6lTil/dh+Fbx+P4dVl/GKvvZgDgUXjzFh44OOHRX7JShozbKRD2GYiuTMnPDpVX8MELkxC16BYiP+77BGOQR863UzHx6myc/2E2bFvU0b/Ud56abVqHqmsr0d/5PKYF38GOYU/xAeiyDNxOEaLPwK6tkr/LMm4jRdgHAxs5WxXCV4/EKqMvELh1NNo12MNgMP6+tLAyFsHc0hxCgTms2rfw1KdIWdQubDx0D0/zHkcjqhIhHbQLR7xYUa2Vsijs2ngI9x7LSKawdfyXFUZ/B0SmMDN9GvlBgQT+NRzya2lRjX+v7zw127QOIgsLmAvUtz4FTG3h2EpFNQCY2jqqFdUAuExkPL8GxzazoprB+Cch2rRp0yb1jdrhkfO7H/aHW2LKmrfgoOvjg0op7l2PQkxKEWDRGZbG9cmcl6ciOioBRUILGJTJQGZm0HYvoqogCdHX45GjbAdrK5MGVwJKSO9dR1RMCopggc6WxhCCR2HkHnjM9Ua4QW/0s1Kiup0tOpkKACiQExeNm8mFEFh1hoVRw2xdgdz4KNy6VwxBu06wMFbP5BxkabdwIy4T5Sad0MG08SyuyIxDalUHtC2Jw61sQ3R+zh6DBxohLaUcHTu2RW1rSuk9XI+KgUollqhXCQ95ajSiEoogtDBAmYxgZqZZI7p0p8iJQ/TNZBQKrNDZwqiuX020TK81KDIRl1qFDm1LEHcrG4adO8BEqEsuAKhCQVI0rsfnQNnOGlYmQvCFkdjjMRfe4Qbo3c8Kyup2sO1kqhqvIgdx0TeRXCiAVWcL1JlJS98V2bG4p+iIjm0FQMk9XAuJRsIfKUhJqf9LzefR4fkOMBbokK0sE3H3lejYQYyChCjEFhnBuqOp1itP/uF9JGaL0cFcgdTo6/ijoh2srRq0BwCcDGm3biAusxwmnTqgkdtokacx6n7BoTQ1FNdu30NKHocOXTvAIPcmLobdwR9pUoi7PA9LA/U2AKAMmXH3oezYAeKCBETFFsHIuiMa11e6fFyBrNgUVHTsCJOSNNy6lQ6llTXaGQKoykdiVAxyRJ3Q2azmw0l8Dn73O4S0fkuwaASQHB2HAnEHdGrb4MNKWuXXFacAwCM35lKNDkQY+vok2Ek16UC/zI18pwbtcaHHnrXwUiSEhOLm3T+QkpKGYoMueN7CAIr0KPweEYeU7CpYduuENrVd8rmIuXQNt++lII/rgK4dDJB78yLC7vyBNKkYXZ63hEocff6pw7cb0qq2IRTfvYqQG4n4oybOOj7fAcalKbgWHIWElHzwHZ5HB2N9+VcdJYpTbiA6vgACwT3872Acuru/i4nP1ypcW1vq8dI4j2qzbZP83cEEQlQgO/YeFB07QuUePB7eT0S2uAPMFamIvv4HKtpZw6pxstPaByqyEXtP0Wg+AAlgaqBA1p8a/EmvvRkMxrPKE4lTLu0oFgx7A7vuFCEv3AcuklHYHKEAAFTF7oa71zFkKSuQeGAOhr35PdI13bXkCxG8bT7c/+8SMgpisWeqBE5ep5DLA+DScHTBMLyx6w6K8sLh4yLBqM0RUPBy5EhNYNmWB19ZBrm8BAolwOcGYcvilfALicX1n1Zi1P+zd95hUV1bG3+ZGamCaKIRiVLEMRgLKLF3olyvDa9RjBUjKjcJlqixJRbUEM0lJppcJYktikTuNX5WsIUiIliRJhhEinSHGaQOzDnr+2OGNuXMDGI0ufN7Hp8nmZmz99prvWvtzTn7nCMciY1XRPI9bWU3sMtzMjbH1cGk7Dw+GuyMd8aMx8Tp2xFRBUASh2+8vbAuNAk56WewakQvePhHoIQF2OI4HFw+Bk7CcdiyfyfeGz4UQ96Zg+0/fIrxTt0xanuMYt8ng8xjCzB4+re4/7QQsQEeEA7fCrlLapG4xxt+x3Mhq0nFwTmD8d5PWWrPtmv0HVuA8G2LsSooCom3TmDVcCFGbrwCkbpNey3yazHiDi7HGCchxm3Zj53vDcfQIQOx8Ggxx7gAtiQSO+Z7419XslGcuBdThG7wO52H0nwRzNq3BctKUSmRoKxKJl8whW/D4lVBiEq8hROrhkM4ciOulBSq7dt7fwRCPh0Pp+4jsTVaflNQ7YMj2BEUj7xSCSQSCZ7e3o/FU6Zj/bli8EnT2Epw88gKjHESYkJACA4s8cDE2fMw0aUPPIMyVPehMrmI3uuDgXa9MHtvMLaO749B497FEGchxvpfR5niZ5K4b+DttQ6hSTlIP7MKI3p5wD+iBKxGX4qUOlKnixxYdXsTRT8vwdTFB5AqA/gduqJT+h7MmfIJQvOVrWVRcvMIVoxxgnBCAEIOLIHHxNmYN9EFfTyDkFH/c40aZ1F6+xhWvStEj1FbEHpyM+bM8sYH04fAefAqhN8+ig8nTcPCpTMw2HkENtcHXgEVnYffUFcMdR+OPvbOmPrtbVRwjJ8zTxvgoQOnD+q0jpkV31PRDmdecMWzmW0AeGZoW3kZn8+chNn7stCpo/wspelrfFzfvgHnKq3RtmnV5XVAtzeL8POSqVh8IBUy8NGhayek75mDKZ+EIr9OB31qytsm3SjTOrERw+w1E6T9exEmT92Bu9Zd5H+4mL+Btjd3I/C2AB3MeRqOVY6rgqok/DDPAz4HEpCXcRYb/ILwsImsNbelLl8UdVRDbPMK1dTvgd7YHxGCT8c7ofvIrYiuAZjcaOz1GQi7XrOxN3grxvcfhHHvDoGzcCz8rysyXkMfBTIx7oXI54ORW6MbbobUqCd965EBAwZePUgv6ujWxj7UxmQyHXqm/F09MnrwxSAyH7CVkuqIqO4mre9tSi6b7lEdSSl2dW9yWRtH1URETCEFb99LKXXKbTBUcNyLnDy+p2yGiKiOkr8aRR26LKBTFUSyB1/QIPMBtFXeAd1c35tMXTbRvToiYvLpO3dTsvW5QDVEREwRhcwZQ+vipIqms2n3KGNq47qJ7tXVUdK2d6it2zZKkcn7uftZXzLpvowipUREYrqwVEjOK6Lk9hJRZcwqcja2oVm/FBJDREz2bhptbEZ9ll+iYnEKXQm/T6K6Avre3YTaz/6v/DjZA/pikDkN2JpEcpesp96mLrTpXh2RNJZW93ahtXHyHpjCYNq+N4VUXKLRdwwVhcyhMeviSD5ChrJ3jyLjNq7y9pvxPH7Npt2jjcmsz3K6VCymlCvhdL84RfO4mAI67uVEHt9nk7yrZPpqVAfqsuAUVRBD+d+5k6mtD12oUVhWFEJzxqyjxjDtplHGbch10z2qU9e3iCGm4HtyN7GimScqSd7FOTqXphhzeSx9NqAtWY/4ku7VaBmb7BF9NcyYrNyW0+lMKRFJ6L9zOpHJ8K/okUzeXDOksbS6ZxuyGbuZwp/UEVWm0o/TbIlvPIC23K8jEl+gpUJnWhHVoBqKWeVMxjaz6JdCRr0vRYxqH2p1IaPU7QPJtOdquq7wlfT6auppNoS+/F2dsTJ69NUwMrZyo+WnM0lKRJL/zqFOJsPpq0cyHTQuj5WJ+WBaH1VAMiKS3v2cXNq0oyFrL9GTOiKqu0efu5iQo1+EPOfqbtL63sZkO2UP3RTJiCqS6McZ9tTGxI38E+vUj7+kgCNPmwyHiEirD7SNmZS0w50XWuOpQiVFrRCSifMaiq3Xd+ERmjdrP+Wo+7kslbYPNKWeq68rclhK11f3JLMhX5J8ONz65NS2Mi8gNnVJ2+gdM1taeFqi+D6fDn20hsLKSUv9bTRLTiXFrOlLjgtPk1jxScW5RWTb5i1ac0PK3Valpnzhjq3a+s0wVPC9O5lYzSRFaSFp7Grq2caGxm4OJ3nK/0jTbPlkPGAL3a/j7oMY+XxgNfMEVZIOetISbwMGDLzavIAz1nwIfY8gOtgP9rmROLjzEOLELKTVNWAhgK3QDtlfT8HIBV/gZEobeG38GL2aXIWUI0ZYSDhMXN3QmQcAAry9OhKivMPwtAD4Ql8ciQ6Gn30uIg/uxKE4MVhpNWrUnQKpisSp8Dw8PBeIgIAABOwMRrXHFvjPHwAzyJCVmYtanpHi8pwADg5dgfwsZFUDKD2LH3/JhVM/14a9duaDvOApfIpzx8MgAcAzM4Mxzwpu7iPQ0boX3D36ooPAEpZNT0vxhfA9Eo1gP3vkRh7EzkNxELNSVNewgMAWQrtsfD1lJBZ8cRIpbbyw8eNeUHGJRt9VIfJUOPIenkNgQAACAnYiuNoDW/znY4CZchvP4VeeGcyMebByc8eIjtbo5e6Bvh3f0jwucRhCwk3g6tZZfllE8DZWR4qQd9gTFspmAaiKPIXwvIc4FxiAgIAA7AyuhscWf8wfYKa+7w488CwtFZdp5QjenoiJPQUAK0L42oX415Mx2HVoNVxMtIyN3xZtLfiwdPGAh4MxAAsIe3QFr0yCUnW39vLMYGbKR8ehU+FuKwDMneG9dTFcKAlRUUV4evZH/JLrhH6uDarBIC9PCJ+ew/EwicbxNENnXWiDj7ZtLcC3dIGHhwOMAVgIe6ArrwySUtJB4zy0tTCHkbED+rt1Bh+AsdAJdgKga/9hsBUAENjDrosRysRiNLqLD5t33NG/Ax+w6I0PAj/BcKMkRF97Clbd+E2jOfJUX7SMGVDSDndelGqLpwrmGOb3MYbnHcHXJ4vAgkF26Hm0mTYDXVtScbXok1Pbamnd2Ah6LYLvu1U4FRSKPBZgHoYg/o2ZGNtWW/1VoiIc+w5nos/oMbBWfGTqYA+bhh0gHG1pzBfu2Kqt3zweLC2bbNlQ1HlTfkcMneoOecp7Y+tiF1BSFKKKRJx9gGcJyyaFSquetMTbgAEDrzYtKfNa4QmqkbBnMXwP5qPfB74Ya8NTTLg8dFt0FJf3e8Eyagdm9u+JoctPIUf5+hYjQvHTGkhKm07UTeAJUJ2wB4t9DyK/3wfwHWsDntofAmx5CUTVJnD2XIP169c3/Fu3Ygp6CowxaNJ4vJF+FRcfMwCkeJCWjfbukzGqLcAU5eBJFYva2ibPHxXYw86Wh1qJGM8UE5fqbkEjGDX7kAdBdQL2LPbFwfx++MB3LGzqDeZ1w6Kjl7HfyxJRO2aif8+hWH4qR80lPw2+qytHiagaJs6eWNNkfOvXrcCUnkrLsOf1q8pANY+LERXjaY0EpWK1PSnBorxEhGoTZ3iuaTKG9euwYkpP+WJSpW8ARsp+BgAWeaF+WHJAipnfB2FR/SNHOMem3I4R+HwjgFj1flKDoPvb6GEB1EmrUJjzBFVsLZrLxg62vFpIxM/kl8BV7FZCZ11ox0jJSUZ8PoxAYEk3jSsfDyMejJp5xgg8HsD1fCFeR0c4WBuBkdXJP1BqkjtPm/9WF5RtbjpmxQ8aY86ZFwyKdImnEnzH+Vg5wxTnv96PpJoUHIt4A7MmdVD+mY5o0SentrXz3LHh2WCm73RYRgThQHIlbv7yCL3nuMJYl2ObwOSm4XcJwBeon5Y42zLWkC+csZWjLhWNjOpPtmhCgO5v94AF6iCteqqlD6MmetRFT1ribcCAgVca9RWsRTB4dPwwrlRW4MLKqdggmoHvts3GgE711ZMAMMhNfoKu3ntwNS0FZzf0Rc4+P+y4Im3eFP8NdLM1Q1HYCVwsrf+QhSgsCMHpDCourMTUDSLM+G4bZg/o1HAWT13R4Vl1gY15GkIPXIW44VMGmWHnkSjjoaPnbuzzNsHVb7Zhd+AXOGX2KcKO+sCeD/C79EB3KwYpt+807ldkayGt5eHNfq6w0dV7FRewcuoGiGZ8h22zB6C5S3KR/KQrvPdcRVrKWWzom4N9fjug7BKNvvvNBF1szJEWegBXGwcIJjMM5xOVdmq3ol8B7nHx3+gGW7MihJ24iMauRAgLCka6yuqQB6suNjBPC8WB5oNA2PlEtfvNNSFLD8LiZf8Hq3/+hG+m24AHFuJiEST6jk0HiJosqeqqUMN2gnPvrujaozusmBTcvtO4y5WtlaKW9yb6udrolnQcuuAL+GomWQKp+FU7raZxbVSV4Gl1N7j0f0Pt+LnztNlPAbSuD7jzAujSoni2g8eKpej74Ed86f897r49F2PMlX9TDx/y4SipkUinP6T0zltlWiE2bcf7wluYgkNf+yOkbBRmOcr/oNXl2HqMOryODoIaJN9JQPPyR2BZLW1JNeSLjCu2uni3KYTmKV8DtpMzenftokcf/BbqyYABA38W9MxhFrU1tSCqRnVV8/M0Vcn7seWGGQaYleFRZhEqctLxuKIGuVFncaOAQVVZARLiE5EbugtBd6sAU3v8fcPnmGFvDhOVp3C0w4SFM9G18CiW/mMF/h36K4IDP4J3qABDnYxQ9igTRRU5SH9cgZrcKJy9UQCmqgwFCfFIrjKFqQnwrCAfpSXxiHk0DAtnOyAryAuj5/jjp9CTOBLgg7WxFnAUAOIL67E5dxq+2bEOfiu3YtfWeXCpvw7ZbhKW+faB+ORuHEyX34bIFl5GZO4wLPtwBOofikKQoa7ZJMGCYeUTJQuALXuEzKIK5KQ/RkVNLqLO3kABU4WyggTEJ6YjdFcQ5C75OzZ8PgP25iZQcQkYDb5ri3ELZ8MhKwheo+fA/6dQnDwSAJ+1sbBwVD7V9xx+rZDP1LImA+UcV+4ILJzZFYVHl+IfK/6N0F+DEfiRN0IFQ+HE58FUHiTkl5YgPiYRRuMWYrZDFoK8RmOO/08IPXkEAT5rEWvhKF8oKPUtN4ABS/JJFwBQdRtffrAe17uvw6Ed7mgPyC/zn76MAq6xPWPAyAhsk4UaEUAs29i2CixKsrNQofjv/DNnkNjbFx+ONUW7Scvg20eMk7sPQi4bFoWXI5E7bBk+HKFQjbrxNIXJ1aALPjrZdoZxXhwu3S1C8YPz2Hf4OkSyEuQ+fopylZe7sWAYmVyLzQcHlmV10jjDsvLfN7RJ8kVGw8pN/t8s23QRQagqkygWSDVIOnAMj/72OZYPUTylQXn8FuM487Q52nygZcxQ1g5XXvB1i6caBL0WY8WkOvznmxQMmTtA8zYefifYdjZGXtwl3C0qxoPz+3D4ugiyklw8flqOGpZLn6z2vFXhBcRG4IpFS0ZAdPwkaPIkvKbPsQp4HSdj3qTXkXlgJTacy0EtpMi+m4xiRoy87EKUGXG0ZaQpX7hjC7X1G2AZFtRM8wDYEmRnKRzK5uPMmUT09v0QY0219cGCYQmk0J5WPXHGGwArwuWtXnh/e0STPzAMGDDwyqC86Voj0kcUcSSAZgjbkJGRMdn0G0MeEybQhAke5D68L3UxtybPw8VExFDeqWU0sLMlte8+knz2RdDP3nZk7TiJdt0opusbhlJ3l3fJ+9Mt5L9uCS0JuEpq7/+hSkoN9qOxwo5k2c6W3GYH0rVi+Q+ZvFO0bGBnsmzfnUb67KOIn73JztqRJu26QRKSUcah90nY/jUSegZSXDkRVabSMb+x5NTehIytutGwJYcpuZLkth6fS3YmRgSAjIx41MbUijr1GEW+Rx/IbySqy6IzG6fQANfRNGvxP+mDeb70dVSR/MZF0V0KWf8u2fD5ZOuxkUJuPyWGKij17Gaa0IVPAodp9MWFdCImj04tG0idLdtT95E+tC/iZ/K2sybHSbvoRvF12jC0O7m8602fbvGndUuWUMBV+Y2RzZFy+K6SUo/50Vin9mRibEXdhi2hw/IBqqEFfv0ynKJC1tO7Nnzi23rQxpDb9JQh7nFJ5H4P9htLwo6W1M7WjWYHXiNFVyTLOETvC9vTa0JPCowrl1uWeoz8xjpRexNjsuo2jJYcTqZKRkR31fVdkUpnN0+gLnwB2XvuoPPpZRS7vi+Z8qxpwOzVtHbtWlq79lNasWAkvfV+CJVrGtuuy3T95AZy78SnNsJZFHghhdKvHaRlQ62JZ+5KPj/GUJ5yMOru0ef9jMlm8Ezy+WglffLRXJrm9RmdzW68s6gu6wxtnDKAXEfPosX//IDm+X5NUUUMkabxKCPl0MWzGNo+rhtZWdmS64xdFHFhDQ3oMYoWbDlGt5QakySepA3unYjfRkizAi9QSvo1OrhsKFnzzMnV50eKyWM4NV6ReoY2T7AlvsCRpu88S0nZCfTrtinUjS8gx2kB9H/3H9Pt0E30d1u53gPCMkhKlfT7me00d9Q7NHKqN320bDF9uO0sPaom7vFrzFM1cPggIvo/3GP+PVlJOzWceUFc8dRCTdQKGjD5B1UNKfEsZjuN62ZFVrauNGNXBF1YM4B6jFpAW45FUPR/uPWZm6tJ2zdIcTthE15gbMS/0qJJ/nRf+aZEXY5VwIhv0vfeg8muvTXZu02mj7csosEOQ2j2Z4foRgGjuS2ufNEQW/X1m6gi9SxtntCF+AJ78txxntJriOrufU79jG1o8Ewf+mjlJ/TR3Gnk9dlZakx59X1Q0/nA3pN2nE8n4tSThBK11aPaDPp+whvUedJ+yjTczGjAwCuHnm9e/KvBIu+MP4LK/wFvVxZPxWWoqKqAOP8+ThwpwOKwvRin+YSUgf9VZAnY5DYEpyfH4s42V81nIg38j8MiZ783dnT8FkHT5ddPDPw5kSVsgtuQ05gcewfbXA0Zb8CAAc3ouRXkrwWbdxR+K+7D8W994djLBQOHjcLYcRMxfYYH3N55W+VSpQEDzdG4T8TA/zJMBUrFNWArYrHvsg3mTjQsqv8yGFLegAEDWvifXlhDYI3OZr9h+aCxmLt8I/x3bMfmT5di3j9/heMSH9Q/UMKAgWbISlH6jEGZSKx4AZABA/XIkLhjNGw6dULnt5ahdP5KDGut92IbeGnISkvxjCmDSGzIeAMGDHDzP74VBIA0D/HnziAyKR9V/Paw6z8OU//WB68ZFtUG1CHNwOXD/0F0VhlkAmvYj56Jhe6ODa+VN2BAln0R+4OT8fr4+Zjp1vF//OzFnx9pxmUc/k80sspkEFjbY/TMhXB3NGS8AQMG1GNYWBswYMCAAQMGDBgw0AoYTqYYMGDAgAEDBgwYMNAKvDILa7Y8E0kZkhd4b0gN8pIeoOjFdfDqU5mNe/dzofKoYwMvGGXtVSL73n3kvvBA/FH9vAxelk81waI8MwkZkucoMK9gfirX5crse7j/8pzcqiiPrSXU5CXhwZ9yUlHOnz8JbDkykzKgU5oxYjxMeoxK5c9feRiIHybh8Z/P8D8cRvwQSa+go1q2sGZKkXx6N9YsWQSfpR9jxSfrsSskDo/vH8GRCJVXBnLD5OK3QG8MdHgbXj+k6fWWPd1gIbl3DJ+4O8Fp9HbE/M/ee8Ii64f5GDJ0MY4U6lKVDDw/6rXHZv2A+UOGYvGRwuea1LWhuR8prm0cip4jVyO8+EVa8CJ4uT5VB5P7GwK9B8LhbS/8kNbSCvaK5ae6usxm4Yf5QzB08RG8Cia2GHVj0xNWcg/HPnGHk9NobP9TTSrq8+fVh0Hub4HwHuiAt71+AHeaMcj+LRDz+zug76JgZCu//PJ5qY3F5hE9MXzFuVbPAyb7NwTO7w+HvosQ3OqG/4VgsvFb4Hz0d+iLRcHZOr2h9g9F+cHW2mAKLtHG0Q7U+/09FJVTo/i0gn4/8xmNecOMxu8rUjpCB6Qx9InQhN5ac0P+UpZWh6Gcb8eQSfvZ9N9q5e/UwxTfplsZf7Gn71dk0d2EHGrqgr/kOF8p1GmvgrLuJlCOjlpsORr6kV6n1W5DaGO06utD/hw8p0+ZYrp9K4NaU/XSmE9IaPIWrbnxHBVMTX6+VNTU5Yqsu5Sgk5N1gaHi27fopZQfNWPTFybnWxpj0p5m6zqpvDKoy58/A1KK+URIJm+tIe1pVkO/fWRPJm7bKKWV9SWNW0vvDFpHkaXK37QONb99RPYmbrSttQ3/q1HzG31kb0Ju21JatZa3BvqdsZalYs8cL3wrXYzjh/0wsmv921Ms4DR5K04EzYX1sxa8ZJVvDWsrlXd4tyI8WFlaQPceKhH/7SYcfsj5Z/GfDws7uPbrisanf/1Fx/lKoU57FrBz7YeuL/wxbOr7YXKy8eanx7F1RLvmX/xpeD6fVsZ/i02HH7boTKUm+NbWeO4SppKfLxk1ddnCzhX9dHGyLlTG49tNh/FSyo+asekLz8oSFs/XxEtCXf78GeDD2tpKR7v5sLC0aOEleS4YPHncBatCtmPUC3o8Pd/CEhatb/hfD74FLF9RR+lllfj0F9gZxcJ9qQ/6qDxtiIeOEz/Bwr6Nn8hEDxEfcRWRtzIhUXOuXlaagZtR0biXW638FSAT4WF8BK5G3kKmuoOVYMsfIyWzHCwjRkZcNOIzJM0uD/CM1KSjuj7YEsTtWYC5gTeRlXAJ4RHJKKm/3MOIkXn7GqLj0lCs4yW0ypwkpItYoLYIKbGxSC1WnUWq8pNwPTIad7LLVS9j1xYj7UYkIuMzIFZ2Q1U+kq5HIvpONsqbHshK8Cg+CtcSclAmykdBwxakGuQlpsovX2kcpwyih/GIuBqJW5nNfageFuWPU5BZzoIRZyAuOh4ZyvFS5+d6qnKQlFYCpiYf92+moVTxtTbtqKA85vICJFwOR1hYOK6lScCCQf6diwgLC8PFuMeoUj5eiaqcJKSVMKjJv4+baaWNftDkcw6/qdNeTV4iUuuvI5Y9xPWLYQgLa/4vPCZdsZdQc9tyalGcdgORkfHIUBJJs37qeW0QhnXOwa20YpXncOui10ZYFCRcRnhYGMKvpUHCAkz+HVwMC0PYxTg8bnByJXKS0iFvNgWxsalQblbfeGv1KdRoopJFSdweLJgbiJtZCbgUHoHk+uTm0qhGZCjNuImo6HtQV8KAKuQnXUdk9B1kNxeLBprkJ6CT34AaFCRfR1RMArLLlPuoQk5SGkqYGuTfv4m0+uTSUnM463JNHhJTlbfbaBqnZvvZkjjsWTAXgTezkHApHBHJJQ1tarKNlTxCfNQ1JOSUQZRf0KK9s5xj4+hbLTwjtYs8RpyJ29eiEacmv1oyhtriNNyIjER8hlie+6yutU1z3VCXP5rjqK/dLCSP4hF1LQE5ZSLkN05AgL4+BgBZKTJuRiH6Xi40RE2t3Ub1YyQZSh7EIS6lUM39C+qP1Zg7MglkDn3wevZdHesEhy801Ryjel0RZCUPEBeXgkJVwzX6UePcpQaVuOqsLfXoMn9w5UdVbqL8ngVGgszbsbiXU++vWhSlxiLmfn6TGBqhMcQleBAXhxRlR2lYX2iOe+ugx8K6CtFnLqGYJ4TbOx2Uv5QjeAt/+1tPAAwyjy3A4Onf4v7TQsQGeEA4fCtuNESlCkk/zIOHzwEk5GXg7AY/BD1sDD+TeQwLBk/Ht/efojA2AB7C4djaeHBzmFxE7/XBQLtemL03GFvH98egce9iiLMQY/2vo0z59wo09cFK8iEya4+2LAtppQSSsirIAEjivoG31zqEJuUg/cwqjOjlAf+IxslAGbbkJo6sGAMn4QQEhBzAEo+JmD1vIlz6eCIoQzFWtgDh2xZjVVAUEm+dwKrhQozceAUiFgBYlETuwHzvf+FKdjES906B0M0PpwtY+YImfBsWrwpCVOItnFg1HMKRG3FFxAK1idjj7YfjuTLUpB7EnMHv4aesWojvheDT8U7oPnIromugfpxMJo4tGIzp397H08JYBHgIMXzrDY3JxORGY6/PQNj1mo29wVsxvv8gjHt3CJyFY+F/Xe55TX4GW4y4g8sxxkmIcVv2Y+d7wzF0yEAsPFqsRTtqUDfmHCt0e7MIPy+ZisUHUiEDHx26dkL6njmY8kko8jVUG7Y4DgeXj4GTcBy27N+J94YPxZCBC3FUxOFzPfzGiu8h5NPxcOo+Eluj5UWg9sER7AiKR16pBBKJBE9v78fiKdOx/lwx+MTdNlsSiR3zvfGvK9koTtyLKUI3+J0ugExNP4AEcd94w2tdKJJy0nFm1Qj08vBHRAmrm15V4KFDtzdR9PMSTF18AKkygN+hKzql78GcKZ8gNL8OJTePYMUYJwgnBCDkwBJ4TJyNeRNd0MczCPJmtdUK7ajzqVpNZD5FvsgM7duyYKWVkEjKUCXj0CgXVUn4YZ4HfA4kIC/jLDb4BaFJCQNbEI5ti1chKCoRt06swnDhSGy8ItJQL1il/GR18BuAshvY5TkZm+PqYFJ2Hh8NdsY7Y8Zj4nR//Bp5EMvHOEE4bgv273wPw4cOwcCFRyHirDkcdZkV417Ipxjv1B0jt0Y3TG7qx1mCIk77WUjyRTBr3xYsK0WlRIKyKhlnPaxN3ANvv+PIldUg9eAcDH7vJ2SpztkccIwN2mqxrmjOL6AFY2BLELljPrz/dQXZxYnYO0UIN7/TKEAH7bVNj5oEjXGU61U/u2uRuMcbfsdzIatJxcE5g/HeT1mKPfr6+7gq6QfM8/DBgYQ8ZJzdAL+gh80Wilx2AwCoCOf9hsJ1qDuG97GH89RvcbuC69gSFMapz51iveuEZl9orzmEovN+GOo6FO7D+8DeeSq+bTRcrR9LCjXNXU2abYLauLI6aEsNus0fmvODLb2NY6vehbDHKGwJPYnNc2bB+4PpGOI8GKvCb+Poh5MwbeFSzBjsjBGbm+uYis7Db6grhroPRx97Z0z99jYqNK4vRBrirqk2txDlvSEaYXLomzHGBJPxtL9Y+UslZA/oi0HmNGBrEtURUd3N9dTb1IU23asjIqLKmDXU13EhnRYrfl9xjhbZtlHsd5PRgy8GkfmArZQkP5jW9zYll033SH60GqSxtLpnG7IZu5nCn9QRVabSj9NsiW88gLbclx/17NBkMm3YU8bdB5P/Hbmb2pLPBcUecvEFWip0phVR9RvSKilmlTMZ28yiXwqZBjOUkT36ioYZW5Hb8tOUKSUiyX9pTicTGv7VI5IRQ0Uhc2jMujjFHj+GsnePIuM2rrTpXh0xBcfJy8mDvs+Wt1+X/BWN6tCFFpyqIKYohOaMWUdxin1mTPZuGmXchlw33aPK2NXU22UtxVXL2ywM3k57U+qIiKGC793JxGomnahUHKc0TtmDL2iQ+QDaKncK3Vzfm0xdNpEibGqRxq6mnm1saOzmcJK7/keaZssn4wFb6H4dt5+Jyabdo43JrM9yulQsppQr4XS/OIVTO+qQahqzLJW2DzSlnquvK3wspeure5LZkC/pd45NWUz2bhptbEZ9ll+iYnEKXQm/TyUFmn1eo8VvzbVHxBR8T+4mVjRTEYi65HN0Lk3x4/JY+mxAW7Ie8SXdq9ESE6aAjns5kcf32cTIG6KvRnWgLgtOUYWafsQXlpLQeQU1yjiGVjkbk82sX6iQ0aZXTcgodftAMu25mq4rfCO9vpp6mg2hL3+XEZGMHn01jIyt3Gj56UySNzuHOpkMp68eybTWCk1o86lGTTD59J27Kdn6XCCF6rk1qpZKilnTlxwXnqbGEraIbNso9lgzRRQyZwytaxQL7R5lTG1cuXJJOT+1+I3qKGnbO9S2YQ9pHd39rC+ZdF9GkVJ5e9m7R5OxWR9afqmYxClXKPx+CRVw1BzuuizX2/fuJmQ18wRVEmkZpzb7Gcr/zp1MbX1IXn646mElxa7uTS5r4+T7z5lCCt6+l1I0+lIV7rFx9c3RybNDNNm0cY81d35J9RwDQwXHvcjJ43uSTwF1lPzVKOrQZQGdqiCttY2zbijnD2cc9bRbGkure7vQWnniEVMYTNv3plBdS3xcGUNr+jrSwsag0blFttSmfo81p93yMRvbTqE9N0UkowpK+nEG2bcxITf/RKrjPFZd7hRTir51QqMvuGtO3c311NvYlqbsuUkiGVFF0o80w74Nmbj5U2Idtx/VzV0itUsUjrhq0ZYmtM0f3PmhWI+YmNPg9VFUICMi6V363KUNtRuyli49kev43ucuZOLoRxE19X4zJtspe+im3FH04wx7amPiRv6JderXFyUFHHFvOprnQ/cz1jxzmJvwYER1qKnRsrbnC+F7JBrBfvbIjTyInYfiIGalqK5hAVQgfN9hZPYZjTHWit+bOsDepv5Vh3wIfY8gOtgP9rmROLjzEOLELKTVNZr/ouCZwcyUj45Dp8LdVgCYO8N762K4UBKioorUHKdfH6Vnf8QvuU7o51q/t9Acg7w8IXx6DsfDJEq/boTfti0s+JZw8fCAgzEACyF6dOWhTFIKQhUiT4Uj7+E5BAYEICBgJ4KrPbDFfz4GmAHisBCEm7jCrbM8RIK3VyNSlIfDnhaoijyF8LyHOBcYgICAAOwMrobHFn/MH2AGga0QdtlfY8rIBfjiZAraeG3Ex70EAHiwtGyr9tJlPXyhL45EB8PPPheRB3fiUJwYrLQaXOHmmZnBlN8RQ6e6Q+56b2xd7AJKikJUkRG3n3lmMDPmwcrNHSM6WqOXuwf6dnyLQzvq0TzmlsEzM4Mxzwpu7iPQ0boX3D36wjRas8/19RvP0hJtmwRC8PZETOwpAFgRwtcuxL+ejMGuQ6vhYqIlJuIwhISbwNWts/zSk+BtrI4UIe+wJyxU+inF2R9/Qa5TPzTKeBC8PIV4eu44wiTa9NpS+Gjb1gJ8Sxd4eDhA3mwPdOWVQVJKWmqF7qj4VGdN6FcLAAAV4dh3OBN9Ro9BYwmzR0MJq4rEqfA8PDwXiICAAATsDEa1xxb4zx8AsybNNEc5P7X4DTJkZeaitmE7ggAODl2B/CxkVcvbMzMzBs/KDe4jOsK6lzs8+poiWmPN0VaXAfAsYdnUyZzj1Ga/Mlz1UABboR2yv56CkQu+wMmUNvDa+DHUhlMt2sbG1XeTZjjRll/6jkGMsJBwmLi6QT4FCPD26kiI8g7D00L5t6pw1g1lOOOop90CWwjtsvH1lJFY8MVJpLTxwsaPe0HQAh9XhO/D4cw+GN0YNDjY26BBkZx2y+HbvAP3/h3AhwV6fxCIT4YbISn6Gp5WcB2rLnc64i1964RGX+hQc/g2eMe9PzrwAYveHyDwk+EwSorGtacVnH5UN3d1ULvK0zOuOsA9f2jLD4DX1gLmRsZw6O+GznwAxkI42QmArv0xzFYAQAB7uy4wKhND3FBC+LB5xx395Y7CB4GfYLhREqKvPQWrbn1hGs0R99ZDrcvV0w79BwghYB4iOVl5Z4wyPAiqE7BnsS8O5vfDB75jYcNTeILJRdrvEoAv0Ng5T1CNhD2L4XswH/0+8MVYG57eE7ug+9voYQHUSaVqj9W9DwZFOU9Qxdaitsn2HYG9HWx5tZCIn2lOrIa9UvX/zwffCCCWALYcJaJqmDh7Ys369Vhf/2/dCkzpaQRR8VPUSEqbCKgeFuUlIlSbOMNzTZPj1q/Diik9YdxtEY5e3g8vyyjsmNkfPYcux6kc+aUYI2V7lOEJUJ2wB4t9DyK/3wfwHWuD+rDpjgDd3+4BC9RBKiXtflYxiEM7GuBxjLmlNDeL2+cCff1m1Lg3rBEWeaF+WHJAipnfB2FRd8X0wdE2IyrG0xoJSlVFIqdpP0wRcp5Uga2tbbJHTQB7O1vwaiUQP2O59focNOx1rP9/Ph9GIMib1T/ealHyqT6a0KpRJZjcNMhLmPoKxpaXQFRtAmfPNU20sh7rVkxBT46JSzk/uf1mjEGTxuON9Ku4+JgBIMWDtGy0d5+MUW0bjmh2PGfNcSrQWpflexob29Q2Tm77leCyracxui06isv7vWAZtQMz+/fE0OWnoCGcqmibczj75ghYU7TmF/QbAyNC8dMaSErFnFrUCEfdUIY7jjz97OZ1w6Kjl7HfyxJRO2aif8+hWH4qB4zePmaQm/Y7JOBDQ5ppsVv51wB4HeHoYA0jRgap1mNVCrTedUKjL/Rui4eOjg6wNmIgk2r3o6rl6tAzrrrANX9ozQ818w+MwDNCM78Y8XgAx8vCeR0d4WBtBEZWJ/9ApQRqi3vroEGy6hDAxdsHoyyLcPbgSRSoW03WPsSF84lAxQWsnLoBohnfYdvsAehUbzABMOqA1zsIUJN8BwlKj7wmVn5G+8LKqdggmoHvts3GgGYHc0PUxKi6KtSwneDcu0vjX7gN6NMHH116dIcVk4Lbdxp39rC1UtTy3kQ/Vxt9nNgIzwpdbMyRFnoAV5s8SIXJDMP5RMIb3WxhVhSGExdLG75jRWEICv4dFl1sYJ4WigPND0TY+URIc5PxpKs39lxNQ8rZDeibsw9+O65Al6eLV1xYiakbRJjx3TbMHtAJXF5pDqG562vAdnJG7y7VevhZAZd2NMBoHDMfAr6ahSER5w0dqvBgxeFzSYv91ogsPQiLl/0frP75E76ZbgMeWIiLRZxt89/oBluzIoSduIgGlbAihAUFI115gPwu6NHdCkzKbTTKmEWttBa8N/vB1aZFKgYA8OVOVhovgZRtUEcL4q0LmjWhjD61QI5Rh9fRQVCD5DsJSu0RWBbgWXWBjXkaQg9cRaNaGGSGnUeixr2p+sJDR8/d2OdtgqvfbMPuwC9wyuxThB31gb1qwZPDVXOSrLTUZVVadZxctiVKkZv8BF299+BqWgrObuiLnH1+2HFFNZpq0TbncPat40C05hfpNwb+G+hma4aisBNonAJYiMKCEJzOAFpqmz61nDuOjH52M7lIftIV3nuuIi3lLDb0zcE+vx24Uqevj43Q4fUOENQk445q0MBqtbvZEQqqUPK0Gt1c+sPGWt9j9a8TGn0h1b+tqpKnqO7mgv421nr6URNcceXWVovQmh8tn3+aUVWCp9Xd4NL/DbXrMv010zLU9a0RvtM/EbR3JtqeW4GZ6/8PDxV76QGAFd/GkS9Og1x7gy17hMyiCuSkP0ZFTS6izt5AAVOFsoIExKeaYfK8SXg98wBWbjiHnFpAmn0XycUMxHnZKBQX4lFmESpy0vG4oga5UWdxo4BBVVkBEuKTm5qjBIuS7CzITWKRf+YMEnv74sOx8usODMPIE5IFwJZx9sEzNYUJnqEgvxQl8THIHrsMvn3EOLn7INJr5e0XXo5E7rBl+HBE/SMHVWEZBjJimwiUQCCwLAsWFhi3cDYcsoLgNXoO/H8KxckjAfBZGwsLRwHaTViImV0LcXTpP7Di36H4NTgQH3mHQjDUCVbjFmK2QxaCvEZjjv9PCD15BAE+axFr4Qij3FDsCrqLKpjC/u8b8PkMe5ibmMIIAMuwIEVRAqA0zmjceJCJooocpD+uQE1uFM7eKABTVYaChHgkN4m1CmwJsrPqb6zIx5kziejt+yHGGnP7GZDXElldo6I5taPBCEbTmPmdYNvZGHlxl3C3qBgPzu/D4esiyEpy8fhpuZo7xBshyNDELFho9Lk9Kh9x+62Z9gCAZcCSfBEGAKi6jS8/WI/r3dfh0A53yJ/iJEbY6cso4GqbPwELZ3ZF4dGl+MeKfyP012AEfuSNUMFQOPGV+2mHSct80Ud8ErsPpsvvxmYLcTkyF8OWfYgRJtr0qgk+Otl2hnFeHC7dLULxg/PYd/g6RLIS5D5+ivIaFgwjA7FNzlQSKfzBtijeUM5nKI+VQxM8U5iaAM8K8lFaEo+YBP3rDa/jZMyb9DoyD6zEhnM5qIUU2XeTUcyIkZddiDKjcVg42wFZQV4YPccfP4WexJEAH6yNtYAjx1mR5vnJ7TcAEF9Yj8250/DNjnXwW7kVu7bOg0v9VXP5AYCsrsljBTlqjpMNd10uq5LbxFLjQtuCa5za7OfBVB4I5JeWID7mEYZpss3RCLmhuxB0twowtcffN3yOGfbmMDE1AqpuYe+CSXjf/6L6kz0AwOuoZWxGmv3CFTCGAaPID+35xWgeg1raYcLCmehaeBRL/7EC/w79FcGBH8E7VIChTnyAs7aVoYirbijXJM446mk3k4vQXUGQ//zv2PD5DNibm8DUiEN7an3MQ8fJ8zDp9UwcWLkB5+RBw93kYjDiPGQXlqGK0255K1RVBoliXV6TdADHHv0Nny8fAmOtxyrljpY1g1o0+YJ0aIuqUNZoOA4ce4S/fb4cQ4y1+1F57lIPR1w5taV53uSeP7TlBwCGBas4OVEPAaAmZ6iJCGDZJgt8QlWZRHGCowZJB47h0d8+x/IhisfWKa0vuLXe+LPnRnnTtXZkVHR9Hy2b8g4Je/ShwWMm0LRZC2jxp/voerFilzyTR6eWDaTOlu2p+0gf2hfxM3nbWZPjpF10Q0JEjJhufu9Ng+3ak7W9G03+eAstGuxAQ2Z/Rodu5FHeqWU0sLMlte8+knz2RdDP3nZk7TiJdt3Q8EKLunv0eT9jshk8k3w+WkmffDSXpnl9Rmez5Tvtq9PO0SaPzsTn25HnjtOU/Izh7kOWQYfeF1L714TkGRhH5URUl3WGNk4ZQK6jZ9Hif35A83y/pqgitXcFyJEk0skN7tSJ34aEswLpQko6XTu4jIZa88jc1Yd+jMkjokpKPeZHY53ak4mxFXUbtoQOJyvuLCSiytRg8hsrpI6W7cjWbTYFXiuW36RGRJWpx8hvrBO1NzEmq27DaMnhZKokIun1DTS0uwu96/0pbfFfR0uWBNDVQoYqUs/S5gldiC+wJ88d5ym9hlTGWZZ3ipYN7EyW7bvTSJ99FPGzN9lZO9KkXTdIg+ep7t7n1M/YhgbP9KGPVn5CH82dRl6fnSW56zn8fP0x3Q1ZT+/a8Ilv60EbQ27TU0YH7ahB05iJiJ7FbKdx3azIytaVZuyKoAtrBlCPUQtoy7Fb8v6UYER3KWT9u2TD55Otx0YKuf1Uq88ZDr8VKmuvIJXObp5AXfgCsvfcQefTyyh2fV8y5VnTgNmrae3atbR27ae0YsFIeuv9ECrnaFsiN4qC/caSsKMltbN1o9mB16iYIaIK5X5qiKiOss5spCkDXGn0rMX0zw/mke/XUVTE6KpXDTyLoe3jupGVlS25zthFERfW0IAeo2jBlmMUEf0f2uDeifhthDQr8AKlpF+jg8uGkjXPnFx9fqSY3Fy9462Szyo+reHQhIwyDr1PwvavkdAzkOLKOTSqyQAiYsQ36XvvwWTX3prs3SbTx1sW0WCHITT7s0N0o4AhqkylY35jyam9CRlbdaNhSw5Tk9RWQTk/b98+ye23vDrKOz6X7EyMCAAZGfGojakVdeoxinyPplDB3RBa/64N8fm25LExhG43iJ2j5nDW5UeUenYzTejCJ4G9J+04n65oTv04JYna7GdIlnGI3he2p9eEnhQYV85hm5SubxhK3V3eJe9Pt5D/uiW0JOCq/IanvEM0rbM1vd5pGPkncdx9xDm2Ao6+NVCdRuc2eVBnPp/sPHfQ6eRn3PnFMQbNVFJqsB+NFXYky3a25DY7kK7Vz7Faaltxrua6oVKTnmmOo952S6/ThqHdyeVdb/p0iz+tW7KEAq4WKmqonj4mhsQ3vyfvwXbU3tqe3CZ/TFsWDSaHIbPps0M3qIDhspuo8vcztH3uKHpn5FTy/mgZLf5wG519VH/nnKZjGRKpzZ0W1AmNvtDSVuXvdGb7XBr1zkia6v0RLVv8IW07+6jJi6PU+5Fr7lKFO65c2lI3b+o2f3DkR0Uqndk8gWz5AnKcvpPOJmVTwq/baEo3Pgkcp1HA/92nx7dDadPfbYkvcKBpAWGUIa2k389sp7mj3qGRU73po2WL6cNtZ+lRNRExIvXrC9IUd6XxPCdG1PTPgT8rsgRschuC05NjcWeba8NlLwMvHlnCJrgNOY3JsXewzdXgeQMG/hhY5J3xR1D5P+DtyuKpuAwVVRUQ59/HiSMFWBy2F+M0X0z7i1GLmA0f4o5PEJY7atoHY8CAAQN/DHptBXn10XQt0MALx+B6Awb+MNi8o/BbcR+Of+sLx14uGDhsFMaOm4jpMzzg9s7brXtZ85WGhSj2B5x7bS7mGxbVBgwYeAX4ayysZaUofcagTCRWeZOPgReLrLQUz5gyiMQGzxsw8IchsEZns9+wfNBYzF2+Ef47tmPzp0sx75+/wnGJD+ofKvNXhxUnIYGdhC2rRivuTTBgwICBl8uffyuINAOXD/8H0VllkAmsYT96Jha6O0LljesGWh1pxmUc/k80sspkEFjbY/TMhXB3NHjegIE/BGke4s+dQWRSPqr47WHXfxym/q0PXvsfWVQbMGDAwKvIn39hbcCAAQMGDBgwYMDAK8BfYyuIAQMGDBgwYMCAAQMvGcPC2oABAwYMGDBgwICBVuAPX1hXZt/D/VxNjxj/q8OiPDMJGZI/+BEaldm4dz9X44Pd9eXPEsOavCQ8KPqDff086BAntjwTSRmSFj2E5XmOfTnUIC/pAV7ZENbkIelBUSv48xUf51+JVovZy+YlzSUvAx3q4qvOHzFn/hF96IvynPMq2vgiaNnCms3GDzN6ot+sH5Cmz8Mg2Cz8MH8Ihi4+gsL/gXrQFCb3NwR6D4TD2174IU3ra5FaERZZP8zHkKGLcaQ1nM4RQ+m1jRjacyRWhxe/1ImLldzDsU/c4eQ0Gttj9BHoy0RLnJhc/BbojYEOb8Prh7Qmb9PTgec59qXAQnLvGD5xd4LT6O145ULISnDv2Cdwd3LC6O0xz/EkoldlnAwefueJnv3n48ij1lUHWxCHE9+uwD9GDcfwEZPx4b+O4Vp2/XvTpMj47SC2+/wNI9zn4LMfryJDw5uyn5tWi9nLR++5pDYWm0f0xPAV51Rq9quPlrr4Z4Bjzmw1/og+9EHdnPOq2fgiUX5jjC4weftoYq/ZFJwlf7OhPlRk3aWEnCZvP/ofQhrzCQlN3qI1N6TKX71YKrLobkJOkzc3PR/qYyil66vdaMjGaI1vafwjYXK+pTEm7Wn2f5XtfHVgim/TrYwmOaQtTtIY+kRoQm+tuUF6K+h5jtUZhopv36KmQ2o5DOV8O4ZM2s+mVzKETA59O8aE2s/+r+Z46cQrME7mMX0zvjct/O8Tjje1PQeyFNr+ThsSCD+hGDXiqz7nQ/19zlErv/xMFb1j1pp6bl30mUukcWvpnUHrKLJU+Zs/CWrqokrtfMVRP2e2Ln9EH3qhZs5pVRuZYrp9K4NeRRW06Ix1VQqLiYeDMNtO/+c6Wdi5ol9XU+WP/yfgW1vDykj50z8ACzu49uuK1vK62hgyOch+81Mc3zoC7Zp/81LgWVnC4mX4WmcqEf/tJhx+2OSMk7Y48a1h3VIBPc+xulIZj283HUbTIbUcHqwsLfCCLW45PCtYtorAXoFxlqWCP/0Yvptu28JLmFoweh2vtTeCkaU1rNV0wGvXHm++/tqLf2OuvjFrVT23LrrPJQyePO6CVSHbMerP+qBvlbqopna+4qidM1uZP6IPvVAz57SmjZXx32LT4Yev5BVYNWVOPWxBAi6HhyEs/BqevOOLf/Z/hjsXwxAWdhFxj6safleZk4R0EQvUFiElNhapxUrDrslDYmqh0laBWhSn3UBkZDwyxPWXCethIM68jWvRcUgr1v8CXlO70yQswOS3zG6ZCA/jI3A18hYyJco2ciFDacZNREXfQ2618ncAUIX8pOuIjL6D7PLmXmEljxAfdQ0JOWUQ5Regssl3tcVpuBEZifgMMZpaU5WThLQSBjX593EzrVTxXQ3yElObXH5hUf44BZnlLBhxBuKi45GhZkya+lAfw9cwaFhn5NxKg0qYKnOQlC4Ci1oUpcQiNrVYezKwIqREhiMsTB6r+Cx5rKqy4nExLAzhkSkQcV1O4hmpWazIIHoYj4irkbiVKWk+Jk449MmhC42aYksQt2cB5gbeRFbCJYRHJKOEhZo4yZGVZuBmVDTuqRMQR//QdqxGtPlJ1R9sSRz2LJiLwJtZSLgUjqsRv+GiDnnHZT/PSDWCnFTlI+l6JKLvZKNZKrVEf02oyk/C9cho3Mkub6J5HvQyT69xViE3Ub7nmpFk4nbsPeTUJ39tEVJjY3A/X2mfIkf74MplADBxwai3xbjdyn5rMS3uV1tdUxcz9VpX1nNEcklD7BlxJm5fi0ZcWrHuW0rYcjxOyUQ5y0CcEYfo+AyohknbXMc1l1QhJykNJUwN8u/fRFqponGZBDKHPng9+65aXWhCY+1qgvq8kMOpN015ykrwKD4K1xJyUCbKR0HDhNekLmqsnerjCACoykFSWgmYmnzcv5mGeteowJbiQXT9nBOOmPQysADKM67L55yYdMi3tHP0pSkO6uZMRozM29cQHadmztToCw6U+9Alj2oKkHw9CjEJ2ShTDiKH37hizznnKNsIDj1otJ9FSdweLJgbiJtZCbgUHoFkuQgUzam3jWs91drovLDmdeiGN4t+xpKpi3EgVQbwO6Brp3TsmTMFn4Tmo67kJo6sGAMn4QQEhBzAEo+JmD1vIlz6eCIogwFYMe6FfIrxTt0xcmt0w40IbEkkdsz3xr+uZKM4cS+mCN3gd7pA7hBJHL7x9sK60CTkpJ/BqhG94OEfoUgk3XhuuwEwmcewYPB0fHv/KQpjA+AhHI6tN5osDjRRlYQf5nnA50AC8jLOYoNfEB42ESdbEI5ti1chKCoRt06swnDhSGy8IgILoDZxD7z9jiNXVoPUg3Mw+L2fkCWTF5bIHfPh/a8ryC5OxN4pQrj5nUZeYRwOLh8DJ+E4bNm/E+8NH4ohA72xPyIEn453QveRWxFdAzC50djrMxB2vWZjb/BWjO8/COPeHQJn4Vj4Xy9TGKa+jwKZ+hhK4r6Bt9c6hCblIP3MKozo5QH/iBKwbAluHlmBMU5CTAgIwYElHpg4ex4muvSBZ1CGasFtCs8MbSsv4/OZkzB7XxY6dZT/lWv6Gh/Xt2/AuUprtNVZvQCYTBxbMBjTv72Pp4WxCPAQYvjWG9AWRS59atIFq0VTrCQfIrP2aMuykFZKICmrwNN7zeMkpwpJP8yDh88BJORl4OwGPwQ1EZCm/nU5ViNa/KTeH3kozRfBrH1bsKwUlRIJytt05sw7Rqv9+sCiIHwbFq8KQlTiLZxYNRzCkRtxpaSo5foDALYA4dsWY1VQFBJvncCq4UKM3HiF+w86Neg+Thalt49h1btC9Bi1BaEnN2POLG98MH0InAevQvjto/hw0jQsXDoDg51HYLOiDc72NeUyK+/vhfitpTxHvdCprimjUessJEp6LquSAZAg7htveK0LRVJOOs6sGoFeHv6I4JyQGORG74XPQDv0mr0XwVvHo/+gcXh3iDOEY/3RYJq2uU7jXMKiOO4glo9xgnDcFuzf+R6GDx2CgQuPophLFxrQVrvkP+LIi5boTcQCtYnY4+2H47ky1KQexJzB7+GnrFqIleqiau2sgkxTHNlixB1cjjFOQozbsh873xuOoUMGYuFRkdKoFfAs8JpJGv69aDKm7rgL6y4W4AEwf6Mtbu4OxG1BB5iThr40xcF7PyL0mTMBDb5QWRI3ory20jGPym7sgufkzYirM0HZ+Y8w2PkdjBk/EdP9f0WkJr9xxZ5rzlG2Uf6hej1oqz+sBPkiM7Rvy4KVVkIiKUOVjFuXGtdTLwrlvSFcyFK300DTnrT6umLHjPQ6re5pRkO+/J1kRCR79BUNM7Yit+WnKVNKRJL/0pxOJjT8q0fyfTBMAX3vbkJWM0/I99MxBXTcy4k8vs+W7+2rS6avRnWgLgtOUQWJ6cJSITmviGrYW1UZs4qcjW1o1i+Feu0FfD67ZfTgi0FkPmArJdURUd1NWt/blFw23aM65Y6aUUkxa/qS48LTJFZ8UnFuEdm2UeyLY4ooZM4YWhensInJpt2jjKmN6ya6Vyel2NW9yWVtnHzsTCEFb99LKXUMFRz3IieP7ylb7jBK/moUdeiygE5VEDHZu2m0sRn1WX6JisUpdCX8PokYhgq+dycTq5l0QrGJURq7mnq2saGxm8PpSR1RZeqPNM2WT8YDttB9LX2oxFB8gZYKnWlFVEOUKGaVMxnbzKJfChki2SP6apgxWbktp9Ny59J/53Qik+Ff0SOtm6MqKWqFkEyc11BsjfwTpvAIzZu1n3K0CeDZIZps2rjHWvbgCxpkPoC2yoNIN9f3JlOXTXSPK4ic+uTWBbemiJj878jd1JZ8LigGRqpxqoxZQ30dF9LpRgHRIts2ij1r3P1zH6sZTj9x+oOh/O/cydTWh+qHxJ133PYTET07NJlMddh7zBSF0Jwx66gxlXbTKOM25LrpHtW1WH8MFYXMoTHr4hT+Yih79ygybuNKm+7VEdEzOjTZVIf9uvqOU+5HE/PBtD6qgGREJL37Obm0aUdD1l6iJ3VEVHePPncxIUe/CKrhbJ87l1+M39TAFNG+8cbUZoA/JavJN+m1NTRlnUKXz9Evd10jlZhxal2NnsUXlpLQeQU1lroYWuVsTDazfqFCznokpdjVPamNzVjaHP6E6qiSUn+cRrZ8Yxqw5T7VaZ3rtMwlxFD27tFkbNaHll8qJnHKFQq/X0wpGnXBDXft4soLaYv1Vhm7mnq7rKU4RQ4UBm+nvSl1auuicu3kjCOTTbtHG5NZn+V0qVhMKVfC6b6IK1h1lLTtHTKzXUinFTcLMfmH6KM1YVSurS+1cRARo+ecKdXoCw6U+9CWR3VJtO2dtuS2LUW+Nqu7S5/1NaHuyyLlcVXrtzqO2Ndpn3OUbOTSg9b6w+TTd+6mZOtzgeQq4NJlpYb1lMLOF4A+5/y0wm/bFhZ8S7h4eMDBGICFED268lAmKQUBAM8Slm2bXIsThyEk3ASubp3lp84Fb2N1pAh5hz1hUXoWP/6SC6d+rg17q8wHecFT+BTnjodB0tjKc8NtNx9C3yOIDvaDfW4kDu48hDgxC2l1jcolkGZUhGPf4Uz0GT0G1oqPTB3sYVO/Lb0qEqfC8/DwXCACAgIQsDMY1R5b4D9/AMwggK3QDtlfT8HIBV/gZEobeG38GL0EYoSFhMPE1Q2d5Q7D26sjIco7DE8LgGdmBmOeFdzcR6CjdS+4e/RFBx4PlpZtm22L4JmZwZTfEUOnusNWAJg7e2PrYhdQUhSiikScfSjHsPTsj/gl1wn9XBuihEFenhA+PYfjYRKA3xZtLfiwdPGAh9y5EPboCl6ZBKVa3/lpjmF+H2N43hF8fbIILBhkh55Hm2kz0FVP5fKFvjgSHQw/+1xEHtyJQ3FisNJq1HAFkUufWnTBrSl1KMepAuH7DiOzz2iMaRQQ7BsExNW/tmM1w+knTn/oC5f9+lEVeQrheQ9xLjAAAQEB2BlcDY8t/pg/wOw59FeFyFPhyHt4DoEBAQgI2Ingag9s8Z+PAWbKv+VC33Hy0NbCHEbGDujv1hl8AMZCJ9gJgK79h8FWAEBgD7suRigTi7XUJ+568WL8pgaeEYyMjACQeu2zDMBXJPRz9Mtd11S9zal1FUpx9sdfkOvUD42lbhC8PIV4eu44wjgnJB7MzEzB7zgUU91tIYA5nL23YrELISkqCkVPtcx12uYS8GBmZgyelRvcR3SEdS93ePTtiLc06oIb7trFlRct15vAVgi77K8xZeQCfHEyBW28NuLjXgI1dVEVzjjyzGBmzIOVmztGdLRGL3cP9O3ANXkI0GuRL96tOoWg0DywYPAwJB5vzByLttr6UhuHDuDpOWdq9gUHymsrbXkky0Jmbm3jNjSBAxy6AvlZWaiGJr/VcMRehzlHyUYuPWi1XwUuXWpaTym30XpwKUx/jJT2tRrxwTcCiK33RH2BlcOIivG0RoJSsaqnmKIcPKliUVvbZC+hwB52tjzUSsR4pq066IMWu3mCaiTsWQzfg/no94Evxtrw1E8QTWBy0/C7BOAL1LuYLS+BqNoEzp5rsH79+oZ/61ZMQU8BD90WHcXl/V6wjNqBmf17YujyU8ipFaH4aQ0kpWKN/asrQEbK41NBgO5v94AF6iCteqqlj6YxZFCU8wRVbC2ah8kOtrxaSMTPwMJIaV+jEfhy52povzl8x/lYOcMU57/ej6SaFByLeAOzJnVQ/pl2eAJUJ+zBYt+DyO/3AXzH2oCnxQAufUKbLpR9rpILqjSLE5OLNLmANCapxv51OFYjHH7S5g990Wi/XrAoLxGh2sQZnmsa82j9+nVYMaUnBC3VH1uOElE1TJw9saZJfq5ftwJTeupXkfUdZ9MaKf+AB6NmRxiBxwNI8ZHG9hmuevGC/KYWM5ib8kBVlahUU7fZ8grAwhLyKbg1+21S16RqjubQugpMEXKeVIGtrW3yPGUB7O1swauVQKzvhCTojrd7WAB1UlQVcs914mzuuUSOaoXXqAttcNUurrxwKmux3oy7LcLRy/vhZRmFHTP7o+fQ5TiVI99GoHX+0hZHzoNV4dnMhO90S0QEHUBy5U388qg35rgaK77U0pfazvSbM8HhC800X1tpzSPjQZg0/g2kX72IxwwA6QOkZbeH++RRaNt4SHM4Y1+gw5zT1EZuPehdf7hs62msfj2lzaXPgWYfqIMvAB8E5bUBUcss5L/RDbZmRQg7cRGl9R+yIoQFBSPjjR7obsUg5fadxn2wbC2ktTy82c8VNvpY/lx2V+DCyqnYIJqB77bNxoBO9ZOq2vA2YNThdXQQ1CD5TgKaP5qVwLIAz6oLbMzTEHrgKsQN3zHIDDuPRBmD3OQn6Oq9B1fTUnB2Q1/k7PPDjghrdLM1Q1HYCVxsdBhEYUEITtdlLE0hUJO5oK6qBmwnZ/Tu2kWPPvjo0qM7rJgU3L7TuHePrZWilvcm+rna6CkwdbSDx4ql6PvgR3zp/z3uvj0XY8yVf6OdigsrMXWDCDO+24bZAzo1PIGAK4pc+kxnWqYLnTHqgNc7CFCTfAcJSs/2JZbl1qXWYzXD5SdufzS20QBn3nHYrxc8WHWxgXlaKA5cbcwkMJkIO5+oerOOrvCs0MXGHGmhB9C82TCcT9Sn1dYapyY42ue/wZHL9GL8phZjODh2hVHeQ6RXKH/HICvxCTr07KZYWD8vGupaF9XWubSuAr8LenS3ApNyG42ljkWttBa8N/vBVZcJiajJ2eI6VNWw6OTcG127cs91XV7nnkvUw6GL54ErL1Jea7HepLnJeNLVG3uupiHl7Ab0zdkHvx1XlMarHr3iqBNtMd7XG8KUQ/jaPwRlo2bBUSGf5+9L+5xJz+ELneF1hOfuffA2uYpvtu1G4BenYPZpGI762GvOQ67YJ1npOee0ct3msi1Rqn49daVVPdoMHapBI/xOtuhsnIe4S3dRVPwA5/cdxnWRDCW5j/G0vAYsw0BGbJOzcgQCgWVZRUFhwbDU6Oh2E7BwZlcUHl2Kf6z4N0J/DUbgR94IFQyFU4dJWObbB+KTu3EwXX7LLFt4GZG5w7DswxEwQRVu7V2ASe/746L8zgiNPJfdbBkeZRahIicdjytqkBt1FjcKGFSVFSAhPlmpp0Z4HSdj3qTXkXlgJTacy0EtpMi+m4xiRoy87EKUGY3DwtkOyArywug5/vgp9CSOBPhgbawFHAUMckN3IehuFWBqj79v+Bwz7M1hYmqNCQtnomvhUSz9xwr8O/RXBAd+BO9QAYY6ydOBIEOdkipZhgVRfQzqPyxBdpZilmPzceZMInr7foixpu209NE8hu0mLYNvHzFO7j4IeZhYFF6ORO6wZfhwhAnAMmBkBLbJX5pE8mRTm29qEPRajBWT6vCfb1IwZO4A3R7LxTBgFDEEWJQ9ykRRRQ7SH1egJjcKZ28UgKkqQ0FCPJJVJnsFXPo04tYFp6YA8ExNYYJnKMgvRUl8DBKrlOLE64jJ8ybh9cwDWLnhHHJqAWn2XSQXMxDnZaNQXKi5/1tF3MeWabqBSYuf+Bz+4PNgamoCPCtAfmkJ4mMSIeXKu7IizfYr8ophGIC068Ri3ELMdshCkNdozPH/CaEnjyDAZy1iLRwhaLH+LDBu4Ww4ZAXBa/Qc+P8UipNHAuCzNhYWjgIADOTmKeWVMjrUD+VxMiwr//+GRkiun4bZW/7fLMtoaT+XM5efy2+sCJe3euH97RFNTgxowhiDFy3FMN4V7PniKooa/girRX5EAD692hve4xWbibT1qw2NdQ1KMdOi9QplPWdj7DJf9BGfxO6D6fKngbCFuByZi2HLPsQIk+ZmqIMtyUajaWdwJrE3fD8cC9N23HOdmba5pApyjcjqGhcknLrQPG8B0FK7uPLitRbrzSg3FLuC7qIKprD/+wZ8PsMe5iamMILq/NW8dkbjxgOuONa7Rr+lmsB1EZaMEOH4ScLkSa8pPtWmGajGQXGcPnMmw+ELzSitrbTmkRgX1m9G7rRvsGOdH1Zu3YWt81wathrJD1D2G0fsnWx0mHOa28ilB631h2cKeXrmo7QkHjGJRpptczTSsJ4yAqpuYe+CSXjf/6LiBttWQnnTNTfPKGb7OOpmZUW2rjNoV8QFWjOgB41asIWORUTTyQ3u1InfhoSzAulCSjpdO7iMhlrzyNzVh36M+Z1Sz26mCV34JLD3pB3n0+VNVqZSsN9YEna0pHa2bjQ78BoV199bUJdFZzZOoQGuo2nW4n/SB/N86euoIvmNU0weHZrWmaxf70TD/JOa2KiO57E7l/JOLaOBnS2pffeR5LMvgn72tiNrx0m06wb3q1AY8U363nsw2bW3Jnu3yfTxlkU02GEIzf7sEN0oYIgqU+mY31hyam9CxlbdaNiSw5RcSfKXrWwYSt1d3iXvT7eQ/7oltCTgquIGmUpKDfajscKOZNnOltxmB9K1YoYY0V0KWf8u2fD5ZOuxkUJuPyWGiCpSz9LmCV2IL7Anzx3nKb2GqO7e59TP2IYGz/Shj1Z+Qh/NnUZen52l7Iabg9T3QVShNoZ1WWdo45QB5Dp6Fi3+5wc0z/driipiiEhCiSc3kHsnPrURzqLACymUfu0gLRtqTTxzV/L5MYbyuO4jaUJN1AoaMPkH3X5fnUbnNnlQZz6f7Dx30OnkZ8TknaJlAzuTZfvuNNJnH0X87E121o40adcN7hfaaNQno1kXl69r0VQekSyDDr0vpPavCckzMI4K1cSJGDHd/N6bBtu1J2t7N5r88RZaNNiBhsz+jA7dyNPc/w2JlmMLlEfZgFY/afQHkSzjEL0vbE+vCT0pMK6cO+9uFXPaX512jjZ5dCY+3448d5ym5GdKhipRmXqM/MY6UXsTY7LqNoyWHE6myufWXyWlHvOjsU7tycTYiroNW0KHkyuJqJrSzm0ij8584tt50o7TycoHNoFDJ2rGefPWGdo8wZb4AkeavvMsJWUn0K/bplA3voAcpwXQ/91/TLdDN9HfbfkkcJhGAWEP6TFH+5pzWU6L/VabQd9PeIM6T9pPmVpuKpTD0NPr39GSd/uRs8swch8/jtxHjaB3531Bl3Lq7yLSoV+OeHHXNdWYadO6qp7rKOvMRpoywJVGz1pM//xgHvl+HUVFHDbJqaN7n/cjY5vBNNPnI1r5yUc0d5oXfXY2u/HlFlxzHedccoDCLwXT+ndtiM+3JY+NIXT7KaNVdxqRJGqvXRrzglqoNyLp9Q00tLsLvev9KW3xX0dLlgTQ1UJG7fylXDvLNMXxy3CKCllP79rwiW/rQRtDbtNTrbFqRPzrIprkf7/ZzZ6aNXOdHt8NURMHfedMzb7QjHIft7XnUV0eHZ9rRyZGIMCIjHhtyNSqE/UY5UtHUwrorka/ccSec855pNYP6vWgSx2QUcah90nY/jUSegZSXDmXbZrXU0zeIZrW2Zpe7zSM/JNa725GI6LG8yB/RmpjNuDDOz74abmj8lcGNCBL2AS3IacxOfYOtrnqdP73JcMiZ783dnT8FkHT/6xvOTBgwMCL5NWtazIkbHLDkNOTEXtnG14p0wz8b8Lm4Yx/EMr/4Q1X9inEZRWoqhAj//4JHClYjLC946DDRZi/CLWI2fAh7vgEYXn9np/nRK+tIK8arCgWP5x7DXPnGxbVLaI1L328CJgKlIprwFbEYt9lG8ydaFhUGzBgQAuvcF17hU0z8D8Di7yjflhx3xF/6+uIXi4DMWzUWIybOB0zPNzwztuOum23/EvAQhT7A869NhfzW2lRjT/1wpoVIymBxaQtqzDasN7SC1lpKZ4xZRCJlV/39CohQ+KO0bDp1Amd31qG0vkrMax13oRqwICBvyCvbl2TobT0GZgyEV450wz8TyKw7gyz35Zj0Ni5WL7RHzu2b8anS+fhn786YolPd803MP7FYMVJSGAnYcuq0WjNZeSffiuIAf2QZlzG4f9EI6tMBoG1PUbPXAh3R8WjhF4xZNkXsT84Ga+Pn4+Zbh3/xH8FGjBg4EXy6tY1KTIuH8Z/orNQJhPA2n40Zi50xythmoH/aaR58Th3JhJJ+VXgt7dD/3FT8bc+r/3PLKpfJIaFtQEDBgwYMGDAgAEDrYDhJKABAwYMGDBgwIABA63AH7CwrkT2vfvIbfKWIQN/DJXZ93D/FXM8W56JpAxJw008r6KNBp6Hl5vvNXlJeKDm9dV/fViUZyYhQ/Jixv7ceVqTh6QHRRw3771c3bwaGHygmRrkJT3AnyG1teYKW47MpAy0KFWf59hXBu06V14nPBcvwWcvfGHNZv2A+UOGYvGRwtZxkgHdYLPww/whGLr4CApfBcczufgt0BsDHd6G1w9p8gfov2o2vmRqYzdjRM/hWHHuz5srLyvfWck9HPvEHU5Oo7E95lW6Q4xBVvRRfP3xVIwcPgJ/f38pfH195f8WL8A/xo/B3H2p+r9prAlM7m8I9B4Ih7e98EPa87SkgefJU1aCe8c+gbuTE0Zvj5G/WEUNL0s3rxIGH6iDheTeMXzi7gSn0dvxSqW2OjhzhUHub4HwHuiAt71+gH6p+jzHvlpw6lzdOqHFvESfKT/YuvWpoKy7CZRTrfx5y2CKb9OtDJ3eSPA/T0XWXUpoLce3BtIY+kRoQm+tuUFSxUetayNDxbdv0R8rj9bqU0pxa9+hQesiqVT5qz8VrZvv+sDkfEtjTNrT7P/q2DlTTLdvZTS+pOMFUhPxMTnwTWjyoeZvuqlJ/YYWbYykmmaf6o805hMSmrxFa27UZ1bropKn+viOyaFvx5hQ+9n/Jc2ReXm60cYfN+e8uj54uTCU8+0YMmk/m3RN7T8MNXmgkivNkFLMJ0IyeWsN6Z+qz3Psq4QWnatZJ7Scl+OzF37GGrCAnWs/dG2VR6VVIv7bTTj88I/80+PPi4WdK/q1juNbB741rK2av5i1VW2sjMe3mw7jD5VHa/XJPMHjLqsQsn1Uqz7254+nNfNdP3hWlrDgfu9vMyrjv8Wmww+f86yIbvDbtkNbNdXWpOc8fDztzed+bizf2hpKqdWqKOepXr7jWcFSa2Benm64+SPnnFfVBy8bHqwsLbS80vvloC4PlHOlOXxYW1u1cCzPc+yrhBadq1kntJyX4zM1pZ6bqtxE+R5GRoLM27G4l1Op+KYWRamxiLmfD+WtMzV5iUhVui5SlZ+E65HRuJNd3uxyQGVOEtJFLFBbhJTYWKQWKyTLliBuzwLMDbyJrIRLCI9IRgkLAFXISUpDCVOD/Ps3kVbKyH8vE+FhfASuRt5CpkTxmQJW8gjxUdeQkFMGUX4B6kegnkrkJcYg+sYDFEtrUZSZhXK2AAmXwxEWFo5raRKwYJB/5yLCwsJwMe4xqpoeXpWPpOuRiL6TjXKV6x4AwKIg4TLCw8IQfi0NEhZg8u/gYlgYwi7G4XFDY5XISUqH3DUpiI1NRb1rNFKTh8TUppdbdGmjBgXJ1xEVk4DsMmWDNfiaI54AICvNwM2oaNzLrVb6Rp2NXD7TbD9bEoc9C+Yi8GYWEi6FIyK5pKFNLttU0NQ3K8Gj+ChcS8hBmSgfBZUcfXJoryonCWklDGry7+NmWinqv5VJZHDo8zqy72ZC6RC1aBqTxvxRhi3Fg+hwhIWFISwsHDHpZWABlGdcx8WwMITHpCv2pMkgehiPiKuRuJUpabAXAFCVg6S0EjA1+bh/Mw31clCX74w4E7evRSMurVhlO4DO+ciW43FKJspZBuKMOETHZzT3Fc9ITQFVZz+Lkrg9WDA3EDezEnApPALJ8mICgIE48zauRcchrVjZUj1s1YkqJCUWofeAJs+NVaMzzchQmnETUdH3oC61gCrkJ11HZPQdZKsvPmBLHyA6PEyug/AYpJexAMqRcf2iQhcS+Q8b8pTDdxp1z4ORamBUUNFNVS4SHxSBBQNJ5m3E3stp8HdtUSpiY+4jv+lko00fgJb4KtW3p4Ua5hxAJnqI+IiriLylnK+aa1QjtShOu4HIyHhkiJsbqOIDjT7VhOa2uceui91cx0NL35q0qHlOaQpPnYD09U1tMdJuRCIyPgPNzVNXIxRU5iApXQQWtShKiUVsarFiEc2RB+rmNFkpMm5GIfpeLlRTlaN/aDtWGc3+1DRnAAAq85AYE40bD4ohrS1CZlY52IIEXA4PQ1j4NaTJFya4czEMYWEXEde4MJGjad7UY47gXCfoG2ttPtNkbyuh88KaLb2NY6vehbDHKGwJPYnNc2bB+4PpGOI8GKvCb+Poh5MwbeFSzBjsjBGbb6AKACu+h5BPx8Op+0hsjVZUQLYA4dsWY1VQFBJvncCq4UKM3HgFJUU3cWTFGDgJJyAg5ACWeEzE7HkT4dLHE0EZDFhJPkRm7dGWZSGtlEBSVoHCuINYPsYJwnFbsH/nexg+dAgGLjyK4sxjWDB4Or69/xSFsQHwEA7H1htyIdQm7oG333HkymqQenAOBr/3E7JUCoicqpTD8J04DzsvpiAt+mvMcnVAr2k/II3tgG5vFuHnJVOx+EAqZOCjQ9dOSN8zB1M+CUU+A/mCOXwbFq8KQlTiLZxYNRzCkRtxRaQcRR46dHsTRT8vwdTFB5AqA/gduqJT+h7MmfIJQvPrUHLzCFaMcYJwQgBCDiyBx8TZmDfRBX08g5ChTmOsGPdCPsV4p+4YuTUaNWB1a6PsBnZ5TsbmuDqYlJ3HR4Od8c6Y8Zg43R+/Rqr3tUhDPOXDrELSD/Pg4XMACXkZOLvBD0EPFZ2p2AgOn8m02M9Cki+CWfu2YFkpKiUSlFXJNGpNJQQAR98sUJuIPd5+OJ4rQ03qQcwZ/B5+yqpV2yejQXtscRwOLh8DJ+E4bNm/E+8NH4ohAxfiqIhB5rEFGDz9W9x/WojYAA8Ih2+FQq6qaBiTtvxRgWeB10zS8O9FkzF1x11Yd7EAD4D5G21xc3cgbgs6wJwycWzBYEz/9j6eFsYiwEOI4VtvoIotRtzB5RjjJMS4Lfux873hGDpkILz3R6jmOySI+8YbXutCkZSTjjOrRqCXhz8iFJOQbvnIIDd6L3wG2qHX7L0I3joe/QeNw7tDnCEc64/rZcq/V8Bosl+CfJEZ2rdlwUorIZGUoUoGQBKHb7y9sC40CTnpZ7BqRC94+Ec0LKZ0s1VXZCh7EIJvjz1o/ENDrc40dFCVhB/mecDnQALyMs5ig18Q6lMLANiCcGxbvApBUYm4dWIVhgtHYuMVkcqEyrN4DSZp/8aiyVOx4641uljwAJjjjbY3sTvwNgTW0uZ5qsF3mnSvCyrzBFuK28dW4V1hD4zaEoqTm+dglvcHmD7EGYNXheP20Q8xadpCLJ0xGM4jNuNGlY760BhfFsVq5pJ35v2Ax83mnCrIoClfdauxbEkkdsz3xr+uZKM4cS+mCN3gd7oAMmUfQH+famqbBffYdbFb8/Ha+1avxRKN87eoyZg0oZ9vWJRE7sB873/hSnYxEvdOgdDND6cLWI4aUYKbR1ZgjJMQEwJCcGCJBybOnoeJLn3gGZQBRl0e1Kqb04CqpB8wz8MHBxLykHF2A/yCHjYunjX1r8uxzVCvYV3m6JTDvpg4bycupqQh+utZcHXohWk/pIHt0A1vFv2MJVMX44B8YYKundKxZ84UfBKa33CSQu28WVKoxxzBsU7QO9bafKbBXvWLgpajvDeECyb/O3I3MafB66OoQEZE0rv0uUsbajdkLV16UkdEdXTvcxcycfSjCMWmQabge3I3saKZJyqJiKGikDk0Zl2cYu8MQ9m7R5FxG1fadK+OZI++omHGVuS2/DRlSolI8l+a08mEhn/1iGT1/Zvaks+F+h2JDGXvHk3GZn1o+aViEqdcofD7xZTyxSAyH7CVkuqIqO4mre9tSi6b7lEdSSl2dW9yWRsn3+vHFFLw9r2UUtcwxEbKf6MVvV1pzfVKxQdSil39Fpn0Xk8364hIlkrbB5pSz9XXFWOR0vXVPclsyJf0u4yIKQqhOWPWUZxiXw+TvZtGGbch1033SLU7GaVuH0imPVfTdcXvpddXU0+zIfTl7zIiktGjr4aRsZUbLT+dSXLXzKFOJsPpq0ca9v4xBfS9uwlZzTxB8hFoa6OOkra9Q23dtlGKjIioju5+1pdMui+jSClp8HUJFXDEszJmDfV1XEinxQqbKs7RIts2jXunlGzk9pk2+xnK/86dTG19SC4Pbq0pw9V3Zexq6u2yluLkoqHC4O20N6VOTZ8yeqBRe/I2RxubUZ/ll6hYnEJXwu+TqPYBfTHInAZsTSL5Ieupt6mLWhu1jUlb/qgij7mZ7UI6LZF/wuQfoo/WhFE5EckefEGDzAfQVvlg6Ob63mTqsonuyQdDu0cbk1mf5XSpWEwpV8LpvohRynci8YWlJHReQVH1++kqY2iVszHZzPqFChk98pGkFLu6J7WxGUubw59QHVVS6o/TyJZvTAO23Jfn1LNDNNm0cY81t/359J27Kdn6XFDsbxbThaVCcl4R1bAPuDJmFTkb29CsXwqJ0ad2qKHu1kbq00ZADu8uoqVLl9LSpT40e2wPsp39H0V+Ekk16kyZSopZ05ccF56mxtRaRLZtFHusmSIKmTOG1jWKmXaPMqY2roqxK1OXRNveMSPbhadJLgOG8g99RGvCyuXfK9cSFd9x657oGR2abMq5x1pZN/I+TMh88HqKkk82dPdzF2rTbgitvfREniv3PicXE0fyi6jRQR/a4quuvomoTnnOkXHlq5YaxRTQcS8n8vg+mxgiorpk+mpUB+qy4BRVqPhAm0+V4Gxb29i12K3teK6+ObWo3ueMoo+mPDs0mUwb9ljr5xum4Dh5OXnQ99nyluuSv6JRHbrQglMV3DVC9oi+GmZMVm7L6bS8oNJ/53Qik+FfkXzKUc4DNblSGUNr+jrSwsZJkM4tsqU2ij2/nP1rOVYVdf7knqPLf1tBvV3XUOMyJ5ZWv2VCvdffpDoikqVup4GmPWl148KEVvc0oyFf/i5fk3HMm3U6zhHc6wT9Yq3NZ5z2Nm3nOdH5jDUA8NpawNzIGA793dCZD8BYCCc7AdC1P4bZCgAIYG/XBUZlYogVr53hWVqibcNVnCpEngpH3sNzCAwIQEDATgRXe2CL/3wMMAP4bdvCgm8JFw8POBgDsBCiR1ceyiSlUP8WGx7MzIzBs3KD+4iOsO7lDo++HfGW7xFEB/vBPjcSB3ceQpyYhbS6BiwEsBXaIfvrKRi54AucTGkDr40fo5eaDY5l5/fjWPkgjB9grviEj3bt2up8ir8q8hTC8x7iXGAAAgICsDO4Gh5b/DF/gJnyT3WAj7ZtLcC3dIGHhwPkrumBrrwySErVewY8S1g2Ol6HNmTIysxFbcPldAEcHLoC+VnIqoYGX5siWmM8KxC+7zAy+4zGGGuFCaYOsLdp8l4nJRu5fabNfmW4taYMV98CWyHssr/GlJEL8MXJFLTx2oiP1YkGfAg1ag/gmZnBmGcFN/cR6GjdC+4efdGhjRC+R6IR7GeP3MiD2HkoDmJWiuoadX9Bc49J//wRoNciX7xbdQpBoXlgweBhSDzemDkWbQHwhb44Eh0MP/tcRB7ciUNxYrDSatTIBwMzYx6s3NwxoqM1erl7oG8HnlK+l+Lsj78g16kfXOv305kPgpenEE/PHUeYRPd8lOvPFPyOQzHV3RYCmMPZeysWuxCSoqLUPoaL035lSs/ix19y4dTPFY2mesFT+BTnjodBokft0Awfvefsxv79+7F//48IvngCK/s2NqCzzirCse9wJvqMHoPG1LJHQ2pVReJUeB4engtEQEAAAnYGo9pjC/znD4Aa6QOCXljk+y6qTgUhNI8FmIcIiX8DM8e2lX+vUkuU4da9LjTXDQBeW1iYG8HYoT/c5JMNhE52EKAr+g+zhQCAwN4OXYzKIBaTdn081RZfdfWtg2q953Plq5YaJQ5DSLgJXN06y9sVvI3VkSLkHfaEhYoP9PQpV9tata3Fbm3Hc/XNqUUdfa6Cfr4Rh4Ug3MQVbp3lLQveXo1IUR4Oe1pw1wh+W7S14MPSxQMe8oIKYY+u4JVJoHbKgWquVITvw+HMPhjdOAnCwd6mYesXV//ajlVFnT+55ugynN9/DOWDxqNxmdMO7dTdDKIBrnlTtzlC2zpBv1hr8xmnva2I7h4EACPlPYxG4Bmh2aRtxOMBTV/maGTUuL+OLUeJqBomzp5Ys3491tf/W7cCU3oKVNs34oNvBBCrScUA1Oyq5AmqkbBnMXwP5qPfB74Ya8NT2MhDt0VHcXm/FyyjdmBm/54YuvwUclSurTDIf5SFCoEx2qg2rwMsyktEqDZxhueaJuNcvw4rpvRs0Y1KRkp7zIz4fBiBoNk1RqrHKP9/szaMMWjSeLyRfhUXHzMApHiQlo327pMxSjG/qviaK55OBUj7XQLwBRwia2qjdp9x268El209lSPA3bdxt0U4enk/vCyjsGNmf/QcuhynVEUDcGpPjqqceBBUJ2DPYl8czO+HD3zHwoanbkA6jKkF+cOzmQnf6ZaICDqA5Mqb+OVRb8xxVbxvmSdAdcIeLPY9iPx+H8B3rA2amaY6mOb5zhQh50kV2NraJvddCGBvZwterQTiZ9AxHzUg6I63e1gAdVJI1Q1Rm/1NYIpy8KSKRW1tk027AnvY2fJQKxHjGatr7dADQV/MnT+sYbHC01FnTG4a5KmlPrPY8hKIqk3g7LmmiZbXY92KKVCRPgCAB5uZvphuGYGgA8movPkLHvWeg3oZqKslymjTvVaa6kb+gcq+bCPVyQY8kOZ+muijqlBbfKFB0Mpw56uyn5rWKEZUjKc1EpTWn3VSRskH+viUq23t2tZit5bjxSWa+9auRV18roruvmEgKn6KGklpw8m+ZnDWCGUNGoEvL6ga+oJSrjDITfsdEvChIVU5+tfhWLUo+ZNrznAqxqOsCgiM2ygfpSPc86bG8DabI3K1rhP0iTW3z3Swt5VQ2/0Lg2eFLjbmSAs9gKvixo+ZzDCcT9Swl1BvKnBh5VRsEM3Ad9tmY0CneneR3PHJT9DVew+upqXg7Ia+yNnnhx1XpEptGMG6fTvgyW3EPVad2OTwIeCrWbQQgQEPVl1sYJ4WigPNB4qw84lq76TnyxtTEgyBNHXf6vDQ0XM39nmb4Oo327A78AucMvsUYUd9YK/pT2SueCZZ4fUOAtQk30GCknuJVfe3pv4+44TLNhWtcfctzU3Gk67e2HM1DSlnN6Bvzj747bgCZdVwa08DFRewcuoGiGZ8h22zB4DzEL3GpCttMd7XG8KUQ/jaPwRlo2bBURHvigsrMXWDCDO+24bZAzo1FB51pqmF3wU9uluBSbmNOw1b4ljUSmvBe7MfXG1Ix3xsAlGTMxV1qKph0cm5N7qo0ag+9vO79EB3KwYpt+803nzM1kJay8Ob/Vxhw9O1dugDH2/YdAQ9PoNT8VIwOurMqMPr6CCoQfKdBKXvCCwL8Ky6wMY8DaEHrqJRJgwyw85Do0zajoevtxAph76Gf0gZRs1y5DgzpkwLdP+i0KCPrl21xbfhIG70yVcl+G90g61ZEcJOXERp/YesCGFBwUhXqfP6+ZSr7Yw3nm/s2nLjTRvNff9u0QItakUf3/DxRjdbmBWF4cTFBuvAisIQFJyOMj1qhP4YocPrHSCoScYd1UkQLGeN0n6sTnDNGUltIV/mxEHzMkcAvpqTV0SM1nlTp/AaddCyTtAn1tp81gr26oiWlFKCYcEqinc9BICanKEmIoBlGzeLswxYqj/GAuMWzoZDVhC8Rs+B/0+hOHkkAD5rY2HhKADLMJAR22SxSiAQWFYuJJ6pKUzwDAX5pSiJj0Filfw3kNU1OoUtw6PMIlTkpONxRQ1yo87iRgGDqrICJMQnIjd0F4LuVgGm9vj7hs8xw94cJqbKf1bx0Olv/8Bos3h8OedD7Lt4E3d+O4xDvxU0jovfCbadjZEXdwl3i4rx4Pw+HL4ugqwkF4+floM/biFmO2QhyGs05vj/hNCTRxDgsxaxFo5q/jLio5NtZxjnxeHS3SIUPziPfYevQyQrQe7jpyivYcEwMhDbROBEcrGoXaQCAAuGpSaLWO1tiC+sx+bcafhmxzr4rdyKXVvnwaX+ior8gOa+5oqnkw0mz5uE1zMPYOWGc8ipBaTZd5FczECcl43CsioVGy04fabNfh5MTU2AZwXILy1BfMwjDNNkm6NqBLj6NsoNxa6gu6iCKez/vgGfz7CHuYkpjJT7jL6BBxq1lyw3GTLUNclgtuwRMosqkJP+GBU1uYg6ewMFTBXKChIQn1zR+EOA29865I8mBK6LsGSECMdPEiZPek3xKYuyR5koqshB+uMK1ORG4eyNAjBVZShIiEdyRb0clMpRs3xvh0nLfNFHfBK7D6bLb9JjC3E5MhfDln2IESaMjvnYCFuSjSyFW9j8MziT2Bu+H46Vn/VlGDCK8Wq1v8oU8tDlo7QkHjHZY7HMtw/EJ3fjYLr8dkK28DIic4dh2YcjYALNtrKiy9jq9T62RzQp1kqwslrICGAYpRlMmoYDWy+jVmgCRqPOmsPrOBnzJr2OzAMrseFcDmohRfbdZBQzYuRlF6LMaBwWznZAVpAXRs/xx0+hJ3EkwAdrYy2gRvoKBHBdtAQjRMdxkiajQQaASp6Cp+S7hEKOmpsMgAHDyCdKjTpsphsAYMCySn+EyyebximVCAQWbBOXatRHu0la4gs19U11zkko5MrXZ9w1qt0ELJzZFYVHl+IfK/6N0F+DEfiRN0IFQ+HEV/IB5zwmryXN4Gq7g7axa6mt2nzH1beVNi2q+lwdjFxALfJNuwkLMbNrIY4u/QdW/DsUvwYH4iPvUAiGOqKCq0Y8Y8DICGyTE15ytyjsUM6DROU5jYeOk+dh0uuZOLByA87JJ0HcTS4GI85DdqEYhRr7v4WisVzHljV/+lgDyv7kmDOcuuBv/xgNs/gvMefDfbh48w5+O3wIvxU0JhS/ky06G+ch7tJdFBU/wPl9h3FdJENJ7mM8La/hnDcbw8sxR/A6cq8TxNpqS1O0+bsMRtrsbS2UN11rpCKVzmyeQLZ8ATlO30lnk7Ip4ddtNKUbnwSO0yjg/+7T49uhtOnvtsQXONC0gDDKKE2ls5snUBe+gOw9d9D59BoiqqTUY3401qk9mRhbUbdhS+hwciWRJJFObnCnTvw2JJwVSBdS0unawWU01JpH5q4+9GNMHpEsgw69L6T2rwnJMzCWsu+G0Pp3bYjPtyWPjSF0+ylDRAzlnVpGAztbUvvuI8lnXwT97G1H1o6TaNeNYrq+YSh1d3mXvD/dQv7rltCSgKtUqO5uCZJR/qXNNNm5I7W1sqcxK0MpbLMbmdXfvEhEz2K207huVmRl60ozdkXQhTUDqMeoBbTl2C16yhBVph4jv7FO1N7EmKy6DaMlh5MbblRS4VkMbR/XjaysbMl1xi6KuLCGBvQYRQu2HKOI6P/QBvdOxG8jpFmBFygl/RodXDaUrHnm5OrzI8XkKQ+gglLPbqYJXfgksPekHefTSZJ4UksbdZR3fC7ZmRgRADIy4lEbUyvq1GMU+R5NoQK1vibN8SQiYsR083tvGmzXnqzt3Wjyx1to0WAHGjL7Mzp045GKjUSafabdfoZkGYfofWF7ek3oSYFx5dy2qUFT39LrG2hodxd61/tT2uK/jpYsCaCrCtE077NMo/a+DI+ikPXvkg2fT7YeGynk9lP5TTpMHp1aNpA6W7an7iN9aF/Ez+RtZ02Ok3bRDcUNhc3RMCZd8ocD8a+LaJK/4iZABUzeKVo2sDNZtu9OI332UcTP3mRn7UiTvgynqJD19K4Nn/i2HrQx5DY9ZeQ1QjXf6yjrzEaaMsCVRs9aTP/8YB75fh1FRQzJb/jVOR/r6N7n/cjYZjDN9PmIVn7yEc2d5kWfnc2W35hZnUbnNnlQZz6f7Dx30OnkZ5rt33WDJCSjjEPvk7D9ayT0DKS4ciKqy6IzG6fQANfRNGvxP+mDeb70dVSR4mYqzbbKMr6nCW90pkn7M5WNJiIZZf72I235h5BMjHjU3mUaLVq6VH4D46K5NOHtDvT6e8Ek0qIzZRjxTfreezDZtbcme7fJ9PGWRTTYYQjN/uwQ3ShgiCpT6ZjfWHJqb0LGVt1o2JLDxCF9BWL6ddEk8r/fVAWqtYRUfMdVcwsp7dwm8ujMJ76dJ+04ndyk7foulHUjotQzm2mCLZ8EjtNp59kkyk74lbZN6UZ8gSNNC/g/uv/4NoVu+jvZ8gXkMC2AwjIqufVBXPFlSKSpvjWbc+KonCNfL1/XXqOoMpWC/caSsKMltbN1o9mB16hYbe5UcfhUbWHQ3DZxjV232sp1vNa+1WqRw+dKVKedo00enYnPtyPPHacp+RmX3tT7pjI1mPzGCqmjZTuydZtNgdeKieGqcbsu0/WTG8i9E5/aCGdR4IUUSr92kJYNtSaeuSv5/BhDeYxyHqjLFYbEN78n78F21N7antwmf0xbFg0mhyGz6bNDNygvV1P/N0ii5diCZu7i8qeGOYOISJZPlzZPJueObcnKfgytDA2jzW5mDTcvEj2jmO3jqJuVFdm6zqBdERdozYAeNGrBFjp266m8dXXzJiOiu7rOEZzrhDw9Y63dZ2rtVW7mOTGipqebDXDAIHX7YLidGIeoe1/gnVb98+ZVgEXeGX8Elf8D3q4snorLUFFVAXH+fZw4UoDFYXsxTn5ax4CBl4AMCZvcMOT0ZMTe2QbXv1z+GXg+DPowYOC5YVKxfbAbToyLwr0v3mnds7j/Q+i3FcTAXxY27yj8VtyH49/6wrGXCwYOG4Wx4yZi+gwPuL3zNsclZAMG/lg0bicwYMCgDwMGDLxkDAtrnZHh6dMyyCokeKZtQ9ifEYE1Opv9huWDxmLu8o3w37Edmz9dinn//BWOS3zQXfc7mQwYeAHIUFr6DEyZCGJ1L30z8D+OQR8GDDw3sqd4WiZDheSZ1n3vBjTD37JlyxblDw0owyDvejDCn3SCSy9LiHON8KaLPaz/Qn+WGLV9CxN95mOsnQDVzypQa2QFuyHvY8Wq9+H22l9ooAb+hEiRcfkILhW/if5vt0VpDqFLX0e0N/yxZwAw6MOAgdaAycP14HA86eSCXpZi5Bq9iQH2zZ5eYEBHDHusDRgwYMCAAQMGDBhoBQynIg0YMGDAgAEDBgwYaAUMC2sDBgwYMGDAgAEDBlqBl7ewZsuRmZQBSUtu4a7Mxr37uU1ek/zyYcszkZQhabgjvTL7Hu7nvkoWvmI8T/x1oCYvCQ+KXlDjBtTyavq8Etn37oMrFZVzVy9esI6BP6iPFqLsO611r5XGwkjEKHvONv4U1OQh6UFRozZfwbmv9WFRJpY0vozNgIE/GS9hYc0g97dAeA90wNtePyBN71tPWWT9MB9Dhi7GkcJXoLIyufgt0BsDHd6G1w9p8jtp2Sz8MH8Ihi4+glfBxFeL540/N6zkHo594g4np9HYHvPnejxA2f/9E/2cJ2BHXLnyV680r7LP2awfMH/IUCw+Uqi6cFaXuzrzYnUs54/oo4Wo8x1n3WutsUiRceprfHX2dz3j9SeDleDesU/g7uSE0dtj5G8tfdXmvhdITdJxbNpxEo+U3kxtwMCfgZewsOaj61g/LB71Glp22yQP9kt+xo3YH7Gg80swXxl+V4z1W4xRrzV51S7PHkt+voHYHxegdUxkUXLnNh79Jf6Ef974c8OzdsXslVMh1KdxtgR3bj96yWdIKhDxf9dg47sLqwZbKn/5StMin/9B8OyX4OcbsfhxQWfVYqcud3XmxepYzh/RRwtR5zvOutcaY2GQdfxjbH44FivmDcRf+mFFPGu4zl6JqcKm2lQ/97Eld3D7FZ0cWmYbD2+M/BBrht7Cqo9OIEffww0YeMm8pNLEh7W1FYyUP9YVCzu49usKU+XPXxZ8a1hbNR+NhZ0r+nVtJQsr4/HtpsN4+Jc5RfOc8dcCz8oSFno0Xhn/LTYdfvhyz4DVpkLU/1sc9evz6uhaD/T1+R+HBexc+0FjKqrJXd15sTqW80f00ULU+I677j3fWJjMH+H3FfC+r8ufMkf0hmcFS+WkUpn7KhH/7SYcfiUnh+ezzXrMp5gr3YaPDzx+ySc9DBjQjxYtrGuL03AjMhLxGeLmgpeJ8DA+AlcjbyFToiYVZKXIuBmF6Hu5qFb+DjKIHsYj4mokbmVq219Vg7zE1CaXGyuRk5QOEQvUFqUgNjYVxSq5XIOC5OuIiklAtsrmvCrkJKWhhKlB/v2bSCtt7L0qPwnXI6NxJ7tc5VKyrDQDN6OicS9XdTSoyUNiqvLl5yrkJ11HZPQdZJc3/Uaz/WxJHPYsmIvAm1lIuBSOiOSShja5bFNG028rc5KQLu8YKbGxSFV1nCq1xUi7EYnI+AyImwuAO4atFX+2HI9TMlHOMhBnxCE6PgPN5MYzUp281WqTRUncHiyYG4ibWQm4FB6B5JJ67zAQZ97Gteg4pBXrv71BJnqI+IiriLyV2dw2sJA8ikfUtQTklImQX1Ap/9h4IBYteQuF6U32U6pDo+8BMGJk3r6G6Lg0qJhclYvEB0VgwUCSeRux93Kg6Bm1RamIjbmPfDUbNxlxJm5fi0ZcWrHicrQG1PmcK6asBI/io3AtIQdlonzUu6HJD1CQcBnhYWEIv5YGCQsw+XdwMSwMYRfj8Liq/neac6eemrxEpCpdOufMXbVaafo9l44BVOUj6Xokou9ko1maax1zE1rahzItjLumegFtvlNX9zjHwqGRZlTgyq6vkDDAE2PbKX/HVduBqpwkpJUwqMm/j5tppYo+OPptkc+46oWGnNcKD0YqSdVk7mNLELdnAeYG3kRWwiWERySjhAVQlYOktBIwNfm4fzMNjdPZi7BRjopeNNkGLTWsGR0wYXp/3N71FSL0M8eAgZeKfgtrtgSRO+bD+19XkF2ciL1ThHDzO40CFmAyj2HB4On49v5TFMYGwEM4HFtvNMx+qEr6AfM8fHAgIQ8ZZzfAL+hhYzFjMnFswWBM//Y+nhbGIsBDiOFbb6Dx6HpYiO+F4NPxTug+ciuia1iU3DyCFWOcIJwQgJADS+AxcTbmTXRBH88gZNR3UHYDuzwnY3NcHUzKzuOjwc54Z8x4TJzuj18jD2L5GCcIx23B/p3vYfjQIRi48ChEbAHCty3GqqAoJN46gVXDhRi58QpELABUIemHefDwOYCEvAyc3eCHoIeKzlgx7oV8ivFO3TFya3TDTSZsQTi2LV6FoKhE3DqxCsOFI7HxSgmKOO1nIckXwax9W7CsFJUSCcqqZACnbUpo+G1J0U0cWTEGTsIJCAg5gCUeEzF73kS49PFEUIPjlGFRErkD873/hSvZxUjcOwVCNz+clguAM4atE38GudF74TPQDr1m70Xw1vHoP2gc3h3iDOFYf1wvU/69HI3aZCXIF5mhfVsWrLQSEkkZqmQAJHH4xtsL60KTkJN+BqtG9IKHf0TjxMAJg8xjCzB4+re4/7QQsQEeEA7fCnkq1CJxjzf8judCVpOKg3MG472fsiBroplRDfspleHwPQBJ3Dfw9lqH0KQcpJ9ZhRG9POAfUQKWLcXtY6vwrrAHRm0JxcnNczDL+wNMH+KMwavCcfvoh5g0bSGWzhgM5xGbFXYCgARx33jDa10oknLScWbVCPTy8EeEbk7gjmltIvZ4++F4rgw1qQcxZ/B7+ClL+Q86Hjp0exNFPy/B1MUHkCoD+B26olP6HsyZ8glC8+u05j4rvoeQT8fDqftIbI2uz0SO3OXSSv3RXDoGi4LwbVi8KjrvA84AABP2SURBVAhRibdwYtVwCEduxBURq+OY5bS4j6a0NO4a6kVL6x7nWLg0okz5ZQT/XwHefued5merNdb27biaFYeDy8fASTgOW/bvxHvDh2LIwIU4Wqyh35b6jLNeaMj5pmPQCeW5D2Al+RCZtUdbloW0UgKJ+AniDy7HGCchxm3Zj53vDcfQIQOx8KjoxdmoQS8lpUq2lVVBpqWGqcNswAC8lXcKwVcNK2sDfyJIZxgqOO5FTh7fUzZDRFRHyV+Nog5dFtCpChk9+GIQmQ/YSkl1RFR3k9b3NiWXTfeojoioMobW9HWkhafFirYq6NwiW2rz1hq6ISWSPfiCBpkPoK3yg+nm+t5k6rKJ7tU1M0ABQwXfu5OJ1Uw6UUlEJKNHXw0jYys3Wn46k6REJPnvHOpkMpy+eiQjojpK2vYOtXXbRikyIqI6uvtZXzLpvowipfL2snePJmOzPrT8UjGJU65Q+P0SKgiZQ2PWxZFU0Wf27lFk3MaVNt2ro8qYNdTXcSE1DuccLbJtQ2+tuSH/PVNA37ubkNXME1RJRMQUUcicMbQuTt4aMdm0e5QxtXHdRPfqtNnPUP537mRq60MXauS2FHHY1hzu38oefUXDjK3IbflpypR3THM6mdDwrx6RTKklIiKm4Dh5OXnQ93IBUF3yVzSqQxdacKqCO4atGn8pxa7uSW1sxtLm8CdUR5WU+uM0suUb04At9+V6e3aIJpu2p9n/rSYiLdpk8uk7d1Oy9blANUREJKYLS4XkvCKKqhU9VsasImdjG5r1SyHJR86B7AF9McicBmxNInl366m3qYs8NtJYWt3bhdbGyVtmCoNp+94UhR1yzbSf/d+GfpvC5XsSX6ClQmdaEdVgMcWsciZjm1n0SyGjGKMJmQ9eT1EFMiKS0t3PXahNuyG09tITuZ33PicXE0fyi1B44cJSEjqvoMYmY2iVszHZzPqFCtU5oZnPuWMqjV1NvV3WktwNDBUGb6e9KeqCLaPU7QPJtOdquq5IHen11dTTbAh9+btMh9wnYgq+J3cTK5opLxZacleLVrTomCkKoTlj1lFjmu+mUcZtyHXTParUdczP0YdKa3rHnbtecPuuUcMNdU/LWLg0ooz0+irq2eZNWhIu16ccbbVd7p/RxmbUZ/klKhan0JXw+1ScwtGv3j7TUi+4cl4rz+jQZNMmNUF57iNi8r8jd1Nb8pFPDvK5ZbQxmfVZTpeKxZRyJZzui0QvyEZuvSjbxlnDNFF9iua93obeWhOr6MOAgVcfPc5YixEWEg4TVzfFjSkCvL06EqK8w/C04EPoewTRwX6wz43EwZ2HECdmIa2uAQugInwfDmf2wegx9a/HNIWDvQ3q3zjLF/riSHQw/OxzEXlwJw7FicFKq1Gj9g9ZHiwt2za57MxH27YW4Fu6wMPDAcYALIQ90JVXBkkpAZAhKzMXtQ2XqgVwcOgK5Gchq1renpmZMXhWbnAf0RHWvdzh0dcU0afCkffwHAIDAhAQsBPB1R7Y4j8fA8wqEL7vMDL7jEbjcBxgb9Pk/bk8S1i2bXINryoSp8Lz8PBcIAICAhCwMxjVHlvgP38AzLTar0wVIjXapt9v+W3bwoJvCRcPDzjIO0aPrjyUSUrV3swlDgtBuIkr3BQ3zgjeXo1IUR4Oe1pwxrC1429mZgp+x6GY6m4LAczh7L0Vi10ISVFRUH3aG7c2VSg9ix9/yYVTP9eGM2Pmg7zgKXyKc8fDIFH6uQp8IXyPRCPYzx65kQex81AcxKwU1TUsILCF0C4bX08ZiQVfnERKGy9s/LgXBKjXjOZ05PJ96dkf8UuuE/q5NliMQV6eED49h+NhEoDXFhbmRjB26A+3znwAxhA62UGArug/zBYCAAJ7O3QxKoNYTABKcfbHX5Dr1A+NTQ6Cl6cQT88dR5hWJ3DHVGArhF3215gycgG+OJmCNl4b8XEvgXITOqA9d3iWlmhMRW25y60VbTquijyF8LyHOBcYgICAAOwMrobHFn/MH2Cm85ifpw8V9I47V73Q5jvVuqdtLFwaUUaWm4sCtEW7dk33Rmir7QDPzAzGPCu4uY9AR+tecPfoi45vcfSrr8+01QuunNcb5blPDTwzmBnzYOXmjhEdrdHL3QN9cf4F2cilF+XfctcwjRhZo50lIT8rR7cz6AYMvAJonsmVYUQofloDSalY7aKLJ6hGwp7F8D2Yj34f+GKsDU/xOwa5ab9DAj4EmnrjCVCdsAeLfQ8iv98H8B1rA566ThQYGTXfz2mktBHNiM+HEQgsAYAxBk0ajzfSr+LiYwaAFA/SstHefTJGtW04otnxYMtRIqqGibMn1qxfj/X1/9atwBSnAqT9LgH4Ag7nGTWziS0vgajaBM6eaxrbWr8e61ZMQU+BNvuV4LKtp1Ip1PZbJT/CiA++EUBqO2YgKn6KGkkpxOq+1hjD1o+/CoLueLuHBVAnhVTNcZq1qQpTlIMnVSxqa5tsohTYw86Wh1qJGM/UTPrN4UFQnYA9i31xML8fPvAdC5v6wfC6YdHRy9jvZYmoHTPRv+dQLD+Vo7g0bqRmP2U9XL5nUJTzBFVsLZqbbAdbXi0k4mdg1bRtxDNCMycY8cCD4gkETBFynlSBra1t8rxcAeztbMGrlUCs3QmcMeV1W4Sjl/fDyzIKO2b2R8+hy3Gqhbf+a80doyZjZ3K15q5mrWjTMYvyEhGqTZzhuaZJrq1fhxVTesJYpzE/Xx+qCyE9485VL/Sue9rGwq0RZaiuDnWE5rbrVNtVqruWfvXzmdZ6Aa6c1x/luU8tSj94YTZy6UV5LuKsYRwYtYFxG4Bldag5Bgy8Imgqearw30A3WzMUhZ3AxdL6D1mIwoIQnF6GCyunYoNoBr7bNhsDOtUnFQEwQofXO0BQk4w7CUoPpSRWfibowkpM3SDCjO+2YfaATg0ThD75pxkeOnruxj5vE1z9Zht2B36BU2afIuyoD+ybnGxpBs8KXWzMkRZ6AFfFjR8zmWE4n2SF1zsIUJN8B6rDUZ/8PKsusDFPQ+iBq2hsjkFm2Hkk6vtnOJdtyo3p81ut8PFGN1uYFYXhRKMAwIrCEBScjjKNMXxB8Sdqcsa5DlU1LDo590YXlZhWcGhTFX6XHuhuxSDl9p3GvZ5sLaS1PLzZzxU22jKm4gJWTt0A0YzvsG32ADTrjslF8pOu8N5zFWkpZ7Ghbw72+e3AFa3PauXyfQbe6NEdVkwKbt9p3J3K1kpRy3sT/Vxt9EhyBfwu6NHdCkzKbTQ2yaJWWgvem/3gqtUJ3DFlcpPxpKs39lxNQ8rZDeibsw9+O65AnRv4Aj5ArFK0CKR11leDUQctuculFW065sGqiw3M00JxoHmyIex8IqQ6jfn5+tA3o1Xgqhd61z1tY+HWiDKCzm/gdaNKlFc2/bYFtV3PfrWhtV5QS3O+9XhhNnLpRWV+4aph6ZoX8VSFyiojvPZGp4YrHQYMvOponyEbaIcJC2eia+FRLP3HCvw79FcEB34E71ABhjpW4FFmESpy0vG4oga5UWdxo4BBVVkBEuJT0XHyPEx6PRMHVm7AuZxaQJqNu8nFYMR5yC4Uo/BRJooqcpD+uAI1uVE4e6MATFUZChLikVyhbAfAMixIUZwBFgwjA7FNzlIRyYu3ouCLL6zH5txp+GbHOvit3IpdW+fBpf7qpPwAQFbXZGKywLiFs+GQFQSv0XPg/1MoTh4JgM/aWFg42WDyvEl4PfMAVm44B/lw7iK5mIE4LxuFZVVym1hqnHAsxmHhbAdkBXlh9Bx//BR6EkcCfLA21gKOAm3282BqagI8K0B+aQniYx5hmCbbHJXPEnCMw1EAlmEgI7bJGWoCgcCy9b5tTrsJCzGzayGOLv0HVvw7FL8GB+Ij71AIhjqiQmMMb6FobOvGHwDYkmxkKb5j88/gTGJv+H44Vn6pk2HAKMYBtoxDm8kAzxRy9+ajtCQeMdljscy3D8Qnd+NguuK1DIWXEZk7DMs+HAETVOHW3gWY9L4/Lqq56YYte4TMogrkpD9GRU0uos7eQAFThbKCBMQnpiN0VxDuVgGm9n/Hhs9nwN7cBKZGUGhGfrVAtVUu3zuhw6Rl8O0jxsndByE3mUXh5UjkDluGD0eYAGDAskoLIJLrrGExQQQCC5YBgHaYtMwXfcQnsftguvxmSrYQlyNzMWzZhxhh0thMA019DhZlHDFNTA/FrqC7qIIp7P++AZ/PsIe5ianyiTYAfHSy7QzjvDhculuE4gfnse/wdYhkJch9/BTlNdpyBwDLgCWCPJU6cueuuJBDK9rqWBmMxi3EbIcsBHmNxhz/nxB68ggCfNYi1sIRRrm6jJn3XH0oZ7/+ceeoF3rXPW1j0S/v2/T7//buPiiK+4wD+KOLQJ0B7gaDKDMcHub+SFMjhVgQqxaxSIMISRPB8YUaYDAR8jKtjWAQiYSpGcxMHGqat7NGS9tManiRTMYmV+UiatGKAg1TmqrMSaFSUAElsPftH0QDhxyVWRiOfD//7s7ec7u/37Pf2dvf3KOy0POaNF8Zuoht9N4uAumXvrvN3fnYrOu6z3PmE+e8X6jNI8x5531kgCqqOlDLnT2G3vtEpnt6iofckJar/5X/nLbKhZ47t7NBwXbMNYr0/HWfbIpLlvxPWr453l1OxovRbVhtl5eN3MMUe7sc27VWkndbBj18EpEem1zt8JQFYQtkhtil/dguWZu8WyxDdiKaZBxfunauGw2HMxFlegBePgEIW1eEqjYVgArbkSws8veCPngpUvdbcDDFAJ0xDnuqOwGo6DhTjJRwA/S6IISt3oq8p8MxL2IddpirYWs+gqxF/vDSB2Np6n5YDqbAoDMibk81Oh0q6Goox87YuVDcgpBQcBQ1NR8ie4UflBkmJBVVor6xCu9lLYZu+kyEpL4Nq60Ptt+th8FjGkQE06ZNxwxPb/g9uAwZ79ej5VwJtkfPgaIEICanBDXX7qzM6kbDoUxEzdfDw90bgZHpOFB3Z8VIB84UpyDcoIcuKAyrt+bh6fB5iFi3A+bqf6KhfCdi5ypwC0pAwdHGrw/XgEOZUZiv94C7dyAi0w+grhvovDBa/Sr6m8xINunha0pA0ambzmsbZoR9Oy/gw+wV8FNmwJRUhMr6RlS9l4XFuumYGZKKt602xwMBALobDiMzyoQHvHwQELYORVVtUAGoNmfXULvrD/Thby8/Avc54Xgq9Vm88OKzWJ+4FjvKLw8suLz1BSpyY+CvKDAkFKC0rnOUsdmPJnMyTHpfmBKKcOomgL5LKMuJR2jIciSlbcHmDRnYe7x1YOGiaoM50R+6WX6IzL/oWByg2nAkaxH8vfQIXpqK/ZaDSDHoYIzbg+q2z5G9OBgLo1OwLS8fL6Wno/DTf0NF1zdjZl4iXq38esw4GOncA0DfpTLkxIciZHkS0rZsxoaMvTjeqgLoQkPZTsQGKHAzPoFflV/E5fN/wivxgVDcjEgs/Ai1/6rBH3N/ggDFDfMSC/FxUy+APlwqy0F8aAiWJ6Vhy+YNyNh7HK33Wrg47JzfcDoe2j7PxuLghYhO2Ya8/JeQnl6IT++5IhLADSt2rwyEt3cAQp7cA0vlLxD64DJsyjsEy4kPnM+df9ShfGcs5ipuCEoowNHG26PMXdsoY8X5OG5Rge6GQ8iMmg+9hzu8AyORfqAO3QB6/+/vPPbPGGqs132EfoGx9D3n3+W+5r3aAvOaWTA9f2LQIjbVSW//O261n0PJ9mjMURQExOSgpObaKL3qM5weyzlz1i96R5jzo/UR3MIXFbmI8VegGBJQUFo37N7XeBtAfxPMySbofU1IeO0TWEu2I3qOAiUgBjklNbh7OxtLjVBhMyfCXzcLfpH5Q8u7y8l4GVxb0SncdNbD+ptQHDsb/nFv4stBK+d7rS/C5LsG5hZ1oFcXx2K2fxzeHLwT0SQzDRj7/2C5BrvYyvLlNzcfl5QQu1zruC5dPV3ScbVW/vDbFkn7eJ+svNcTOJqk+uV8bphElK6Wk2dfkZDhj+kmxFfWbHnmbKq885zRcRMRjYOeqp9LxAue8u6p3RLmJlOit7tEH/nKKtnPnJVX33nOccs465fzuRGy6dbrUv3aEpnpuJlokrqPV0Fck932vmQ+XyvGVQvE+NBCWRS5TKJWPiZPPBkjYY9+V4a9PUEuY6QfUMebvf2kvFXhK+s3TuKbIdEUM/OHL8sbPz4n+37fLPYp0Ntdoo/Y2+XkWxXiu36j45ZxZ28rlf3nouWNHQzV5Fqm/BNre2upbI3aKId7Q2X1YxFi8vuOqNeb5cvWWbImd5f8NHiSd19ycFs+2/qQrKpYJZUNv5boie649g6ptdSLT+QSCfpW/K8y0SSiXpHywmK5/KNtkjHfKlmu2ttdoo/YpaPWIvU+kbJkgou0d5yRd4v+LLPTfinxBi5bJNcy5YO1iIj02uR0RZn85eJV6VH0Yvj+Slmz6nviy/nqYnql6dgB+eDEJbne7ya6oOXy1M9WiNHdcT8imrp65cqZiyKhYRLYz94+9ahypaZG8PAPxDCxeZ5IE9+OYE1ERERENM6m/DvWREREREQTgcGaiIiIiEgDDNZERERERBpgsCYiIiIi0gCDNRERERGRBhisiYiIiIg0wGBNRERERKQBBmsiIiIiIg0wWBMRERERaYDBmoiIiIhIAwzWREREREQaYLAmIiIiItIAgzURERERkQYYrImIiIiINMBgTURERESkAQZrIiIiIiINMFgTEREREWmAwZqIiIiISAMM1kREREREGmCwJiIiIiLSAIM1EREREZEGGKyJiIiIiDTAYE1EREREpIH/AVhfujbjiMAhAAAAAElFTkSuQmCC;" parent="1" vertex="1">
          <mxGeometry x="520" y="-170" width="726" height="233" as="geometry" />
        </mxCell>
        <mxCell id="tby80TmxBhAo45sjsNx7-44" value="Plato" style="whiteSpace=wrap;html=1;align=center;fillColor=#f0a30a;strokeColor=#BD7000;fontColor=#000000;" parent="1" vertex="1">
          <mxGeometry x="833" y="190" width="100" height="40" as="geometry" />
        </mxCell>
        <mxCell id="tby80TmxBhAo45sjsNx7-45" value="" style="endArrow=none;html=1;rounded=0;exitX=0.5;exitY=0;exitDx=0;exitDy=0;" parent="1" source="tby80TmxBhAo45sjsNx7-44" target="tby80TmxBhAo45sjsNx7-46" edge="1">
          <mxGeometry relative="1" as="geometry">
            <mxPoint x="853" y="145" as="sourcePoint" />
            <mxPoint x="913" y="145" as="targetPoint" />
          </mxGeometry>
        </mxCell>
        <mxCell id="tby80TmxBhAo45sjsNx7-46" value="&lt;u&gt;CÃ³digo_Plato&lt;/u&gt;" style="ellipse;whiteSpace=wrap;html=1;align=center;" parent="1" vertex="1">
          <mxGeometry x="840.5" y="100" width="85" height="30" as="geometry" />
        </mxCell>
        <mxCell id="tby80TmxBhAo45sjsNx7-47" value="CategorÃ­a" style="whiteSpace=wrap;html=1;align=center;fillColor=#f0a30a;strokeColor=#BD7000;fontColor=#000000;" parent="1" vertex="1">
          <mxGeometry x="1153" y="190" width="100" height="40" as="geometry" />
        </mxCell>
        <mxCell id="tby80TmxBhAo45sjsNx7-48" value="Pertenece" style="shape=rhombus;perimeter=rhombusPerimeter;whiteSpace=wrap;html=1;align=center;fillColor=#76608a;fontColor=#ffffff;strokeColor=#432D57;" parent="1" vertex="1">
          <mxGeometry x="1003" y="190" width="90" height="40" as="geometry" />
        </mxCell>
        <mxCell id="tby80TmxBhAo45sjsNx7-49" value="" style="endArrow=none;html=1;rounded=0;exitX=0;exitY=0.5;exitDx=0;exitDy=0;" parent="1" source="tby80TmxBhAo45sjsNx7-48" edge="1">
          <mxGeometry relative="1" as="geometry">
            <mxPoint x="980" y="180" as="sourcePoint" />
            <mxPoint x="933" y="210" as="targetPoint" />
          </mxGeometry>
        </mxCell>
        <mxCell id="tby80TmxBhAo45sjsNx7-50" value="(1,N)" style="resizable=0;html=1;whiteSpace=wrap;align=right;verticalAlign=bottom;" parent="tby80TmxBhAo45sjsNx7-49" connectable="0" vertex="1">
          <mxGeometry x="1" relative="1" as="geometry">
            <mxPoint x="34" as="offset" />
          </mxGeometry>
        </mxCell>
        <mxCell id="tby80TmxBhAo45sjsNx7-51" value="" style="endArrow=none;html=1;rounded=0;exitX=1;exitY=0.5;exitDx=0;exitDy=0;" parent="1" source="tby80TmxBhAo45sjsNx7-48" edge="1">
          <mxGeometry relative="1" as="geometry">
            <mxPoint x="980" y="180" as="sourcePoint" />
            <mxPoint x="1153" y="210" as="targetPoint" />
          </mxGeometry>
        </mxCell>
        <mxCell id="tby80TmxBhAo45sjsNx7-52" value="(1,M)" style="resizable=0;html=1;whiteSpace=wrap;align=right;verticalAlign=bottom;" parent="tby80TmxBhAo45sjsNx7-51" connectable="0" vertex="1">
          <mxGeometry x="1" relative="1" as="geometry">
            <mxPoint as="offset" />
          </mxGeometry>
        </mxCell>
        <mxCell id="tby80TmxBhAo45sjsNx7-53" value="" style="endArrow=none;html=1;rounded=0;exitX=0.5;exitY=0;exitDx=0;exitDy=0;" parent="1" source="tby80TmxBhAo45sjsNx7-47" target="tby80TmxBhAo45sjsNx7-54" edge="1">
          <mxGeometry relative="1" as="geometry">
            <mxPoint x="1161" y="145" as="sourcePoint" />
            <mxPoint x="1221" y="145" as="targetPoint" />
          </mxGeometry>
        </mxCell>
        <mxCell id="tby80TmxBhAo45sjsNx7-54" value="&lt;u&gt;Nombre&lt;/u&gt;" style="ellipse;whiteSpace=wrap;html=1;align=center;" parent="1" vertex="1">
          <mxGeometry x="1178" y="130" width="50" height="30" as="geometry" />
        </mxCell>
        <mxCell id="tby80TmxBhAo45sjsNx7-55" value="Ingrediente" style="whiteSpace=wrap;html=1;align=center;fillColor=#f0a30a;strokeColor=#BD7000;fontColor=#000000;" parent="1" vertex="1">
          <mxGeometry x="513" y="190" width="100" height="40" as="geometry" />
        </mxCell>
        <mxCell id="tby80TmxBhAo45sjsNx7-61" value="Necesita" style="shape=rhombus;perimeter=rhombusPerimeter;whiteSpace=wrap;html=1;align=center;fillColor=#76608a;fontColor=#ffffff;strokeColor=#432D57;" parent="1" vertex="1">
          <mxGeometry x="683" y="190" width="90" height="40" as="geometry" />
        </mxCell>
        <mxCell id="tby80TmxBhAo45sjsNx7-62" value="" style="endArrow=none;html=1;rounded=0;exitX=0;exitY=0.5;exitDx=0;exitDy=0;" parent="1" source="tby80TmxBhAo45sjsNx7-61" edge="1">
          <mxGeometry relative="1" as="geometry">
            <mxPoint x="660" y="180" as="sourcePoint" />
            <mxPoint x="613" y="210" as="targetPoint" />
          </mxGeometry>
        </mxCell>
        <mxCell id="tby80TmxBhAo45sjsNx7-63" value="(1,M)" style="resizable=0;html=1;whiteSpace=wrap;align=right;verticalAlign=bottom;" parent="tby80TmxBhAo45sjsNx7-62" connectable="0" vertex="1">
          <mxGeometry x="1" relative="1" as="geometry">
            <mxPoint x="34" as="offset" />
          </mxGeometry>
        </mxCell>
        <mxCell id="tby80TmxBhAo45sjsNx7-64" value="" style="endArrow=none;html=1;rounded=0;exitX=1;exitY=0.5;exitDx=0;exitDy=0;" parent="1" source="tby80TmxBhAo45sjsNx7-61" edge="1">
          <mxGeometry relative="1" as="geometry">
            <mxPoint x="660" y="180" as="sourcePoint" />
            <mxPoint x="833" y="210" as="targetPoint" />
          </mxGeometry>
        </mxCell>
        <mxCell id="tby80TmxBhAo45sjsNx7-65" value="(1,N)" style="resizable=0;html=1;whiteSpace=wrap;align=right;verticalAlign=bottom;" parent="tby80TmxBhAo45sjsNx7-64" connectable="0" vertex="1">
          <mxGeometry x="1" relative="1" as="geometry">
            <mxPoint as="offset" />
          </mxGeometry>
        </mxCell>
        <mxCell id="tby80TmxBhAo45sjsNx7-66" value="" style="endArrow=none;html=1;rounded=0;exitX=0.5;exitY=0;exitDx=0;exitDy=0;" parent="1" source="tby80TmxBhAo45sjsNx7-55" target="tby80TmxBhAo45sjsNx7-67" edge="1">
          <mxGeometry relative="1" as="geometry">
            <mxPoint x="528" y="98" as="sourcePoint" />
            <mxPoint x="588" y="98" as="targetPoint" />
          </mxGeometry>
        </mxCell>
        <mxCell id="tby80TmxBhAo45sjsNx7-67" value="&lt;u&gt;Nombre_Ingrediente&lt;/u&gt;" style="ellipse;whiteSpace=wrap;html=1;align=center;" parent="1" vertex="1">
          <mxGeometry x="497" y="80" width="132" height="30" as="geometry" />
        </mxCell>
        <mxCell id="jqxBOpcvPjvf3QeO-ftN-1" value="" style="endArrow=none;html=1;rounded=0;exitX=0.75;exitY=0;exitDx=0;exitDy=0;" parent="1" source="tby80TmxBhAo45sjsNx7-44" target="jqxBOpcvPjvf3QeO-ftN-2" edge="1">
          <mxGeometry relative="1" as="geometry">
            <mxPoint x="933" y="125" as="sourcePoint" />
            <mxPoint x="993" y="125" as="targetPoint" />
          </mxGeometry>
        </mxCell>
        <mxCell id="jqxBOpcvPjvf3QeO-ftN-2" value="Nombre" style="ellipse;whiteSpace=wrap;html=1;align=center;" parent="1" vertex="1">
          <mxGeometry x="925.5" y="100" width="50" height="30" as="geometry" />
        </mxCell>
        <mxCell id="G5pxP7qFypIFHIQagcFt-3" value="" style="endArrow=none;html=1;rounded=0;exitX=0.25;exitY=0;exitDx=0;exitDy=0;" parent="1" source="tby80TmxBhAo45sjsNx7-44" target="G5pxP7qFypIFHIQagcFt-4" edge="1">
          <mxGeometry relative="1" as="geometry">
            <mxPoint x="700" y="105" as="sourcePoint" />
            <mxPoint x="760" y="105" as="targetPoint" />
          </mxGeometry>
        </mxCell>
        <mxCell id="G5pxP7qFypIFHIQagcFt-4" value="DescripciÃ³n" style="ellipse;whiteSpace=wrap;html=1;align=center;" parent="1" vertex="1">
          <mxGeometry x="765.5" y="90" width="75" height="30" as="geometry" />
        </mxCell>
        <mxCell id="kZlBU48loMokNwLcn_oV-1" value="" style="endArrow=none;html=1;rounded=0;exitX=1;exitY=0;exitDx=0;exitDy=0;" edge="1" target="kZlBU48loMokNwLcn_oV-2" parent="1" source="tby80TmxBhAo45sjsNx7-44">
          <mxGeometry relative="1" as="geometry">
            <mxPoint x="950" y="145" as="sourcePoint" />
            <mxPoint x="1010" y="145" as="targetPoint" />
          </mxGeometry>
        </mxCell>
        <mxCell id="kZlBU48loMokNwLcn_oV-2" value="Dificultad" style="ellipse;whiteSpace=wrap;html=1;align=center;" vertex="1" parent="1">
          <mxGeometry x="975.5" y="120" width="64.5" height="30" as="geometry" />
        </mxCell>
        <mxCell id="kZlBU48loMokNwLcn_oV-3" value="" style="endArrow=none;html=1;rounded=0;exitX=0.25;exitY=1;exitDx=0;exitDy=0;" edge="1" target="kZlBU48loMokNwLcn_oV-4" parent="1" source="tby80TmxBhAo45sjsNx7-44">
          <mxGeometry relative="1" as="geometry">
            <mxPoint x="742" y="145" as="sourcePoint" />
            <mxPoint x="802" y="145" as="targetPoint" />
          </mxGeometry>
        </mxCell>
        <mxCell id="kZlBU48loMokNwLcn_oV-4" value="Foto" style="ellipse;whiteSpace=wrap;html=1;align=center;" vertex="1" parent="1">
          <mxGeometry x="840.5" y="280" width="50" height="30" as="geometry" />
        </mxCell>
        <mxCell id="kZlBU48loMokNwLcn_oV-5" value="" style="endArrow=none;html=1;rounded=0;exitX=0.5;exitY=1;exitDx=0;exitDy=0;" edge="1" target="kZlBU48loMokNwLcn_oV-6" parent="1" source="tby80TmxBhAo45sjsNx7-44">
          <mxGeometry relative="1" as="geometry">
            <mxPoint x="926" y="285" as="sourcePoint" />
            <mxPoint x="986" y="285" as="targetPoint" />
          </mxGeometry>
        </mxCell>
        <mxCell id="kZlBU48loMokNwLcn_oV-6" value="Precio" style="ellipse;whiteSpace=wrap;html=1;align=center;" vertex="1" parent="1">
          <mxGeometry x="900" y="280" width="50" height="30" as="geometry" />
        </mxCell>
        <mxCell id="kZlBU48loMokNwLcn_oV-7" value="" style="endArrow=none;html=1;rounded=0;exitX=0.87;exitY=0;exitDx=0;exitDy=0;exitPerimeter=0;" edge="1" target="kZlBU48loMokNwLcn_oV-8" parent="1" source="tby80TmxBhAo45sjsNx7-47">
          <mxGeometry relative="1" as="geometry">
            <mxPoint x="1260" y="115" as="sourcePoint" />
            <mxPoint x="1320" y="115" as="targetPoint" />
          </mxGeometry>
        </mxCell>
        <mxCell id="kZlBU48loMokNwLcn_oV-8" value="DescripciÃ³n" style="ellipse;whiteSpace=wrap;html=1;align=center;" vertex="1" parent="1">
          <mxGeometry x="1241" y="100" width="75" height="30" as="geometry" />
        </mxCell>
        <mxCell id="kZlBU48loMokNwLcn_oV-9" value="" style="endArrow=none;html=1;rounded=0;exitX=0.75;exitY=0;exitDx=0;exitDy=0;" edge="1" target="kZlBU48loMokNwLcn_oV-10" parent="1" source="tby80TmxBhAo45sjsNx7-55">
          <mxGeometry relative="1" as="geometry">
            <mxPoint x="660" y="95" as="sourcePoint" />
            <mxPoint x="720" y="95" as="targetPoint" />
          </mxGeometry>
        </mxCell>
        <mxCell id="kZlBU48loMokNwLcn_oV-10" value="DescripciÃ³n" style="ellipse;whiteSpace=wrap;html=1;align=center;" vertex="1" parent="1">
          <mxGeometry x="640" y="80" width="70" height="30" as="geometry" />
        </mxCell>
        <mxCell id="kZlBU48loMokNwLcn_oV-12" value="" style="endArrow=none;html=1;rounded=0;exitX=0.25;exitY=0;exitDx=0;exitDy=0;" edge="1" target="kZlBU48loMokNwLcn_oV-13" parent="1" source="tby80TmxBhAo45sjsNx7-55">
          <mxGeometry relative="1" as="geometry">
            <mxPoint x="412" y="95" as="sourcePoint" />
            <mxPoint x="472" y="95" as="targetPoint" />
          </mxGeometry>
        </mxCell>
        <mxCell id="kZlBU48loMokNwLcn_oV-13" value="Cantidad_AlmacÃ©n" style="ellipse;whiteSpace=wrap;html=1;align=center;" vertex="1" parent="1">
          <mxGeometry x="380" y="80" width="117" height="30" as="geometry" />
        </mxCell>
        <mxCell id="kZlBU48loMokNwLcn_oV-14" value="" style="endArrow=none;html=1;rounded=0;exitX=0;exitY=1;exitDx=0;exitDy=0;" edge="1" target="kZlBU48loMokNwLcn_oV-15" parent="1" source="tby80TmxBhAo45sjsNx7-61">
          <mxGeometry relative="1" as="geometry">
            <mxPoint x="640" y="255" as="sourcePoint" />
            <mxPoint x="700" y="255" as="targetPoint" />
          </mxGeometry>
        </mxCell>
        <mxCell id="kZlBU48loMokNwLcn_oV-15" value="Cantidad_Ingredientes" style="ellipse;whiteSpace=wrap;html=1;align=center;" vertex="1" parent="1">
          <mxGeometry x="613" y="240" width="135" height="30" as="geometry" />
        </mxCell>
        <mxCell id="kZlBU48loMokNwLcn_oV-16" value="" style="endArrow=none;html=1;rounded=0;exitX=0.822;exitY=0.6;exitDx=0;exitDy=0;exitPerimeter=0;" edge="1" target="kZlBU48loMokNwLcn_oV-17" parent="1" source="tby80TmxBhAo45sjsNx7-61">
          <mxGeometry relative="1" as="geometry">
            <mxPoint x="688" y="315" as="sourcePoint" />
            <mxPoint x="748" y="315" as="targetPoint" />
          </mxGeometry>
        </mxCell>
        <mxCell id="kZlBU48loMokNwLcn_oV-17" value="Unidades_Medida" style="ellipse;whiteSpace=wrap;html=1;align=center;" vertex="1" parent="1">
          <mxGeometry x="690" y="290" width="113" height="30" as="geometry" />
        </mxCell>
      </root>
    </mxGraphModel>
  </diagram>
</mxfile>
